<svg width="13" height="13" viewBox="0 0 13 13" fill="none" xmlns="http://www.w3.org/2000/svg">
<path d="M10.6039 6.91735L6.3559 11.2751L6.35589 11.2751C6.23533 11.3988 6.17013 11.5665 6.17462 11.7415C6.17911 11.9164 6.25294 12.0842 6.37986 12.2079C6.50677 12.3316 6.67639 12.4011 6.85138 12.4011C7.02637 12.4011 7.19241 12.3316 7.31297 12.2079L12.6573 6.72452C12.6574 6.72452 12.6574 6.72451 12.6574 6.72451C12.7171 6.66328 12.7639 6.59058 12.795 6.51056C12.8261 6.43053 12.841 6.34474 12.8388 6.25811C12.8366 6.17147 12.8173 6.08569 12.782 6.00566C12.7468 5.92563 12.6963 5.85293 12.6334 5.79171C12.6334 5.7917 12.6334 5.7917 12.6334 5.79169L7.00726 0.308344C6.94442 0.247096 6.87043 0.198512 6.78953 0.165365C6.70863 0.132219 6.62239 0.115155 6.53574 0.115155C6.44909 0.115155 6.36373 0.132219 6.28453 0.165365C6.20533 0.198512 6.13384 0.247096 6.07415 0.308344C6.01445 0.369592 5.96772 0.442305 5.93661 0.522329C5.90551 0.602354 5.89065 0.688124 5.89287 0.774742C5.8951 0.86136 5.91437 0.94713 5.94958 1.02715C5.9848 1.10718 6.03527 1.17989 6.09811 1.24114L6.13256 1.2058L6.09811 1.24114L10.57 5.59886L1.19136 5.59886C1.01645 5.59886 0.850499 5.66832 0.73 5.79195C0.609501 5.91558 0.544329 6.08326 0.548821 6.25811C0.553313 6.43295 0.627101 6.60063 0.753951 6.72427C0.880804 6.8479 1.05033 6.91735 1.22523 6.91735L10.6039 6.91735Z" fill="#3D9DCD" stroke="#3D9DCD" stroke-width="0.1"/>
</svg>
