<svg width="16" height="17" viewBox="0 0 16 17" fill="none" xmlns="http://www.w3.org/2000/svg">
<path d="M8.61844 1.58057C9.36276 1.5818 9.73996 1.58573 10.0659 1.59543L10.1943 1.59963C10.3425 1.60491 10.4888 1.61152 10.6652 1.61979C11.369 1.6523 11.8491 1.76364 12.2708 1.92734C12.7067 2.09544 13.0749 2.32252 13.4425 2.69014C13.8096 3.05777 14.0367 3.42705 14.2053 3.86192C14.3684 4.283 14.4798 4.76361 14.5129 5.46745C14.5208 5.64382 14.5271 5.79012 14.5323 5.93844L14.5365 6.0668C14.5462 6.3927 14.5506 6.76995 14.552 7.51428L14.5525 8.00748C14.5526 8.06774 14.5526 8.12991 14.5526 8.19406L14.5525 8.38064L14.5521 8.87385C14.5508 9.61818 14.5469 9.99537 14.5372 10.3213L14.533 10.4497C14.5278 10.598 14.5212 10.7443 14.5129 10.9207C14.4803 11.6245 14.3684 12.1046 14.2053 12.5262C14.0372 12.9621 13.8096 13.3303 13.4425 13.6979C13.0749 14.065 12.705 14.2921 12.2708 14.4608C11.8491 14.6239 11.369 14.7353 10.6652 14.7683C10.4888 14.7762 10.3425 14.7825 10.1943 14.7878L10.0659 14.7919C9.73996 14.8016 9.36276 14.806 8.61844 14.8074L8.12524 14.8079C8.06498 14.808 8.00281 14.808 7.93866 14.808L7.75208 14.8079L7.25888 14.8075C6.51455 14.8063 6.13731 14.8024 5.8114 14.7927L5.68304 14.7884C5.53472 14.7832 5.38843 14.7766 5.21206 14.7683C4.50823 14.7358 4.02872 14.6239 3.60653 14.4608C3.17111 14.2927 2.80239 14.065 2.43477 13.6979C2.06714 13.3303 1.84062 12.9605 1.67196 12.5262C1.50827 12.1046 1.39749 11.6245 1.36442 10.9207C1.35656 10.7443 1.35015 10.598 1.34496 10.4497L1.3408 10.3213C1.33112 9.99537 1.32671 9.61818 1.32528 8.87385L1.3252 7.51428C1.32643 6.76995 1.33036 6.3927 1.34006 6.0668L1.34426 5.93844C1.34953 5.79012 1.35615 5.64382 1.36442 5.46745C1.39693 4.76307 1.50827 4.28355 1.67196 3.86192C1.84006 3.42649 2.06714 3.05777 2.43477 2.69014C2.80239 2.32252 3.17167 2.09599 3.60653 1.92734C4.02817 1.76364 4.50768 1.65286 5.21206 1.61979C5.38843 1.61193 5.53472 1.60552 5.68304 1.60033L5.8114 1.59617C6.13731 1.58649 6.51455 1.58208 7.25888 1.58065L8.61844 1.58057ZM7.93866 4.88708C6.11129 4.88708 4.63169 6.36829 4.63169 8.19406C4.63169 10.0214 6.11289 11.501 7.93866 11.501C9.76602 11.501 11.2456 10.0198 11.2456 8.19406C11.2456 6.36668 9.76436 4.88708 7.93866 4.88708ZM7.93866 6.20987C9.03452 6.20987 9.92283 7.09787 9.92283 8.19406C9.92283 9.28993 9.03478 10.1782 7.93866 10.1782C6.8428 10.1782 5.95447 9.29019 5.95447 8.19406C5.95447 7.0982 6.84247 6.20987 7.93866 6.20987ZM11.411 3.89498C10.9551 3.89498 10.5842 4.2653 10.5842 4.72117C10.5842 5.17703 10.9545 5.54792 11.411 5.54792C11.8668 5.54792 12.2377 5.1776 12.2377 4.72117C12.2377 4.2653 11.8662 3.89441 11.411 3.89498Z" fill="#040605"/>
</svg>
