<svg width="17" height="17" viewBox="0 0 17 17" fill="none" xmlns="http://www.w3.org/2000/svg">
<path d="M5.45614 3.56411C5.4559 4.10269 5.12915 4.58735 4.62997 4.78954C4.1308 4.99174 3.55887 4.87111 3.18388 4.48452C2.80889 4.09793 2.70573 3.52259 2.92303 3.0298C3.14034 2.53701 3.63471 2.22516 4.17305 2.24132C4.88806 2.26278 5.45647 2.84877 5.45614 3.56411ZM5.49583 5.86576H2.85026V14.1464H5.49583V5.86576ZM9.67583 5.86576H7.04348V14.1464H9.64938V9.80104C9.64938 7.38034 12.8042 7.15546 12.8042 9.80104V14.1464H15.4167V8.90155C15.4167 4.82076 10.7473 4.97288 9.64938 6.97689L9.67583 5.86576Z" fill="#040605"/>
</svg>
