<svg width="119" height="47" viewBox="0 0 119 47" fill="none" xmlns="http://www.w3.org/2000/svg">
<rect x="0.408691" width="118" height="47" fill="white"/>
<path d="M35.8839 8.00008C35.9161 8.00016 35.9483 8.00024 35.9814 8.00032C36.4502 8.00223 36.893 8.02346 37.3488 8.1415C37.4085 8.15475 37.4682 8.16792 37.5279 8.18102C38.2962 8.36077 39.0321 8.72538 39.6542 9.20879C39.69 9.23526 39.7258 9.26173 39.7627 9.28901C41.5897 10.6803 42.4771 12.9897 42.7887 15.1953C42.8517 15.692 42.8664 16.1852 42.8667 16.6852C42.8668 16.7208 42.8668 16.7565 42.8668 16.7932C42.8648 18.3872 42.6141 20.142 41.5753 21.4187C41.5465 21.455 41.5176 21.4913 41.4879 21.5287C41.2397 21.8241 40.9584 22.0227 40.6361 22.2298C40.5938 22.258 40.5515 22.2862 40.508 22.3152C40.5601 22.3083 40.6122 22.3015 40.6659 22.2944C40.8661 22.268 41.0662 22.2418 41.2664 22.2156C41.3571 22.2037 41.4477 22.1918 41.5384 22.1798C42.4337 22.062 42.4337 22.062 42.8289 22.019C44.31 21.8575 45.776 21.571 47.24 21.2986C50.7544 20.6458 50.7544 20.6458 52.0175 21.3877C52.2913 21.5841 52.5308 21.8471 52.5898 22.1871C52.6272 22.612 52.595 22.9299 52.3256 23.2651C52.1738 23.4267 52.0292 23.521 51.8213 23.596C51.788 23.6087 51.7546 23.6214 51.7203 23.6345C51.115 23.8248 50.4257 23.7362 49.8042 23.6813C48.7039 23.5862 47.5938 23.639 46.4913 23.666C45.8913 23.6806 45.292 23.687 44.6918 23.6813C44.6879 23.7197 44.684 23.758 44.68 23.7975C44.6448 24.042 44.5674 24.2759 44.4967 24.512C44.4813 24.5639 44.466 24.6158 44.4502 24.6693C44.4093 24.8075 44.3683 24.9457 44.3272 25.0838C44.0816 25.9086 43.8434 26.7341 43.6245 27.5663C43.678 27.5611 43.7316 27.556 43.7867 27.5506C47.1101 27.2342 47.1101 27.2342 48.5341 27.5236C48.5906 27.5335 48.6471 27.5434 48.7037 27.5531C48.9732 27.6054 49.1652 27.6519 49.3452 27.8651C49.499 28.1408 49.5129 28.4021 49.4306 28.7056C49.1622 29.1502 48.4609 29.2658 47.9938 29.3893C46.6369 29.7187 45.133 29.534 43.7573 29.4342C43.721 29.4317 43.6847 29.4291 43.6473 29.4264C43.4801 29.4137 43.3186 29.3978 43.1549 29.3594C43.153 29.3834 43.1511 29.4074 43.1491 29.4321C43.121 29.7492 43.0678 30.0595 43.0106 30.3725C43.0001 30.4306 42.9896 30.4887 42.9791 30.5469C42.9506 30.7043 42.9218 30.8617 42.8928 31.0191C42.8746 31.1182 42.8565 31.2173 42.8384 31.3164C42.6416 32.3896 42.4329 33.4603 42.2166 34.5297C42.1945 34.6388 42.1725 34.7479 42.1506 34.857C41.5125 38.0201 41.5125 38.0201 40.8068 38.5381C40.4088 38.7742 40.0266 38.9092 39.5636 38.8078C39.0602 38.6675 38.6625 38.3868 38.4009 37.9232C38.2534 37.6032 38.2353 37.307 38.232 36.9585C38.2308 36.9181 38.2295 36.8777 38.2282 36.8361C38.2216 36.0447 38.4716 35.2738 38.7016 34.5251C38.7286 34.4359 38.7557 34.3468 38.7826 34.2577C38.8356 34.083 38.8888 33.9085 38.9423 33.7341C39.0014 33.5413 39.0596 33.3483 39.1173 33.1551C39.9833 30.2806 39.9833 30.2806 40.508 29.2313C40.1825 29.2274 39.8624 29.2259 39.5388 29.2645C39.3777 29.2801 39.2181 29.2766 39.0565 29.274C39.0538 29.1316 39.0546 28.9895 39.0565 28.8471C39.0552 28.7991 39.0552 28.7991 39.054 28.7502C39.0575 28.6284 39.074 28.5334 39.157 28.4415C39.6365 28.098 40.4104 28.1078 40.9776 28.0359C40.9825 28.0065 40.9874 27.9771 40.9925 27.9469C41.0242 27.8048 41.0714 27.6756 41.1234 27.5396C41.1391 27.4982 41.1391 27.4982 41.1552 27.4559C41.1901 27.3646 41.2252 27.2733 41.2604 27.1821C41.2726 27.1504 41.2848 27.1187 41.2973 27.0861C41.7442 25.924 42.2108 24.7714 42.728 23.6386C42.693 23.6366 42.6581 23.6346 42.622 23.6326C42.3175 23.6126 42.0288 23.5764 41.7327 23.5026C41.6946 23.4932 41.6565 23.4839 41.6172 23.4743C40.5725 23.2095 40.5725 23.2095 40.2092 22.9129C40.1284 22.7547 40.1238 22.6643 40.1238 22.486C40.0815 22.493 40.0392 22.5001 39.9957 22.5073C39.141 22.6081 38.4768 22.4259 37.733 22.0164C37.6907 21.9934 37.6484 21.9705 37.6048 21.9468C37.5189 21.8997 37.4336 21.8519 37.3488 21.8029C37.3425 21.8468 37.3425 21.8468 37.3361 21.8916C37.3001 22.0412 37.2376 22.1688 37.1674 22.3045C37.1524 22.3337 37.1375 22.3629 37.1222 22.393C37.0885 22.4589 37.0546 22.5246 37.0207 22.5903C36.9607 22.707 36.9016 22.824 36.8425 22.9411C36.3498 23.9104 35.7879 24.8353 35.1992 25.7488C35.1061 25.8941 35.0142 26.0402 34.9224 26.1863C34.839 26.319 34.7551 26.4514 34.6711 26.5837C34.6227 26.66 34.5747 26.7365 34.5268 26.813C34.1349 27.4234 33.6287 28.085 32.9078 28.3094C32.3941 28.4119 31.9644 28.3346 31.5245 28.0556C31.4249 27.983 31.3345 27.906 31.2439 27.8224C31.2128 27.7942 31.1818 27.766 31.1498 27.7369C30.4744 27.0579 30.1464 25.9754 29.859 25.0848C29.8448 25.041 29.8448 25.041 29.8302 24.9964C29.6642 24.4566 29.5922 23.8942 29.5207 23.3359C29.5067 23.2264 29.4922 23.1169 29.4777 23.0074C29.4686 22.9371 29.4594 22.8668 29.4503 22.7965C29.446 22.7641 29.4418 22.7317 29.4374 22.6984C29.4174 22.5412 29.4032 22.3883 29.4081 22.2298C29.3686 22.221 29.3291 22.2121 29.2884 22.203C29.0859 22.1569 28.8841 22.1082 28.6823 22.059C28.6387 22.0485 28.595 22.038 28.55 22.0271C26.7377 21.5844 25.718 20.5364 24.7547 18.9852C24.7369 18.9569 24.719 18.9286 24.7006 18.8995C24.4851 18.5572 24.2905 18.2163 24.157 17.8326C24.1434 17.7944 24.1298 17.7563 24.1158 17.717C23.9219 17.0782 23.9746 16.3391 24.2504 15.7353C24.5078 15.2542 24.9216 14.8383 25.3097 14.4599C25.3381 14.431 25.3666 14.4021 25.3959 14.3723C25.5752 14.1906 25.7578 14.0175 25.9516 13.8514C26.0401 13.7727 26.1232 13.6904 26.2062 13.6061C26.3428 13.4676 26.484 13.3378 26.6321 13.2118C26.6887 13.1625 26.7437 13.1114 26.7969 13.0584C27.7342 12.147 29.5 11.3861 30.8169 11.3861C30.8279 11.3566 30.839 11.3271 30.8503 11.2967C31.122 10.6487 31.577 10.0991 32.055 9.59302C32.1035 9.54044 32.1035 9.54044 32.1529 9.48679C33.1393 8.45214 34.4758 7.99302 35.8839 8.00008Z" fill="#2B2A29"/>
<path d="M52.1201 21.4602C52.395 21.7067 52.5688 21.9484 52.6014 22.3187C52.6143 22.751 52.5436 23.0318 52.2455 23.3491C52.1147 23.4675 51.9865 23.5352 51.8213 23.5948C51.7879 23.6075 51.7546 23.6202 51.7202 23.6333C51.1149 23.8237 50.4256 23.735 49.8041 23.6802C48.7038 23.585 47.5937 23.6378 46.4912 23.6649C45.8912 23.6794 45.2919 23.6859 44.6917 23.6802C44.6878 23.7185 44.6839 23.7569 44.6799 23.7964C44.6447 24.0409 44.5673 24.2747 44.4966 24.5108C44.4813 24.5627 44.4659 24.6146 44.4501 24.6681C44.4093 24.8063 44.3682 24.9445 44.3271 25.0827C44.0815 25.9074 43.8433 26.7329 43.6244 27.5651C43.678 27.56 43.7315 27.5548 43.7866 27.5495C47.11 27.233 47.11 27.233 48.534 27.5224C48.5905 27.5324 48.647 27.5422 48.7036 27.552C48.9731 27.6042 49.1651 27.6508 49.3451 27.864C49.4989 28.1396 49.5128 28.401 49.4305 28.7045C49.1621 29.1491 48.4608 29.2646 47.9938 29.3882C46.6368 29.7175 45.1329 29.5329 43.7572 29.4331C43.7209 29.4305 43.6846 29.4279 43.6472 29.4252C43.48 29.4126 43.3185 29.3966 43.1548 29.3582C43.1529 29.3822 43.151 29.4062 43.149 29.431C43.1209 29.748 43.0677 30.0584 43.0106 30.3713C43 30.4294 42.9895 30.4876 42.979 30.5457C42.9505 30.7031 42.9217 30.8605 42.8928 31.0179C42.8746 31.117 42.8564 31.2161 42.8383 31.3152C42.6415 32.3884 42.4329 33.4591 42.2165 34.5285C42.1945 34.6376 42.1725 34.7468 42.1505 34.8559C41.5124 38.0189 41.5124 38.0189 40.8068 38.5369C40.4087 38.773 40.0265 38.908 39.5635 38.8066C39.0601 38.6664 38.6624 38.3856 38.4008 37.9221C38.2533 37.6021 38.2353 37.3058 38.2319 36.9573C38.2307 36.917 38.2294 36.8766 38.2282 36.8349C38.2215 36.0435 38.4715 35.2727 38.7015 34.5239C38.7286 34.4348 38.7556 34.3456 38.7826 34.2565C38.8355 34.0819 38.8887 33.9074 38.9422 33.7329C39.0013 33.5401 39.0595 33.3471 39.1173 33.1539C39.9832 30.2795 39.9832 30.2795 40.5079 29.2301C40.1825 29.2262 39.8623 29.2247 39.5387 29.2633C39.3777 29.2789 39.218 29.2754 39.0564 29.2728C39.0538 29.1304 39.0546 28.9883 39.0564 28.8459C39.0556 28.8139 39.0547 28.7819 39.0539 28.749C39.0574 28.6272 39.0739 28.5322 39.157 28.4403C39.6364 28.0968 40.4103 28.1066 40.9775 28.0347C40.9825 28.0054 40.9874 27.976 40.9924 27.9457C41.0242 27.8037 41.0714 27.6744 41.1233 27.5384C41.1338 27.5108 41.1443 27.4832 41.1551 27.4548C41.19 27.3634 41.2252 27.2721 41.2604 27.1809C41.2725 27.1492 41.2847 27.1176 41.2973 27.0849C41.7441 25.9229 42.2107 24.7702 42.7279 23.6375C42.6929 23.6355 42.658 23.6335 42.622 23.6314C42.3174 23.6114 42.0287 23.5752 41.7326 23.5014C41.6945 23.4921 41.6564 23.4827 41.6171 23.4731C40.5743 23.2088 40.5743 23.2088 40.2091 22.9117C40.145 22.7863 40.145 22.7863 40.1237 22.6556C40.1149 22.608 40.1061 22.5605 40.097 22.5115C40.0917 22.4745 40.0864 22.4375 40.081 22.3994C40.1453 22.3907 40.1453 22.3907 40.2109 22.3817C40.3723 22.3587 40.5319 22.3284 40.692 22.298C41.0003 22.2419 41.3092 22.2021 41.6206 22.1673C41.6674 22.162 41.7142 22.1568 41.7624 22.1514C41.8616 22.1403 41.9608 22.1292 42.06 22.1181C43.0529 22.0061 44.0379 21.8644 45.0226 21.695C45.0521 21.6899 45.0816 21.6848 45.112 21.6796C45.8917 21.5453 46.6704 21.4049 47.448 21.2593C47.8671 21.1809 48.2867 21.1074 48.7074 21.0386C48.7597 21.0299 48.8121 21.0212 48.866 21.0123C49.9302 20.8415 51.1973 20.798 52.1201 21.4602Z" fill="#2A2928"/>
<path d="M31.3718 12.4534C32.7213 12.3907 34.1422 13.046 35.2141 13.8195C35.2555 13.8492 35.2969 13.879 35.3395 13.9096C36.1261 14.4872 36.8997 15.1555 37.5083 15.9193C37.6046 16.0392 37.7046 16.1552 37.805 16.2716C38.7872 17.4558 39.5745 18.8594 39.9049 20.3674C39.9146 20.4105 39.9243 20.4537 39.9344 20.4981C39.9861 20.7472 40.0315 20.9995 39.9529 21.2479C39.8662 21.3573 39.8393 21.3739 39.6968 21.3947C39.5553 21.389 39.4418 21.3477 39.3105 21.2961C39.069 21.206 38.8285 21.1489 38.5761 21.0985C38.0838 20.9978 38.0838 20.9978 37.9045 20.9402C36.5118 20.4949 34.7608 20.9881 33.3587 21.2582C33.3181 21.2661 33.2774 21.2739 33.2356 21.2819C33.1638 21.2959 33.092 21.31 33.0204 21.3245C32.5899 21.4098 32.1661 21.4256 31.728 21.4242C31.6394 21.424 31.5508 21.4242 31.4622 21.4245C30.4945 21.4251 30.4945 21.4251 30.2192 21.3333C30.1711 21.1124 30.1614 20.897 30.1525 20.6716C30.1507 20.6271 30.1489 20.5827 30.1471 20.5369C30.0835 18.777 30.0835 18.777 30.2132 17.9791C30.2709 17.6109 30.3191 17.2415 30.368 16.8721C30.3849 16.7441 30.4021 16.6161 30.4193 16.4882C30.4692 16.116 30.5187 15.7438 30.5607 15.3706C30.679 14.3434 30.9651 13.402 31.3718 12.4534Z" fill="#FDFDFD"/>
<path d="M35.777 9.02595C35.8197 9.02624 35.8624 9.02653 35.9063 9.02683C36.481 9.03476 37.0141 9.11051 37.5621 9.29277C37.6027 9.30597 37.6027 9.30597 37.6441 9.31944C38.2719 9.52634 38.8129 9.84054 39.3125 10.2747C39.3479 10.305 39.3833 10.3352 39.4198 10.3664C40.6788 11.467 41.3692 13.0342 41.6825 14.6519C41.6966 14.7239 41.7115 14.7957 41.7269 14.8674C41.9834 16.0688 41.9812 17.4025 41.7032 18.5996C41.6952 18.6344 41.6872 18.6692 41.679 18.705C41.5902 19.0779 41.4694 19.4396 41.3403 19.8003C41.3287 19.8332 41.3171 19.8661 41.3051 19.8999C41.2213 20.1255 41.112 20.3214 40.9774 20.5207C40.8774 20.3707 40.8559 20.2325 40.8227 20.0591C40.4896 18.46 39.576 17.0123 38.5867 15.7392C38.5583 15.7026 38.53 15.6661 38.5008 15.6283C38.3262 15.4064 38.1427 15.1947 37.9523 14.9861C37.873 14.8987 37.796 14.8099 37.7195 14.72C37.4107 14.3659 37.0705 14.0318 36.7082 13.7327C36.687 13.7149 36.6657 13.6971 36.6439 13.6788C35.2699 12.5321 33.7033 11.7436 31.9268 11.4701C31.9914 11.2812 32.0932 11.1285 32.2096 10.9684C32.2286 10.9421 32.2477 10.9158 32.2673 10.8886C32.9798 9.915 33.9813 9.2637 35.1746 9.05385C35.3757 9.0261 35.5743 9.02394 35.777 9.02595Z" fill="#CED95F"/>
<path d="M62.3236 29.0605C62.5568 29.1428 62.8041 29.2596 62.9213 29.4875C62.942 29.6719 62.936 29.7623 62.8381 29.9222C62.7999 29.9691 62.7608 30.0154 62.7212 30.0611C62.7003 30.0864 62.6794 30.1117 62.6578 30.1378C62.613 30.1921 62.5678 30.2461 62.5224 30.2999C62.4266 30.4139 62.3332 30.5299 62.2397 30.6459C62.1469 30.7607 62.0535 30.875 61.9601 30.9893C61.9031 31.0592 61.8463 31.1294 61.7896 31.1996C61.6055 31.4271 61.4157 31.6476 61.2186 31.864C61.1376 31.9533 61.0579 32.0434 60.9788 32.1344C60.6596 32.5003 60.3307 32.8572 60.0009 33.2135C59.9303 33.2899 59.8598 33.3663 59.7893 33.4428C59.766 33.4681 59.7427 33.4934 59.7186 33.5195C59.6738 33.5681 59.629 33.6167 59.5842 33.6654C59.5024 33.7541 59.4205 33.8421 59.3352 33.9274C59.3449 34.1046 59.4685 34.2381 59.57 34.3757C59.5892 34.4021 59.6084 34.4285 59.6282 34.4557C59.6868 34.536 59.7457 34.616 59.8048 34.6959C59.8529 34.7613 59.8529 34.7613 59.902 34.828C60.2586 35.3077 60.6286 35.7749 61.0167 36.2294C61.1188 36.3492 61.2185 36.4708 61.3177 36.593C61.4652 36.7743 61.6161 36.9523 61.7686 37.1293C61.9863 37.3821 62.1993 37.6383 62.409 37.8978C62.4409 37.9367 62.4727 37.9756 62.5056 38.0157C62.5362 38.0534 62.5669 38.0911 62.5985 38.1299C62.6257 38.1633 62.6529 38.1967 62.681 38.2311C62.8475 38.4551 62.876 38.647 62.8359 38.9224C62.7427 39.1569 62.5974 39.328 62.3663 39.4347C62.1672 39.4691 62.0342 39.4652 61.8574 39.3616C61.7245 39.2628 61.601 39.1583 61.4805 39.0451C61.4573 39.0235 61.4342 39.002 61.4103 38.9798C61.1934 38.7759 60.9817 38.5667 60.7707 38.3567C60.7388 38.3249 60.7068 38.2932 60.6739 38.2605C60.4985 38.0846 60.3305 37.9049 60.1685 37.7167C60.0884 37.624 60.0054 37.5342 59.9222 37.4442C59.7047 37.203 59.5059 36.9489 59.3077 36.6919C59.2531 36.6213 59.1982 36.5511 59.1431 36.4809C58.9149 36.1884 58.698 35.8893 58.486 35.5848C58.3755 35.4263 58.2628 35.272 58.1398 35.1228C58.1064 35.158 58.0729 35.1932 58.0384 35.2295C57.9264 35.3363 57.9264 35.3363 57.841 35.3363C57.841 35.3644 57.841 35.3926 57.841 35.4216C57.779 35.4826 57.779 35.4826 57.6929 35.5537C57.4968 35.7205 57.3168 35.8998 57.1366 36.0834C56.8183 36.4074 56.4876 36.707 56.1306 36.9879C56.1062 37.0075 56.0817 37.0271 56.0565 37.0473C55.8055 37.2452 55.5751 37.4214 55.2429 37.4045C55.0822 37.3711 55.0026 37.2921 54.8952 37.172C54.7502 36.9303 54.7268 36.6821 54.7672 36.4035C54.8574 36.169 55.0097 36.0083 55.1807 35.8299C55.2078 35.8014 55.2348 35.7728 55.2627 35.7434C55.4447 35.5532 55.6313 35.3756 55.8345 35.2082C55.8802 35.169 55.9258 35.1297 55.9714 35.0903C56.2034 34.8898 56.4364 34.6912 56.675 34.4984C56.8843 34.3291 57.081 34.1492 57.2768 33.9646C57.3714 33.8847 57.3714 33.8847 57.4568 33.8847C57.4452 33.8614 57.4336 33.838 57.4216 33.8139C56.8167 32.5881 56.2504 31.1617 56.6883 29.7863C56.7532 29.6124 56.8237 29.4424 56.9018 29.274C57.228 29.2606 57.5041 29.2495 57.7983 29.4021C57.9261 29.5353 57.9421 29.6297 57.9422 29.8117C57.9428 29.8587 57.9434 29.9058 57.9441 29.9543C57.9444 30.0045 57.9447 30.0548 57.945 30.1065C57.966 31.0298 58.1483 31.9627 58.6094 32.7747C58.6332 32.7505 58.657 32.7262 58.6815 32.7012C58.7141 32.6682 58.7466 32.6353 58.7802 32.6013C58.8119 32.5691 58.8436 32.5369 58.8763 32.5037C58.967 32.4162 59.0586 32.3338 59.1541 32.2518C59.3863 32.0504 59.598 31.8294 59.8121 31.6093C59.8585 31.5622 59.8585 31.5622 59.9059 31.5142C59.9475 31.4714 59.9475 31.4714 59.9901 31.4278C60.061 31.3659 60.061 31.3659 60.1463 31.3659C60.1463 31.3377 60.1463 31.3096 60.1463 31.2805C60.1985 31.2293 60.1985 31.2293 60.2771 31.1658C60.4687 31.0032 60.6464 30.8284 60.8241 30.6508C60.8525 30.6225 60.881 30.5943 60.9103 30.5652C60.9372 30.5382 60.9641 30.5112 60.9918 30.4834C61.016 30.4591 61.0403 30.4349 61.0652 30.4099C61.137 30.3353 61.137 30.3353 61.2136 30.2132C61.2418 30.2132 61.27 30.2132 61.299 30.2132C61.3142 30.1771 61.3142 30.1771 61.3297 30.1403C61.3968 30.0204 61.4784 29.9396 61.5765 29.8435C61.6144 29.8061 61.6522 29.7687 61.6913 29.7302C61.7309 29.6915 61.7705 29.6528 61.8113 29.6129C61.8897 29.536 61.968 29.459 62.0461 29.3819C62.0809 29.3479 62.1157 29.3139 62.1515 29.2788C62.2445 29.1875 62.2445 29.1875 62.3236 29.0605Z" fill="#2A2928"/>
<path d="M30.3045 12.5383C30.2927 12.5737 30.2809 12.6091 30.2687 12.6456C30.0367 13.3438 29.8149 14.0372 29.6642 14.7583C29.658 14.787 29.6518 14.8158 29.6454 14.8454C29.6059 15.0293 29.5702 15.2137 29.5361 15.3987C29.5309 15.4261 29.5258 15.4536 29.5205 15.4819C29.4425 15.9013 29.3866 16.3223 29.3386 16.7461C29.3334 16.792 29.3281 16.8379 29.3227 16.8852C29.2379 17.664 29.2304 18.4394 29.2317 19.2218C29.2319 19.3748 29.2318 19.5277 29.2315 19.6807C29.2314 19.7995 29.2314 19.9183 29.2315 20.037C29.2316 20.1207 29.2315 20.2045 29.2313 20.2882C29.2315 20.3388 29.2316 20.3894 29.2317 20.4416C29.2318 20.4861 29.2318 20.5305 29.2318 20.5763C29.2367 20.6799 29.2535 20.7638 29.2799 20.8632C29.2816 20.9628 29.2819 21.0625 29.2799 21.1621C27.804 20.8645 26.7925 20.2433 25.95 18.9848C25.6527 18.532 25.3585 18.0724 25.1388 17.576C25.1236 17.5416 25.1083 17.5073 25.0926 17.4719C24.9715 17.1337 24.9376 16.687 25.0775 16.3512C25.2403 16.0387 25.4449 15.76 25.7009 15.5183C25.7754 15.4451 25.8429 15.3696 25.9105 15.2901C26.4669 14.6501 27.0695 14.0631 27.7857 13.6056C27.827 13.579 27.827 13.579 27.8692 13.5519C28.0516 13.4358 28.2374 13.327 28.4261 13.2214C28.4553 13.2049 28.4845 13.1884 28.5147 13.1714C28.916 12.9462 29.3101 12.7638 29.7496 12.6237C29.7912 12.6078 29.8329 12.5919 29.8758 12.5755C30.0237 12.5332 30.1514 12.5358 30.3045 12.5383Z" fill="#4EBDCB"/>
<path d="M36.1961 21.6758C36.2384 21.6969 36.2384 21.6969 36.2815 21.7185C35.9842 22.2459 35.6857 22.7726 35.385 23.2981C35.1761 23.6632 34.9676 24.0286 34.7606 24.3947C34.7384 24.434 34.7161 24.4732 34.6932 24.5136C34.5734 24.7257 34.4549 24.9383 34.3377 25.1518C33.2898 27.056 33.2898 27.056 32.6527 27.2684C32.4672 27.2974 32.2985 27.311 32.1324 27.2137C32.0431 27.137 31.9636 27.0565 31.8842 26.9696C31.8588 26.9439 31.8334 26.9182 31.8072 26.8917C31.2295 26.2793 31.0017 25.4122 30.7742 24.6215C30.7655 24.5914 30.7568 24.5612 30.7478 24.5302C30.6255 24.1005 30.527 23.667 30.4407 23.2287C30.4314 23.1822 30.422 23.1356 30.4124 23.0877C30.3623 22.8255 30.3375 22.583 30.3473 22.3162C30.4229 22.315 30.4985 22.3142 30.5741 22.3135C30.6162 22.313 30.6583 22.3125 30.7017 22.312C30.8709 22.3165 31.0373 22.3318 31.2057 22.3479C31.5322 22.3768 31.8602 22.3862 32.1877 22.3973C32.2645 22.3999 32.3413 22.4028 32.4181 22.4061C33.3169 22.4428 34.2789 22.3408 35.131 22.0451C35.2233 22.0143 35.3162 21.9873 35.4098 21.9608C35.4427 21.9515 35.4755 21.9422 35.5094 21.9326C35.5717 21.915 35.6341 21.8975 35.6965 21.8802C35.8338 21.8405 35.9558 21.7958 36.0835 21.7308C36.1207 21.7127 36.1578 21.6945 36.1961 21.6758Z" fill="#F2CEBA"/>
<path d="M52.9314 26.8412C52.9394 26.9426 52.9394 26.9426 52.9314 27.0547C52.7941 27.1462 52.7314 27.1542 52.5712 27.1721C52.0103 27.259 51.616 27.5545 51.2771 27.9912C51.145 28.1719 51.0397 28.3373 50.9676 28.5489C51.031 28.5278 51.031 28.5278 51.0957 28.5062C51.1098 28.4639 51.1238 28.4217 51.1384 28.3781C51.1665 28.3781 51.1947 28.3781 51.2237 28.3781C51.2237 28.3499 51.2237 28.3218 51.2237 28.2927C51.3272 28.1825 51.4487 28.0899 51.5653 27.9939C51.5868 27.976 51.6083 27.958 51.6305 27.9395C52.2127 27.4565 52.8157 27.0177 53.6041 27.04C53.9877 27.0807 54.3 27.232 54.5537 27.5243C54.712 27.7765 54.725 28.046 54.6818 28.3354C54.3949 29.1585 53.6161 29.6407 52.8887 30.0431C52.8636 30.0572 52.8385 30.0713 52.8127 30.0858C52.3117 30.3641 51.7645 30.5767 51.181 30.5127C51.1388 30.4986 51.0965 30.4845 51.053 30.47C51.0384 30.5202 51.0384 30.5202 51.0236 30.5714C50.9024 30.9061 50.7882 31.2001 50.4553 31.3666C50.2615 31.3898 50.1157 31.3931 49.9457 31.2918C49.7405 31.068 49.7516 30.8439 49.758 30.5512C49.7748 30.3541 49.8259 30.1976 49.902 30.0164C49.9757 29.8342 50.0063 29.678 49.943 29.4881C49.8858 28.6348 50.1394 27.9885 50.6948 27.334C51.3181 26.6709 52.0905 26.4208 52.9314 26.8412ZM52.0617 29.0735C51.9466 29.1922 51.8655 29.3056 51.7787 29.4454C52.3462 29.3647 52.8758 28.9793 53.3156 28.6343C53.3519 28.6064 53.3882 28.5785 53.4255 28.5497C53.5981 28.4094 53.6982 28.3066 53.7426 28.0793C53.1092 28.0793 52.4989 28.6765 52.0617 29.0735Z" fill="#2A2928"/>
<path d="M81.834 34.2676C82.1721 34.2676 82.5102 34.2676 82.8586 34.2676C83.0418 34.6901 83.196 35.1202 83.3485 35.5545C83.585 36.2279 83.8258 36.8995 84.0753 37.5682C84.0874 37.6006 84.0995 37.633 84.1119 37.6663C84.1778 37.8427 84.2439 38.019 84.3101 38.1952C84.3262 38.1482 84.3422 38.1011 84.3588 38.0526C84.5768 37.4192 84.8138 36.7932 85.0524 36.1673C85.1051 36.0291 85.1576 35.8908 85.2101 35.7525C85.3999 35.2534 85.3999 35.2534 85.4949 35.005C85.5326 34.9061 85.5701 34.8072 85.6076 34.7082C85.6268 34.6576 85.646 34.6071 85.6657 34.5551C85.6831 34.5092 85.7005 34.4633 85.7184 34.416C85.7616 34.3103 85.7616 34.3103 85.8043 34.2676C86.1284 34.2676 86.4524 34.2676 86.7862 34.2676C86.7862 35.8596 86.7862 37.4515 86.7862 39.0918C86.5608 39.0918 86.3354 39.0918 86.1032 39.0918C86.0891 37.8097 86.075 36.5277 86.0605 35.2068C85.8795 35.6928 85.8795 35.6928 85.6949 36.1887C85.3343 37.1569 84.9723 38.1246 84.609 39.0918C84.3976 39.0918 84.1863 39.0918 83.9686 39.0918C83.6033 38.1566 83.2564 37.2148 82.9097 36.2727C82.7789 35.9174 82.6479 35.5621 82.5171 35.2068C82.503 36.4888 82.4889 37.7709 82.4744 39.0918C82.263 39.0918 82.0517 39.0918 81.834 39.0918C81.834 37.4998 81.834 35.9078 81.834 34.2676ZM82.4317 34.908C82.4744 34.9933 82.4744 34.9933 82.4744 34.9933L82.4317 34.908Z" fill="#2A2928"/>
<path d="M52.5364 31.6676C52.7089 31.8162 52.7559 31.9926 52.7737 32.2121C52.7731 32.2734 52.7717 32.3346 52.7698 32.3958C52.7692 32.4305 52.7687 32.4651 52.7681 32.5007C52.7668 32.5782 52.7652 32.6557 52.7634 32.7332C52.7603 32.868 52.7583 33.0027 52.7565 33.1375C52.7477 33.7613 52.7347 34.3851 52.7215 35.0089C52.7148 35.3238 52.7085 35.6387 52.7032 35.9536C52.6986 36.2308 52.6932 36.5079 52.687 36.7851C52.6837 36.931 52.6808 37.077 52.6787 37.2229C52.6762 37.3853 52.6725 37.5477 52.6684 37.7101C52.6678 37.7813 52.6678 37.7813 52.6671 37.854C52.6568 38.1887 52.5898 38.5002 52.3413 38.7419C52.1402 38.8983 51.931 38.9068 51.6832 38.8947C51.4094 38.8603 51.2737 38.7294 51.104 38.5263C51.0175 38.4023 51.0047 38.293 51.0039 38.1465C51.0037 38.1098 51.0034 38.0731 51.0031 38.0353C51.0031 37.9946 51.003 37.954 51.003 37.9121C51.0028 37.8684 51.0026 37.8248 51.0024 37.7798C51.001 37.3516 51.0033 36.9234 51.0065 36.4952C51.0091 36.1346 51.0103 35.7741 51.0098 35.4135C51.0093 35.0308 51.0111 34.6481 51.015 34.2654C51.0171 34.0527 51.0183 33.8401 51.0171 33.6274C51.0161 33.4244 51.0177 33.2216 51.0213 33.0186C51.0222 32.9432 51.0221 32.8677 51.021 32.7923C51.018 32.5612 51.0235 32.3554 51.0955 32.1345C51.2631 31.967 51.4302 31.8823 51.6505 31.793C51.6955 31.7735 51.7405 31.754 51.7868 31.7339C52.0415 31.628 52.2697 31.5645 52.5364 31.6676Z" fill="#2A2928"/>
<path d="M64.1592 34.2676C66.5534 34.2676 66.5534 34.2676 67.233 34.908C67.7765 35.5212 67.8729 36.2248 67.839 37.0163C67.8055 37.4651 67.6725 37.8738 67.4038 38.2379C67.385 38.2649 67.3662 38.2919 67.3469 38.3196C66.9797 38.8001 66.3892 38.9787 65.8242 39.0918C65.2747 39.0918 64.7253 39.0918 64.1592 39.0918C64.1592 37.4998 64.1592 35.9078 64.1592 34.2676ZM64.8422 34.8653C64.8422 36.0628 64.8422 37.2603 64.8422 38.4941C65.8007 38.5257 65.8007 38.5257 66.5956 38.1083C66.9919 37.7049 67.1205 37.2121 67.1263 36.6583C67.121 36.1583 67.0313 35.7078 66.678 35.3349C66.6451 35.2995 66.6451 35.2995 66.6116 35.2633C66.1363 34.8051 65.4543 34.8653 64.8422 34.8653Z" fill="#2A2928"/>
<path d="M76.1128 34.2676C78.2082 34.2676 78.2082 34.2676 78.6743 34.6518C78.9156 34.9005 78.9768 35.1785 78.9892 35.519C78.9824 35.8646 78.9016 36.1386 78.6663 36.3968C78.5051 36.545 78.3233 36.6265 78.1193 36.701C78.1501 36.7213 78.1809 36.7415 78.2127 36.7624C78.5217 37.0439 78.6485 37.4872 78.8024 37.867C78.8243 37.9206 78.8462 37.9742 78.8681 38.0277C78.911 38.1325 78.9537 38.2374 78.9963 38.3423C79.0739 38.5316 79.1538 38.7199 79.2343 38.908C79.272 39.0064 79.272 39.0064 79.272 39.0918C79.0325 39.0918 78.793 39.0918 78.5462 39.0918C78.3745 38.7173 78.229 38.3335 78.0832 37.9483C77.9089 37.4561 77.9089 37.4561 77.5643 37.0852C77.3331 37.0201 77.3331 37.0201 76.8386 37.0425C76.8386 37.7188 76.8386 38.395 76.8386 39.0918C76.5991 39.0918 76.3596 39.0918 76.1128 39.0918C76.1128 37.4998 76.1128 35.9078 76.1128 34.2676ZM76.7959 34.8653C76.7959 35.3724 76.7959 35.8796 76.7959 36.4022C77.0735 36.541 77.5345 36.4456 77.8205 36.3595C78.0157 36.2618 78.1635 36.1376 78.2474 35.9326C78.3069 35.6719 78.2966 35.4576 78.2047 35.2068C78.0573 35.0117 77.8826 34.9254 77.6497 34.8653C77.4996 34.8511 77.352 34.853 77.2014 34.8573C77.0676 34.8599 76.9338 34.8625 76.7959 34.8653Z" fill="#2A2928"/>
<path d="M91.2197 34.2637C91.2704 34.264 91.2704 34.264 91.322 34.2643C91.3767 34.2646 91.3767 34.2646 91.4325 34.2648C91.4709 34.2651 91.5092 34.2655 91.5487 34.2659C91.5872 34.266 91.6257 34.2662 91.6653 34.2664C91.7608 34.2669 91.8562 34.2676 91.9516 34.2685C91.9638 34.3015 91.9638 34.3015 91.9763 34.3351C92.0846 34.626 92.1928 34.9169 92.3011 35.2077C92.3189 35.2555 92.3367 35.3033 92.355 35.3525C92.5737 35.9399 92.793 36.527 93.0132 37.1137C93.0234 37.141 93.0337 37.1682 93.0442 37.1963C93.1541 37.489 93.264 37.7816 93.374 38.0742C93.4105 38.1712 93.4469 38.2681 93.4833 38.3651C93.4999 38.4092 93.5165 38.4532 93.5336 38.4986C93.549 38.5395 93.5643 38.5804 93.5801 38.6226C93.5934 38.6579 93.6067 38.6932 93.6204 38.7296C93.6641 38.8499 93.7042 38.9714 93.7446 39.0927C93.4911 39.0927 93.2375 39.0927 92.9762 39.0927C92.9119 38.9176 92.8479 38.7423 92.7841 38.5671C92.7566 38.4923 92.7566 38.4923 92.7285 38.4161C92.7025 38.3444 92.7025 38.3444 92.676 38.2714C92.6599 38.2273 92.6438 38.1833 92.6272 38.1379C92.592 38.0254 92.592 38.0254 92.592 37.8973C91.8735 37.8973 91.155 37.8973 90.4147 37.8973C90.3724 38.0523 90.3301 38.2073 90.2866 38.3669C90.2425 38.4985 90.1978 38.6289 90.1505 38.7592C90.1109 38.8692 90.0713 38.9793 90.0304 39.0927C89.7909 39.0927 89.5514 39.0927 89.3047 39.0927C89.391 38.7933 89.4903 38.5037 89.6035 38.2135C89.6201 38.1706 89.6367 38.1276 89.6538 38.0834C89.7081 37.9431 89.7625 37.8028 89.817 37.6625C89.8938 37.4639 89.9706 37.2653 90.0473 37.0667C90.0669 37.0159 90.0865 36.9651 90.1068 36.9128C90.2464 36.5511 90.3846 36.1889 90.5219 35.8263C90.5406 35.7768 90.5594 35.7274 90.5786 35.6765C90.6514 35.4844 90.7241 35.2923 90.7966 35.1001C90.8463 34.9681 90.8962 34.8362 90.9462 34.7043C90.9684 34.6451 90.9684 34.6451 90.991 34.5848C91.0046 34.5492 91.0181 34.5135 91.032 34.4768C91.0437 34.4456 91.0555 34.4145 91.0676 34.3824C91.1152 34.2701 91.1152 34.2701 91.2197 34.2637ZM91.482 34.9943C91.3869 35.2539 91.292 35.5136 91.1972 35.7734C91.165 35.8616 91.1327 35.9498 91.1004 36.038C91.0538 36.1653 91.0073 36.2927 90.9608 36.4201C90.9394 36.4784 90.9394 36.4784 90.9176 36.538C90.9039 36.5755 90.8902 36.6131 90.8761 36.6518C90.8643 36.6842 90.8524 36.7167 90.8402 36.7501C90.779 36.9317 90.7259 37.116 90.6708 37.2996C91.2344 37.2996 91.7979 37.2996 92.3785 37.2996C92.2074 36.8163 92.2074 36.8163 92.0358 36.3331C91.9584 36.1157 91.8814 35.8983 91.8047 35.6807C91.7745 35.596 91.7443 35.5112 91.7141 35.4265C91.6935 35.3677 91.6935 35.3677 91.6725 35.3076C91.6598 35.2721 91.647 35.2366 91.6339 35.2001C91.623 35.1694 91.6122 35.1387 91.6009 35.107C91.5721 35.0284 91.5721 35.0284 91.482 34.9943Z" fill="#2A2928"/>
<path d="M70.6484 34.2676C71.4796 34.2676 72.3109 34.2676 73.1673 34.2676C73.1673 34.4507 73.1673 34.6339 73.1673 34.8226C73.1246 34.8653 73.1246 34.8653 72.959 34.8701C72.8852 34.8701 72.8113 34.8699 72.7375 34.8694C72.6987 34.8694 72.6599 34.8693 72.62 34.8693C72.4955 34.869 72.3711 34.8685 72.2467 34.8679C72.1626 34.8677 72.0784 34.8675 71.9943 34.8673C71.7876 34.8669 71.5809 34.8661 71.3742 34.8653C71.3601 35.3443 71.346 35.8233 71.3315 36.3168C71.895 36.3168 72.4586 36.3168 73.0392 36.3168C73.0392 36.514 73.0392 36.7113 73.0392 36.9145C72.4756 36.9145 71.9121 36.9145 71.3315 36.9145C71.3315 37.4357 71.3315 37.957 71.3315 38.4941C71.9514 38.4941 72.5713 38.4941 73.2099 38.4941C73.2099 38.6913 73.2099 38.8885 73.2099 39.0918C72.3647 39.0918 71.5194 39.0918 70.6484 39.0918C70.6484 37.4998 70.6484 35.9078 70.6484 34.2676Z" fill="#2A2928"/>
<path d="M94.3852 31.7918C94.6617 31.9838 94.8338 32.2194 94.9828 32.5176C94.9905 32.6409 94.9947 32.7623 94.9962 32.8858C94.9974 32.9192 94.9987 32.9526 94.9999 32.987C95.0037 33.3381 94.8639 33.6003 94.6315 33.858C94.3496 34.1132 93.9855 34.25 93.6075 34.2414C93.2608 34.1942 92.9043 34.0266 92.6775 33.7556C92.5972 33.6315 92.5284 33.5044 92.464 33.3714C92.4499 33.3432 92.4358 33.315 92.4213 33.286C92.3846 32.8073 92.3932 32.436 92.7035 32.0473C93.1401 31.5707 93.8229 31.4704 94.3852 31.7918ZM93.1471 32.0479C93.1471 32.062 93.1471 32.0761 93.1471 32.0906C93.1731 32.0921 93.1992 32.0936 93.226 32.0951C93.3448 32.1024 93.4634 32.1112 93.582 32.12C93.623 32.1223 93.664 32.1246 93.7062 32.1269C93.9033 32.1426 94.015 32.1551 94.1775 32.2741C94.281 32.4243 94.2878 32.5076 94.2784 32.6847C94.2571 32.7737 94.2571 32.7737 94.1557 32.8778C94.1002 32.9108 94.1002 32.9108 94.0436 32.9445C94.0154 32.9727 93.9873 33.0008 93.9582 33.0299C93.9891 33.058 94.0199 33.0862 94.0516 33.1152C94.1912 33.2536 94.2867 33.416 94.3852 33.5849C94.4981 33.5419 94.5475 33.5137 94.61 33.4083C94.7395 33.0725 94.766 32.8221 94.6396 32.4807C94.519 32.2124 94.3403 32.08 94.0786 31.9589C93.7555 31.8542 93.4423 31.8869 93.1471 32.0479ZM92.9763 32.176C92.7336 32.4809 92.6496 32.7354 92.6938 33.1268C92.734 33.3047 92.8152 33.4468 92.9336 33.5849C92.9618 33.5989 92.99 33.613 93.019 33.6275C93.019 33.1485 93.019 32.6695 93.019 32.176C93.0049 32.176 92.9908 32.176 92.9763 32.176ZM93.3606 32.4322C93.3606 32.5449 93.3606 32.6576 93.3606 32.7737C93.4451 32.7677 93.5296 32.7614 93.614 32.755C93.6611 32.7516 93.7081 32.7481 93.7566 32.7445C93.8691 32.7436 93.8691 32.7436 93.9155 32.6883C93.9227 32.5816 93.9227 32.5816 93.9155 32.4749C93.8692 32.4188 93.8692 32.4188 93.7566 32.428C93.7096 32.4285 93.6625 32.429 93.614 32.4295C93.5669 32.4299 93.5197 32.4303 93.4711 32.4307C93.4346 32.4312 93.3981 32.4317 93.3606 32.4322ZM93.3606 33.0299C93.3606 33.2412 93.3606 33.4525 93.3606 33.6702C93.2619 33.6702 93.1633 33.6702 93.0617 33.6702C93.2338 33.8647 93.4704 33.9132 93.7208 33.9451C93.9282 33.9196 94.1146 33.8528 94.2998 33.7556C94.3139 33.7274 94.3279 33.6993 94.3425 33.6702C94.2932 33.6738 94.2438 33.6773 94.193 33.6809C94.0985 33.6707 94.0985 33.6707 94.0009 33.6275C93.9037 33.502 93.8272 33.3736 93.7513 33.2341C93.6518 33.0811 93.6518 33.0811 93.3606 33.0299Z" fill="#2A2928"/>
<path d="M30.3472 22.3145C30.5162 22.3145 30.6853 22.3145 30.8595 22.3145C30.8595 22.3285 30.8595 22.3426 30.8595 22.3571C30.7186 22.3712 30.5777 22.3853 30.4326 22.3998C30.4326 22.4985 30.4326 22.5971 30.4326 22.6987C30.4044 22.6987 30.3762 22.6987 30.3472 22.6987C30.3472 22.5719 30.3472 22.4451 30.3472 22.3145Z" fill="#D2B7A5"/>
<path d="M36.196 21.6758C36.2242 21.6899 36.2524 21.704 36.2814 21.7185C36.2251 21.7889 36.1687 21.8594 36.1106 21.9319C36.1106 21.9038 36.1106 21.8756 36.1106 21.8465C36.0261 21.8606 35.9416 21.8747 35.8545 21.8892C35.9632 21.8038 36.0671 21.7273 36.196 21.6758Z" fill="#E2C6B4"/>
</svg>
