<svg width="118" height="14" viewBox="0 0 118 14" fill="none" xmlns="http://www.w3.org/2000/svg">
<g clip-path="url(#clip0_1326_307)">
<mask id="mask0_1326_307" style="mask-type:luminance" maskUnits="userSpaceOnUse" x="0" y="1" width="118" height="14">
<path d="M117.899 1.55127H0.00390625V14.1828H117.899V1.55127Z" fill="white"/>
</mask>
<g mask="url(#mask0_1326_307)">
<path d="M0.136436 1.90199C0.414534 1.41782 1.05961 1.54684 1.48822 1.74384C4.59747 3.03404 7.69525 4.35755 10.7887 5.68244C11.5771 5.90164 11.2188 6.82421 11.2188 7.39995C9.51291 7.41799 7.80562 7.39996 6.09834 7.41383C5.62671 7.3944 5.06622 7.4943 4.71071 7.11278C3.30732 5.82257 1.95267 4.47686 0.580819 3.1603C0.258284 2.83843 -0.214769 2.36397 0.142171 1.90199H0.136436ZM20.4591 2.4264C21.2103 2.13367 21.9284 1.73274 22.7254 1.56487C23.2243 1.46221 23.4422 1.96442 23.6858 2.27379C22.6308 3.78459 21.1142 4.90971 19.8297 6.23321C19.2722 6.71184 18.7818 7.50539 17.9304 7.41244C16.0884 7.41244 14.2463 7.40134 12.4014 7.41244C12.2838 6.87832 11.9914 6.03483 12.6737 5.74765C15.2541 4.62115 17.8616 3.52794 20.4591 2.43056V2.4264ZM35.7186 2.65254C35.8619 2.31403 36.259 2.44166 36.5472 2.40698C39.0787 2.42224 41.6088 2.40698 44.1447 2.41669C45.7215 2.44166 47.1665 3.66527 47.3686 5.18162C47.6768 6.92826 46.1931 8.74011 44.3583 8.81919C42.1966 8.86358 40.0319 8.79005 37.8717 8.84694C37.4503 9.95679 37.9376 11.2623 37.6251 12.4248C37.0618 12.8411 36.4182 13.2642 35.6813 13.2947C35.6813 11.3705 35.7014 9.44487 35.6914 7.52065C35.6655 7.25567 35.7301 6.80896 36.1214 6.8811C38.7347 6.8478 41.3508 6.89636 43.9641 6.86583C44.6063 6.90052 45.2957 6.4316 45.3173 5.77817C45.4606 5.01653 44.7438 4.34369 43.9755 4.37004C41.2518 4.32149 38.5283 4.41582 35.819 4.32981C35.6096 3.79985 35.6756 3.20746 35.7244 2.65254H35.7186ZM59.0229 13.2849C59.0101 9.66129 58.967 6.03483 59.0458 2.41253C62.955 2.4264 66.8684 2.38339 70.7775 2.43334C70.5668 3.10896 70.3002 3.88309 69.711 4.31732C66.8283 4.41998 63.9297 4.33536 61.0413 4.35617C61.0255 5.18856 61.0269 6.0376 61.0312 6.87971C63.8524 6.87138 66.6744 6.87138 69.4974 6.87971C69.5376 7.52481 69.539 8.17408 69.5175 8.82196C66.6878 8.84971 63.861 8.82196 61.0312 8.83583C61.0312 9.66823 61.0312 10.5006 61.0312 11.333C63.7549 11.3233 66.4685 11.333 69.1864 11.333C70.1898 11.2747 70.359 12.49 70.8449 13.1033C70.5858 13.2539 70.2868 13.3277 69.9848 13.3155C66.3309 13.3002 62.6741 13.3349 59.0214 13.2975L59.0229 13.2849ZM82.3745 2.49299C82.6612 2.20443 82.9365 2.6234 83.193 2.73438C86.2392 5.00682 89.3026 7.25429 92.3416 9.53228C92.386 7.50817 92.2843 5.4799 92.3861 3.46134C92.8419 2.88977 93.5887 2.61369 94.2683 2.3612C94.4216 2.77739 94.3901 3.22411 94.3944 3.65834C94.3657 6.76595 94.4145 9.87772 94.3714 12.9854C94.4818 13.4751 93.8711 13.3266 93.6547 13.1004C90.5512 10.7989 87.4606 8.4793 84.3485 6.18882C84.3097 8.2268 84.4172 10.2717 84.3026 12.3056C83.8525 12.8604 83.0654 13.2059 82.3344 13.3238C82.3029 10.0997 82.3344 6.87555 82.3143 3.65002C82.3013 3.26247 82.3214 2.87455 82.3745 2.49022V2.49299ZM106.099 6.57589C106.663 4.17998 109.084 2.35287 111.625 2.42085C113.632 2.45969 115.632 2.34593 117.629 2.47634C117.609 3.17972 117.149 3.79014 116.71 4.3201C114.889 4.47825 113.046 4.26599 111.225 4.41443C109.732 4.59201 108.399 5.70325 108.072 7.1322C107.538 9.07445 109.188 11.2082 111.246 11.3219C112.795 11.3497 114.344 11.3219 115.894 11.3219C115.894 10.4895 115.894 9.66545 115.894 8.83722C114.737 8.82057 113.577 8.86497 112.42 8.82612C111.923 8.87884 111.757 8.31975 111.526 8.00344C111.382 7.66077 111.004 7.30978 111.196 6.91855C113.077 6.82005 114.966 6.91855 116.852 6.87277C117.193 6.91717 117.637 6.76595 117.891 7.06838C117.943 9.12995 117.891 11.1957 117.91 13.2586C116.489 13.3543 115.064 13.2905 113.643 13.3058C112.164 13.2849 110.596 13.4764 109.23 12.7925C106.841 11.7853 105.41 9.01896 106.106 6.57311L106.099 6.57589ZM4.66771 8.63051C5.03468 8.23929 5.61238 8.34195 6.10121 8.32253C7.8214 8.34889 9.53299 8.30033 11.2474 8.35443C11.2632 8.883 11.5599 9.7154 10.8991 9.98315C8.21561 11.1499 5.51777 12.2834 2.82137 13.4251C2.11752 13.7025 1.43375 14.0855 0.671131 14.1825C0.286954 14.0702 -0.0556503 13.7164 0.0217583 13.3016C0.261152 12.7773 0.727037 12.3999 1.13271 11.9962C2.32395 10.8863 3.45354 9.71123 4.67487 8.63051H4.66771ZM12.3555 8.35304C14.1431 8.31975 15.9393 8.35304 17.7211 8.33084C18.0938 8.35859 18.5425 8.2823 18.8306 8.56946C20.1423 9.75563 21.3937 11.0014 22.6738 12.2181C23.0035 12.5622 23.3906 12.8813 23.5697 13.328C23.673 13.9301 22.9104 14.3989 22.3728 14.0772C19.1374 12.7869 15.9478 11.383 12.7483 10.0137C12.0129 9.76951 12.281 8.91075 12.3555 8.35582" fill="black"/>
</g>
</g>
<defs>
<clipPath id="clip0_1326_307">
<rect width="117.895" height="12.6316" fill="white" transform="translate(0 0.789551)"/>
</clipPath>
</defs>
</svg>
