<svg width="111" height="14" viewBox="0 0 111 14" fill="none" xmlns="http://www.w3.org/2000/svg">
<g clip-path="url(#clip0_942_53)">
<mask id="mask0_942_53" style="mask-type:luminance" maskUnits="userSpaceOnUse" x="0" y="1" width="111" height="14">
<path d="M110.395 1.6167H0.920898V14.2483H110.395V1.6167Z" fill="white"/>
</mask>
<g mask="url(#mask0_942_53)">
<path d="M5.93326 14.0539L0.920898 1.81226H3.48847L7.15745 10.9447L10.8481 1.81226H13.4156L8.37804 14.0539H5.93326Z" fill="white"/>
<path d="M15.6272 6.8579H23.1565C22.9384 6.03105 22.4532 5.29589 21.7735 4.76268C21.1098 4.22616 20.2749 3.93623 19.4154 3.94374C18.5333 3.92194 17.6719 4.20839 16.9849 4.75205C16.3119 5.29104 15.8354 6.03007 15.6272 6.8579ZM14.8724 12.4168C14.2705 11.8369 13.7952 11.1427 13.4755 10.3765C13.1557 9.61035 12.9982 8.7883 13.0126 7.96046C12.9987 7.13119 13.1539 6.30756 13.4689 5.53802C13.784 4.76846 14.2525 4.06851 14.8472 3.47932C15.4234 2.87712 16.1219 2.40031 16.8976 2.0797C17.6733 1.7591 18.5088 1.60184 19.3503 1.61808C20.9937 1.5995 22.5819 2.19956 23.7885 3.29496C24.4147 3.85407 24.9149 4.53556 25.2569 5.29569C25.599 6.05581 25.7754 6.87776 25.7746 7.70875C25.7767 8.07629 25.7526 8.44353 25.7024 8.80776H15.6272C15.6646 9.2394 15.7885 9.65952 15.9918 10.044C16.195 10.4285 16.4737 10.7698 16.8117 11.0483C17.5164 11.6339 18.4166 11.9432 19.3395 11.9169C19.8982 11.9367 20.4547 11.8376 20.9708 11.6265C21.4869 11.4154 21.9504 11.0972 22.3296 10.6938L25.2475 10.7186C24.7049 11.7722 23.8764 12.6581 22.8532 13.2783C21.8245 13.9186 20.6298 14.2547 19.4117 14.2461C18.5679 14.2621 17.7297 14.108 16.9489 13.7934C16.1681 13.4787 15.4615 13.0102 14.8724 12.4168Z" fill="white"/>
<path d="M27.4336 14.054V7.6726C27.4336 5.71328 27.9151 4.23965 28.8781 3.25172C29.3701 2.75607 29.9632 2.3679 30.6184 2.11255C31.2736 1.8572 31.9763 1.74042 32.6808 1.76983H32.9299V4.09903H32.6808C30.8173 4.09903 29.8869 5.29022 29.8893 7.6726V14.054H27.4336Z" fill="white"/>
<path d="M40.2288 3.94293C39.692 3.9263 39.1576 4.02023 38.66 4.21869C38.1625 4.41713 37.7128 4.71569 37.3398 5.09512C36.598 5.85979 36.1842 6.87531 36.1842 7.93129C36.1842 8.98727 36.598 10.0028 37.3398 10.7675C37.7075 11.1455 38.1514 11.4441 38.6433 11.6443C39.1351 11.8445 39.664 11.9419 40.1962 11.9303C40.7232 11.9433 41.247 11.8478 41.734 11.6499C42.221 11.4521 42.6604 11.1563 43.0238 10.7816C43.7528 10.0106 44.1579 8.99746 44.1579 7.94546C44.1579 6.89348 43.7528 5.88037 43.0238 5.1093C42.6611 4.73343 42.2219 4.43662 41.7349 4.23814C41.2477 4.03964 40.7235 3.9439 40.1962 3.95711L40.2288 3.94293ZM35.6498 3.45369C36.703 2.41674 38.0899 1.77048 39.5741 1.62505C41.0585 1.47962 42.548 1.84402 43.7893 2.65615C45.0305 3.46829 45.9464 4.67786 46.3809 6.07873C46.8153 7.47959 46.7415 8.98501 46.1718 10.3384C45.6022 11.6918 44.5722 12.8094 43.2573 13.5006C41.9424 14.1919 40.4238 14.4141 38.9608 14.1294C37.4976 13.8445 36.1804 13.0704 35.2335 11.9389C34.2867 10.8074 33.7689 9.38854 33.7684 7.92419C33.755 7.09248 33.915 6.26685 34.2386 5.49808C34.562 4.72929 35.0424 4.03358 35.6498 3.45369Z" fill="white"/>
<path d="M59.2904 14.0539H56.499L53.2814 9.67198L50.0638 14.0539H47.2471L51.8839 7.69021L47.6191 1.81226H50.3889L53.2561 5.72971L56.174 1.81226H58.9438L54.679 7.69021L59.2904 14.0539Z" fill="white"/>
<path d="M62.1278 14.015V9.92032H59.8926V8.50225H62.1278V8.06619L62.1785 6.57365C62.3132 5.08703 62.7875 3.91948 63.6012 3.071C64.4621 2.20343 65.6202 1.68041 66.8513 1.60327V3.09935C66.0354 3.22236 65.2852 3.61061 64.7207 4.2019C64.1334 4.8626 63.7944 5.70092 63.7602 6.5772L63.7096 8.06973V8.5058H67.6422V9.92388H63.7241V14.0186L62.1278 14.015Z" fill="white"/>
<path d="M71.769 1.81592H70.1729V14.0575H71.769V1.81592Z" fill="white"/>
<path d="M84.3121 4.51724C83.8704 4.06332 83.3372 3.70468 82.7466 3.46419C82.156 3.2237 81.5207 3.10662 80.8814 3.12043C80.2392 3.10903 79.6015 3.22712 79.0078 3.46738C78.4139 3.70764 77.8766 4.06496 77.4291 4.51724C76.5224 5.43363 76.0152 6.66084 76.0152 7.93837C76.0152 9.2159 76.5224 10.4431 77.4291 11.3595C77.8727 11.8153 78.4072 12.1765 78.9993 12.4205C79.5915 12.6645 80.2285 12.786 80.8706 12.7776C81.5077 12.7895 82.1404 12.6719 82.7289 12.4321C83.3174 12.1923 83.8491 11.8356 84.2904 11.3843C85.1823 10.4576 85.6792 9.23103 85.6792 7.95611C85.6792 6.68118 85.1823 5.45457 84.2904 4.52788L84.3121 4.51724ZM76.3061 3.45369C77.3592 2.41674 78.7462 1.77048 80.2304 1.62505C81.7147 1.47962 83.2044 1.84402 84.4455 2.65615C85.6867 3.46829 86.6026 4.67786 87.0371 6.07873C87.4716 7.47959 87.3977 8.98501 86.8281 10.3384C86.2585 11.6918 85.2285 12.8094 83.9136 13.5006C82.5986 14.1919 81.0802 14.4141 79.617 14.1294C78.1539 13.8445 76.8366 13.0704 75.8898 11.9389C74.9429 10.8074 74.4251 9.38854 74.4246 7.92419C74.4112 7.09248 74.5712 6.26685 74.8948 5.49808C75.2183 4.72929 75.6986 4.03358 76.3061 3.45369Z" fill="white"/>
<path d="M99.7938 4.51724C99.3521 4.06332 98.819 3.70468 98.2283 3.46419C97.6377 3.2237 97.0025 3.10662 96.3631 3.12043C95.721 3.10903 95.0833 3.22712 94.4894 3.46738C93.8957 3.70764 93.3584 4.06496 92.9108 4.51724C92.0042 5.43363 91.497 6.66084 91.497 7.93837C91.497 9.2159 92.0042 10.4431 92.9108 11.3595C93.3542 11.8157 93.8887 12.1771 94.4808 12.4211C95.073 12.6652 95.7102 12.7864 96.3524 12.7776C96.9889 12.7899 97.6212 12.6724 98.2092 12.4325C98.7972 12.1927 99.3282 11.8358 99.7686 11.3843C100.661 10.458 101.159 9.23128 101.159 7.95611C101.159 6.68093 100.661 5.45416 99.7686 4.52788L99.7938 4.51724ZM91.7913 3.45369C92.8446 2.41674 94.2316 1.77048 95.7158 1.62505C97.2 1.47962 98.6897 1.84402 99.9309 2.65615C101.172 3.46829 102.088 4.67786 102.523 6.07873C102.957 7.47959 102.883 8.98501 102.314 10.3384C101.744 11.6918 100.714 12.8094 99.3989 13.5006C98.084 14.1919 96.5655 14.4141 95.1024 14.1294C93.6392 13.8445 92.322 13.0704 91.3751 11.9389C90.4283 10.8074 89.9105 9.38854 89.91 7.92419C89.8964 7.09244 90.0563 6.26677 90.3799 5.49796C90.7033 4.72914 91.1838 4.03345 91.7913 3.45369Z" fill="white"/>
<path d="M104.657 14.0535V7.70759C104.657 5.73408 105.118 4.24864 106.04 3.25126C106.514 2.75185 107.092 2.35966 107.736 2.10192C108.38 1.84418 109.073 1.72707 109.767 1.75872C109.888 1.75686 110.009 1.76397 110.128 1.77999V3.27607C110.009 3.25685 109.888 3.24853 109.767 3.25126C109.28 3.23149 108.794 3.32303 108.348 3.51864C107.903 3.71425 107.51 4.00863 107.2 4.37863C106.569 5.12785 106.253 6.2375 106.253 7.70759V14.0535H104.657Z" fill="white"/>
<path d="M108.765 12.6936H109.036C109.128 12.703 109.221 12.6831 109.3 12.6369C109.323 12.6193 109.341 12.5966 109.352 12.5707C109.365 12.5448 109.37 12.5164 109.368 12.488C109.369 12.4501 109.357 12.413 109.335 12.3816C109.312 12.3497 109.28 12.3251 109.242 12.3107C109.169 12.2928 109.093 12.2856 109.017 12.2894H108.765V12.6936ZM108.541 13.4561V12.105H109.017C109.14 12.0985 109.262 12.1105 109.38 12.1404C109.449 12.1655 109.51 12.2114 109.552 12.2716C109.594 12.33 109.617 12.3991 109.618 12.4702C109.619 12.5183 109.609 12.5661 109.59 12.6106C109.572 12.6551 109.544 12.6954 109.509 12.7291C109.431 12.8034 109.328 12.8463 109.221 12.8497C109.265 12.8665 109.305 12.8919 109.34 12.9241C109.416 13.0056 109.484 13.0948 109.542 13.1901L109.711 13.4561H109.441L109.317 13.2433C109.261 13.1245 109.181 13.0174 109.083 12.9277C109.031 12.8926 108.969 12.8763 108.906 12.8816H108.765V13.4561H108.541ZM109.105 11.7114C108.921 11.7131 108.74 11.7607 108.58 11.8497C108.412 11.9373 108.272 12.0717 108.18 12.2361C108.086 12.3956 108.035 12.5767 108.035 12.761C108.036 12.9438 108.085 13.1233 108.176 13.2823C108.268 13.4458 108.406 13.58 108.573 13.6689C108.734 13.7617 108.917 13.8108 109.105 13.8108C109.291 13.8108 109.474 13.7617 109.635 13.6689C109.803 13.58 109.941 13.4458 110.032 13.2823C110.122 13.1224 110.169 12.9433 110.17 12.761C110.17 12.5771 110.122 12.3962 110.029 12.2361C109.936 12.0724 109.797 11.9383 109.628 11.8497C109.475 11.7641 109.303 11.7167 109.126 11.7114H109.105ZM109.105 11.5057C109.325 11.5065 109.541 11.5613 109.733 11.6653C109.934 11.7723 110.102 11.9334 110.214 12.1298C110.323 12.3228 110.382 12.5399 110.383 12.761C110.384 12.9801 110.325 13.1956 110.214 13.3852C110.105 13.5829 109.941 13.7456 109.741 13.8532C109.546 13.9601 109.327 14.0162 109.105 14.0162C108.882 14.0162 108.663 13.9601 108.469 13.8532C108.273 13.7416 108.113 13.5782 108.007 13.3816C107.894 13.1907 107.835 12.9744 107.835 12.754C107.835 12.5336 107.894 12.3171 108.007 12.1263C108.118 11.9299 108.286 11.7687 108.487 11.6617C108.683 11.5573 108.903 11.5036 109.126 11.5057H109.105Z" fill="white"/>
</g>
</g>
<defs>
<clipPath id="clip0_942_53">
<rect width="109.474" height="12.6316" fill="white" transform="translate(0.920898 0.85498)"/>
</clipPath>
</defs>
</svg>
