<svg width="129" height="14" viewBox="0 0 129 14" fill="none" xmlns="http://www.w3.org/2000/svg">
<g clip-path="url(#clip0_1326_280)">
<path d="M12.9866 5.43979C12.9866 3.34477 11.5863 1.44181 8.93154 1.42635C7.14522 1.42635 1.78631 1.40869 0 1.40869V13.5351H2.12509V9.48855H7.74682L11.032 13.5351H13.5575V13.3806L10.145 9.24572C12.2865 8.7777 12.9948 7.09992 12.9948 5.43979H12.9866ZM2.13331 7.42664V3.55229H8.93975C10.2743 3.55229 10.8698 4.52142 10.8698 5.49057C10.8698 6.45971 10.2908 7.42884 8.93975 7.42884L2.13331 7.42664Z" fill="black"/>
<path d="M27.7056 1.41115C25.9357 1.41115 20.5931 1.42882 18.8232 1.42882V13.5376H20.9463V9.97006H27.7056C33.2246 9.97006 33.2082 1.40674 27.7056 1.40674V1.41115ZM27.7056 7.87725H20.9463V3.58565H27.7056C30.4076 3.58565 30.424 7.87725 27.7056 7.87725Z" fill="black"/>
<path d="M66.526 7.27228C67.5711 6.76894 67.99 5.87045 67.99 4.93443C67.99 2.50605 66.333 1.42432 64.1114 1.42432H55.1963V13.5331H64.1114C66.4439 13.5331 68.3267 12.6699 68.3267 9.96998C68.3267 9.20835 67.8442 7.70276 66.526 7.27228ZM57.2865 3.49948H64.1093C65.4624 3.49948 65.8792 4.43329 65.8792 4.9874C65.8792 5.67838 65.446 6.28548 64.1093 6.28548H57.2886L57.2865 3.49948ZM64.1093 11.4071H57.2886V8.29219H64.1114C64.98 8.29219 66.2201 8.86176 66.2201 9.95232C66.2201 11.0937 64.9882 11.4071 64.1114 11.4071" fill="black"/>
<path d="M75.5333 1.42432H73.4082V13.5353H84.8981V11.4226H75.5333V1.42432Z" fill="black"/>
<path d="M92.1047 1.42432H89.9961V13.5353H92.1047V1.42432Z" fill="black"/>
<path d="M108.028 10.1888C107.724 10.5138 107.379 10.7903 107.002 11.01C106.578 11.252 106.127 11.4359 105.661 11.5575C105.131 11.694 104.588 11.7608 104.043 11.7562C103.328 11.7689 102.617 11.6524 101.938 11.4118C101.377 11.2087 100.858 10.89 100.411 10.4736C100.009 10.0921 99.6911 9.62029 99.4786 9.0916C99.2712 8.57583 99.1643 8.01986 99.1644 7.45796C99.1632 6.89026 99.2702 6.3283 99.4786 5.80667C99.6911 5.27799 100.009 4.80615 100.411 4.4247C100.859 4.00821 101.379 3.69221 101.942 3.4953C102.621 3.25974 103.332 3.14636 104.045 3.15974C104.564 3.15713 105.082 3.21787 105.589 3.34076C106.039 3.44926 106.475 3.61219 106.891 3.82644C107.265 4.02028 107.611 4.27245 107.918 4.57482C108.102 4.76071 108.269 4.96552 108.416 5.18633L110.207 4.12226C109.98 3.76922 109.719 3.44356 109.426 3.15091C109.012 2.73519 108.549 2.38035 108.049 2.09567C107.492 1.78178 106.9 1.54586 106.287 1.39365C105.588 1.22221 104.873 1.1385 104.156 1.14419C103.127 1.12728 102.103 1.30205 101.129 1.66077C100.312 1.96361 99.5554 2.43196 98.9015 3.04053C98.3178 3.59226 97.8503 4.27144 97.5299 5.03278C97.2096 5.79412 97.0439 6.62014 97.0439 7.45576C97.0439 8.29137 97.2096 9.11739 97.5299 9.87874C97.8503 10.6401 98.3178 11.3193 98.9015 11.871C99.5548 12.4805 100.311 12.949 101.129 13.2508C102.099 13.6102 103.118 13.7872 104.143 13.7739C104.883 13.7804 105.621 13.6908 106.341 13.5069C106.967 13.3441 107.571 13.094 108.136 12.7629C108.647 12.4666 109.115 12.0951 109.529 11.6591C109.829 11.3392 110.094 10.9829 110.318 10.5972L108.519 9.53754C108.379 9.77709 108.214 9.9992 108.028 10.1998" fill="black"/>
<path d="M46.2154 1.41065C45.9765 1.41036 45.74 1.46068 45.5194 1.55873C45.2986 1.65678 45.0981 1.80065 44.9292 1.9821C44.7601 2.16355 44.6261 2.37902 44.5346 2.61621C44.4433 2.85339 44.3962 3.10763 44.3962 3.36438H47.786V7.54339C47.7231 8.09872 47.6089 8.64595 47.4452 9.17702C47.2326 9.70569 46.9144 10.1775 46.5131 10.559C46.065 10.9759 45.5453 11.2947 44.9834 11.4972C43.8623 11.9747 42.614 11.9747 41.493 11.4972C40.9311 11.2947 40.4114 10.9759 39.9633 10.559C39.5619 10.1775 39.2436 9.70569 39.0311 9.17702C38.8675 8.64595 38.7533 8.09872 38.6902 7.54339V1.41065H36.5919V7.54339C36.587 8.37884 36.7494 9.20564 37.0683 9.96754C37.3872 10.7294 37.855 11.4085 38.4398 11.9586C39.0941 12.5659 39.8512 13.0322 40.6696 13.3317C42.3377 13.9141 44.1344 13.9141 45.8026 13.3317C46.6207 13.0299 47.3772 12.5615 48.0304 11.9519C48.6153 11.4019 49.083 10.7228 49.4019 9.96091C49.7207 9.19902 49.8833 8.37222 49.8783 7.53677V1.41065H46.2154Z" fill="black"/>
<path d="M120.53 3.41779L115.569 13.5331H113.456L119.353 1.49937V1.42432H122.487L128.422 13.5331H126.31L125.049 10.9722H121.269C121.023 10.9722 120.78 10.9202 120.553 10.8192C120.327 10.7181 120.12 10.5699 119.947 10.3832C119.773 10.1964 119.635 9.97473 119.541 9.73073C119.447 9.48673 119.398 9.22521 119.398 8.96111H124.059L121.335 3.41779H120.53Z" fill="black"/>
</g>
<defs>
<clipPath id="clip0_1326_280">
<rect width="128.421" height="12.6316" fill="white" transform="translate(0 0.789551)"/>
</clipPath>
</defs>
</svg>
