<svg width="104" height="18" viewBox="0 0 104 18" fill="none" xmlns="http://www.w3.org/2000/svg">
<g clip-path="url(#clip0_1326_332)">
<mask id="mask0_1326_332" style="mask-type:luminance" maskUnits="userSpaceOnUse" x="0" y="1" width="104" height="18">
<path d="M103.158 1.58228H0V18.4244H103.158V1.58228Z" fill="white"/>
</mask>
<g mask="url(#mask0_1326_332)">
<path fill-rule="evenodd" clip-rule="evenodd" d="M21.0562 1.5954L0.135824 9.93206C0.0938334 9.94953 0.0587801 9.98041 0.0361133 10.0199C0.0123597 10.0556 -0.000211854 10.0976 1.09581e-05 10.1405C-0.000425145 10.1834 0.0121648 10.2254 0.0361133 10.261C0.0601858 10.2973 0.0950838 10.325 0.135824 10.3403L6.34713 12.5846C6.38037 12.598 6.4166 12.6021 6.452 12.5966C6.48674 12.5912 6.51971 12.5776 6.54827 12.5571L18.3314 3.95515C18.3343 3.95388 18.3376 3.95322 18.3408 3.95322C18.3441 3.95322 18.3473 3.95388 18.3503 3.95515C18.3568 3.95691 18.3628 3.96049 18.3675 3.96549C18.3686 3.96822 18.3692 3.97114 18.3692 3.9741C18.3692 3.97706 18.3686 3.97998 18.3675 3.98271C18.3699 3.98881 18.3699 3.99557 18.3675 4.00166L7.93735 13.0911C7.9133 13.112 7.89396 13.1378 7.88062 13.1669C7.86813 13.1961 7.86226 13.2279 7.86342 13.2598V18.0999C7.86218 18.1437 7.87547 18.1868 7.90124 18.2222C7.92703 18.2582 7.96294 18.2858 8.0044 18.3014C8.04591 18.3162 8.09099 18.3175 8.13326 18.3051C8.17554 18.2928 8.21285 18.2674 8.23992 18.2325L11.2502 14.5155C11.2782 14.4815 11.316 14.4569 11.3584 14.4449C11.4009 14.4311 11.4466 14.4311 11.4892 14.4449L15.3263 15.8383C15.3769 15.859 15.4338 15.859 15.4844 15.8383C15.5342 15.8154 15.574 15.775 15.5962 15.7246L21.3347 1.87444C21.3501 1.83618 21.3537 1.79419 21.3451 1.75387C21.3378 1.71267 21.318 1.67475 21.2883 1.64535C21.2596 1.61501 21.2224 1.59401 21.1817 1.58511C21.1408 1.5762 21.0984 1.57979 21.0597 1.5954" fill="black"/>
<path d="M27.6677 3.27539H25.7766L25.8041 14.8158H27.6951L27.6677 3.27539Z" fill="black"/>
<path d="M33.622 6.51196C32.6662 6.51196 31.7911 6.85645 31.2427 7.54543V6.68421H29.46L29.4805 14.8142H31.2633L31.2495 9.43151C31.4159 9.04307 31.6939 8.71307 32.0481 8.48359C32.4024 8.25412 32.8168 8.13559 33.2386 8.14312C34.3732 8.14312 35.0231 8.95094 35.0265 10.2359L35.0368 14.8142H36.8196L36.8075 9.95169C36.8075 7.8503 35.5664 6.51885 33.622 6.52402" fill="black"/>
<path d="M44.1818 6.6497L41.7132 12.3475L39.2358 6.66348H37.2588L40.9413 14.7848H42.5143L46.171 6.64453L44.1818 6.6497Z" fill="black"/>
<path d="M50.6007 6.4716C49.5618 6.48884 48.5663 6.89226 47.8075 7.60353C47.0488 8.31481 46.581 9.2832 46.4949 10.3207C46.4087 11.3581 46.7105 12.3906 47.3414 13.2178C47.9725 14.0448 48.8877 14.6075 49.9094 14.7965C50.9313 14.9855 51.9867 14.7873 52.8709 14.2404C53.755 13.6936 54.4048 12.8371 54.6941 11.8371C54.9832 10.8372 54.8913 9.7653 54.4361 8.82949C53.9808 7.89369 53.1947 7.16076 52.2304 6.77303C51.7128 6.56424 51.1586 6.46174 50.6007 6.4716ZM50.6162 13.2684C49.1755 13.2684 48.1664 12.1522 48.1646 10.7054C48.1629 9.25852 49.1583 8.13376 50.6041 8.12171C52.05 8.10965 53.0385 9.23957 53.0419 10.6864C53.0453 12.1333 52.043 13.2563 50.6213 13.2598L50.6162 13.2684Z" fill="black"/>
<path d="M57.903 6.60962H56.1201L56.1424 14.7396H57.9236L57.903 6.60962Z" fill="black"/>
<path d="M57.9032 3.47485H56.1201V5.12519H57.9032V3.47485Z" fill="black"/>
<path d="M63.5881 8.09833C64.0564 8.09507 64.5156 8.22788 64.9101 8.4807C65.3046 8.73351 65.6176 9.09549 65.8109 9.5228L67.3582 8.67536C66.9958 7.98844 66.4505 7.41556 65.7829 7.02028C65.1152 6.62502 64.3513 6.42284 63.5761 6.43617C61.152 6.43962 59.3125 8.27058 59.3125 10.6803C59.3125 13.09 61.1778 14.902 63.6104 14.8986C64.3856 14.9093 65.1485 14.7043 65.8142 14.3062C66.4799 13.9081 67.0221 13.3326 67.3805 12.6439L65.8229 11.7964C65.6323 12.2253 65.3213 12.5894 64.928 12.8445C64.5345 13.0996 64.0756 13.2345 63.607 13.2329C62.1663 13.2329 61.1417 12.1168 61.1383 10.67C61.1348 9.22309 62.1543 8.09833 63.5967 8.08628" fill="black"/>
<path d="M72.5324 6.41431C70.0688 6.41431 68.2998 8.26422 68.3136 10.655C68.3136 13.1198 70.0911 14.8784 72.5496 14.8733C74.2429 14.8733 75.5151 14.1326 76.2388 12.9785L74.8842 12.0071C74.4647 12.7219 73.6997 13.2456 72.5702 13.2489C71.2258 13.2489 70.153 12.3757 70.0688 11.0425L76.4297 11.027C76.4451 10.7687 76.4451 10.6205 76.4451 10.4414C76.4451 7.82672 74.6521 6.41603 72.5306 6.41948L72.5324 6.41431ZM70.1427 9.73863C70.3835 8.53292 71.4321 7.92834 72.4722 7.92834C73.5123 7.92834 74.4492 8.55703 74.6469 9.72658L70.1427 9.73863Z" fill="black"/>
<path d="M98.9356 6.35194H98.872C98.3177 6.34758 97.7681 6.45369 97.2551 6.66409C96.7422 6.8745 96.2761 7.185 95.884 7.57753C95.4919 7.97005 95.1816 8.43677 94.9711 8.95055C94.7607 9.46431 94.6544 10.0149 94.6583 10.5702V10.5926C94.6548 11.1493 94.7621 11.701 94.974 12.2156C95.1858 12.7302 95.4978 13.1974 95.8919 13.5898C96.2859 13.9822 96.7541 14.292 97.269 14.5011C97.784 14.7101 98.3354 14.8143 98.8908 14.8074H98.9218C99.4769 14.8152 100.028 14.7115 100.543 14.5027C101.057 14.2938 101.525 13.984 101.918 13.5914C102.311 13.1992 102.623 12.7325 102.834 12.2186C103.045 11.7046 103.153 11.1536 103.149 10.5978V10.5702C103.152 10.0157 103.046 9.46607 102.835 8.95332C102.624 8.44057 102.314 7.97493 101.922 7.58348C101.53 7.19131 101.065 6.88108 100.552 6.67083C100.04 6.46059 99.4909 6.35452 98.9373 6.35882L98.9356 6.35194ZM98.9149 13.1556C97.4725 13.1556 96.4668 12.0395 96.4635 10.5943C96.46 9.14919 97.4622 8.02099 98.9011 8.01065C100.34 8.00031 101.335 9.12851 101.339 10.5754C101.342 12.0222 100.34 13.1453 98.9149 13.1487V13.1556Z" fill="black"/>
<path d="M91.5744 6.532V7.27954C91.0053 6.69563 90.1612 6.37352 89.1899 6.37525C86.8416 6.37525 85.143 8.18727 85.1259 10.4678C85.1146 11.0073 85.2123 11.5436 85.4131 12.0444C85.614 12.5451 85.9138 13.0001 86.2945 13.3818C86.6751 13.7636 87.129 14.0643 87.6286 14.266C88.1283 14.4676 88.6635 14.566 89.202 14.5551C90.1767 14.5551 91.0173 14.2106 91.583 13.6061V14.5689C91.583 15.8349 90.8954 16.5119 89.9636 16.7185C87.6427 17.1354 86.2003 16.4343 86.2003 16.4343L85.6312 17.895C86.4599 18.4118 89.03 18.5599 90.2231 18.2963C91.9423 17.9931 93.3726 16.8667 93.3675 14.5844L93.352 6.53027L91.5744 6.532ZM91.5864 11.7682C91.3563 12.1323 91.0348 12.4295 90.6541 12.6299C90.2732 12.8303 89.8466 12.9269 89.4168 12.9102C88.0088 12.9102 86.9842 11.8595 86.967 10.4626C86.9583 10.1378 87.0168 9.81461 87.1389 9.51356C87.2579 9.21183 87.4368 8.93756 87.665 8.70745C87.8932 8.47731 88.1658 8.29605 88.466 8.17465C88.7662 8.05325 89.088 7.99426 89.4117 8.00124C89.8391 7.98423 90.2638 8.07803 90.6444 8.27357C91.025 8.46909 91.3489 8.75974 91.5847 9.11739L91.5864 11.7682Z" fill="black"/>
<path d="M79.759 13.1561L82.1899 9.84898C82.6799 9.2065 83.4621 8.12652 83.6082 7.89054C84.2855 6.76923 84.3681 5.59108 83.7801 4.41465C83.3005 3.45697 82.4529 2.99018 81.4093 2.86444C79.9464 2.67842 78.4249 3.35706 77.7372 4.74536C77.5773 5.04757 77.4725 5.37597 77.4278 5.71509L78.9871 6.05959C79.0111 5.99241 79.0334 5.93729 79.0489 5.88733C79.1231 5.60353 79.2598 5.34001 79.449 5.11614C79.6383 4.89227 79.8751 4.71378 80.1424 4.59378C80.7114 4.33369 81.528 4.43531 81.9681 4.81598C82.7056 5.45845 82.6953 6.53843 82.1606 7.22741C82.0712 7.34453 77.457 13.2353 77.457 13.2353C77.4136 13.2867 77.3904 13.3523 77.3917 13.4196V14.7235L84.2391 14.7063V13.1561H79.759Z" fill="black"/>
</g>
</g>
<defs>
<clipPath id="clip0_1326_332">
<rect width="103.158" height="16.8421" fill="white" transform="translate(0 0.820557)"/>
</clipPath>
</defs>
</svg>
