<svg width="130" height="14" viewBox="0 0 130 14" fill="none" xmlns="http://www.w3.org/2000/svg">
<g clip-path="url(#clip0_942_69)">
<path d="M13.9075 5.50229C13.9075 3.40727 12.5072 1.50431 9.85244 1.48885C8.06612 1.48885 2.7072 1.47119 0.920898 1.47119V13.5976H3.04599V9.55105H8.66772L11.9529 13.5976H14.4784V13.4431L11.0659 9.30822C13.2074 8.8402 13.9157 7.16242 13.9157 5.50229H13.9075ZM3.0542 7.48914V3.61479H9.86065C11.1952 3.61479 11.7907 4.58392 11.7907 5.55307C11.7907 6.52221 11.2117 7.49134 9.86065 7.49134L3.0542 7.48914Z" fill="white"/>
<path d="M28.6265 1.47365C26.8566 1.47365 21.514 1.49132 19.7441 1.49132V13.6001H21.8672V10.0326H28.6265C34.1455 10.0326 34.1291 1.46924 28.6265 1.46924V1.47365ZM28.6265 7.93975H21.8672V3.64815H28.6265C31.3285 3.64815 31.3449 7.93975 28.6265 7.93975Z" fill="white"/>
<path d="M67.4469 7.33478C68.492 6.83144 68.9109 5.93295 68.9109 4.99693C68.9109 2.56855 67.2539 1.48682 65.0323 1.48682H56.1172V13.5956H65.0323C67.3648 13.5956 69.2476 12.7324 69.2476 10.0325C69.2476 9.27085 68.7651 7.76526 67.4469 7.33478ZM58.2074 3.56198H65.0302C66.3833 3.56198 66.8001 4.49579 66.8001 5.0499C66.8001 5.74088 66.3669 6.34798 65.0302 6.34798H58.2095L58.2074 3.56198ZM65.0302 11.4696H58.2095V8.35469H65.0323C65.9009 8.35469 67.141 8.92426 67.141 10.0148C67.141 11.1562 65.9091 11.4696 65.0323 11.4696" fill="white"/>
<path d="M76.4542 1.48682H74.3291V13.5978H85.819V11.4851H76.4542V1.48682Z" fill="white"/>
<path d="M93.0256 1.48682H90.917V13.5978H93.0256V1.48682Z" fill="white"/>
<path d="M108.949 10.2513C108.645 10.5763 108.299 10.8528 107.923 11.0725C107.498 11.3145 107.048 11.4984 106.582 11.62C106.052 11.7565 105.509 11.8233 104.964 11.8187C104.249 11.8314 103.538 11.7149 102.859 11.4743C102.298 11.2712 101.779 10.9525 101.332 10.5361C100.93 10.1546 100.612 9.68279 100.399 9.1541C100.192 8.63833 100.085 8.08236 100.085 7.52046C100.084 6.95276 100.191 6.3908 100.399 5.86917C100.612 5.34049 100.93 4.86865 101.332 4.4872C101.779 4.07071 102.3 3.75471 102.863 3.5578C103.542 3.32224 104.253 3.20886 104.966 3.22224C105.485 3.21963 106.003 3.28037 106.51 3.40326C106.959 3.51176 107.396 3.67469 107.812 3.88894C108.186 4.08278 108.532 4.33495 108.838 4.63732C109.023 4.82321 109.19 5.02802 109.337 5.24883L111.128 4.18476C110.901 3.83172 110.639 3.50606 110.347 3.21341C109.933 2.79769 109.47 2.44285 108.97 2.15817C108.413 1.84428 107.821 1.60836 107.208 1.45615C106.509 1.28471 105.794 1.201 105.077 1.20669C104.048 1.18978 103.024 1.36455 102.05 1.72327C101.233 2.02611 100.476 2.49446 99.8224 3.10303C99.2387 3.65476 98.7712 4.33394 98.4508 5.09528C98.1305 5.85662 97.9648 6.68264 97.9648 7.51826C97.9648 8.35387 98.1305 9.17989 98.4508 9.94124C98.7712 10.7026 99.2387 11.3818 99.8224 11.9335C100.476 12.543 101.232 13.0115 102.05 13.3133C103.019 13.6727 104.039 13.8497 105.064 13.8364C105.804 13.8429 106.542 13.7533 107.262 13.5694C107.888 13.4066 108.492 13.1565 109.057 12.8254C109.568 12.5291 110.036 12.1576 110.45 11.7216C110.75 11.4017 111.015 11.0454 111.238 10.6597L109.439 9.60004C109.299 9.83959 109.135 10.0617 108.949 10.2623" fill="white"/>
<path d="M47.1363 1.47315C46.8974 1.47286 46.6609 1.52318 46.4403 1.62123C46.2195 1.71928 46.019 1.86315 45.8501 2.0446C45.681 2.22605 45.547 2.44152 45.4555 2.67871C45.3642 2.91589 45.3171 3.17013 45.3171 3.42688H48.7069V7.60589C48.644 8.16122 48.5298 8.70845 48.3661 9.23952C48.1535 9.76819 47.8353 10.24 47.434 10.6215C46.9859 11.0384 46.4662 11.3572 45.9043 11.5597C44.7832 12.0372 43.5349 12.0372 42.4139 11.5597C41.852 11.3572 41.3323 11.0384 40.8842 10.6215C40.4828 10.24 40.1645 9.76819 39.952 9.23952C39.7884 8.70845 39.6742 8.16122 39.6111 7.60589V1.47315H37.5128V7.60589C37.5079 8.44134 37.6703 9.26814 37.9892 10.03C38.3081 10.7919 38.7759 11.471 39.3607 12.0211C40.015 12.6284 40.7721 13.0947 41.5905 13.3942C43.2586 13.9766 45.0553 13.9766 46.7235 13.3942C47.5416 13.0924 48.2981 12.624 48.9513 12.0144C49.5362 11.4644 50.0039 10.7853 50.3228 10.0234C50.6416 9.26152 50.8042 8.43472 50.7992 7.59927V1.47315H47.1363Z" fill="white"/>
<path d="M121.451 3.48029L116.49 13.5956H114.377L120.274 1.56187V1.48682H123.407L129.343 13.5956H127.231L125.97 11.0347H122.19C121.944 11.0347 121.701 10.9827 121.474 10.8817C121.247 10.7806 121.041 10.6324 120.867 10.4457C120.694 10.2589 120.556 10.0372 120.462 9.79323C120.367 9.54923 120.319 9.28771 120.319 9.02361H124.98L122.256 3.48029H121.451Z" fill="white"/>
</g>
<defs>
<clipPath id="clip0_942_69">
<rect width="128.421" height="12.6316" fill="white" transform="translate(0.920898 0.852051)"/>
</clipPath>
</defs>
</svg>
