<svg width="102" height="22" viewBox="0 0 102 22" fill="none" xmlns="http://www.w3.org/2000/svg">
<g clip-path="url(#clip0_942_79)">
<mask id="mask0_942_79" style="mask-type:luminance" maskUnits="userSpaceOnUse" x="0" y="1" width="102" height="22">
<path d="M101.974 1.62524H0.920898V22.6779H101.974V1.62524Z" fill="white"/>
</mask>
<g mask="url(#mask0_942_79)">
<path d="M10.1991 6.36386C10.1408 6.28693 10.0744 6.24634 10.0004 6.24634C9.94593 6.2485 9.89318 6.26594 9.84816 6.29664C9.28745 6.73715 8.52039 8.60186 7.8916 11.0597L8.44809 11.066C9.54751 11.0783 10.6825 11.0914 11.8048 11.1083C11.5088 9.98254 11.2292 9.01784 10.973 8.23873C10.5983 7.10071 10.3454 6.59087 10.1991 6.36386Z" fill="white"/>
<path d="M11.4501 1.62524C5.6349 1.62524 0.920898 6.33799 0.920898 12.1516C0.920898 17.9651 5.6349 22.6779 11.4501 22.6779C17.2651 22.6779 21.9791 17.9651 21.9791 12.1516C21.9791 6.33799 17.2647 1.62524 11.4501 1.62524ZM19.0191 12.3426L19.0166 12.3447C19.0052 12.3541 18.9938 12.3625 18.9816 12.3709L18.9697 12.379L18.9451 12.3938L18.9223 12.4069C18.8424 12.4488 18.7535 12.4707 18.6631 12.4707H13.676C13.7157 12.636 13.7605 12.8238 13.8066 13.0279C14.0798 14.2086 14.8063 17.3449 15.5776 17.3449H15.5941H15.6025H15.6172C16.2199 17.3449 16.5272 16.4741 17.2013 14.5659L17.2093 14.5426C17.3176 14.2361 17.4398 13.8903 17.5722 13.5246L17.606 13.4312C17.626 13.3785 17.6638 13.3344 17.7129 13.3066C17.762 13.2788 17.8192 13.2691 17.8748 13.2791C17.9303 13.2892 17.9805 13.3184 18.0168 13.3616C18.053 13.4048 18.073 13.4593 18.0732 13.5158C18.0731 13.5392 18.0698 13.5626 18.0631 13.585L18.0351 13.6789C17.965 13.906 17.8902 14.2154 17.8039 14.5735C17.4022 16.2378 16.7953 18.7523 15.2384 18.7523H15.227C14.221 18.7443 13.6201 17.1365 13.3618 16.45C12.881 15.1662 12.5161 13.7982 12.1664 12.4732H7.57412L6.62101 15.5208L6.60705 15.5099C6.55095 15.5983 6.46767 15.6663 6.36968 15.7035C6.27169 15.7406 6.16429 15.745 6.06358 15.7161C5.96287 15.687 5.87428 15.6262 5.81109 15.5426C5.74791 15.459 5.71353 15.3571 5.71313 15.2524V15.2359L5.77064 14.8909C5.90215 14.1071 6.05988 13.2938 6.24002 12.4716H4.30375L4.29657 12.4644C4.12371 12.4378 3.96606 12.3503 3.85201 12.2178C3.73797 12.0852 3.67503 11.9163 3.67454 11.7415C3.6736 11.5706 3.73295 11.4049 3.84215 11.2735C3.95137 11.142 4.10343 11.0533 4.27162 11.0228C4.34689 11.0149 4.42259 11.0116 4.49827 11.0131C4.52618 11.0131 4.55747 11.0131 4.59257 11.0131C5.20698 11.0237 5.86113 11.0334 6.57407 11.0427C7.58597 6.93195 8.75812 4.84529 10.0584 4.83936C11.4539 4.83936 12.4886 8.01501 13.3169 11.1218L13.3203 11.134C15.0223 11.1683 16.8364 11.2186 18.6001 11.3454L18.6741 11.3521C18.7025 11.3527 18.7307 11.3552 18.7587 11.3598H18.7688L18.7778 11.3619H18.7824C18.886 11.3829 18.9814 11.4329 19.0577 11.506C19.134 11.5792 19.1879 11.6725 19.2131 11.7751C19.2383 11.8777 19.2339 11.9853 19.2003 12.0855C19.1667 12.1857 19.1053 12.2743 19.0235 12.3409L19.0191 12.3426Z" fill="white"/>
<path d="M27.8203 14.7859L26.9856 16.848H24.5605L29.1748 6.08032H31.3165L35.9147 16.8484H33.5043L32.6697 14.7863L27.8203 14.7859ZM30.2307 8.80364L28.6559 12.7238H31.8367L30.2307 8.80364Z" fill="white"/>
<path d="M49.5827 12.7074V16.8477H47.3939V12.8964C47.3939 11.7 46.8112 11.0545 45.7871 11.0545C45.3303 11.0545 44.8263 11.2591 44.3696 11.889C44.407 12.1603 44.428 12.4336 44.4327 12.7074V16.8477H42.2448V12.8964C42.2448 11.7 41.6621 11.0545 40.6228 11.0545C40.1998 11.0545 39.725 11.3081 39.2843 11.9046V16.8477H37.0957V9.30687H39.2843V9.76343C39.7568 9.32251 40.2608 9.07056 41.1424 9.07056C42.1032 9.07056 42.9531 9.44849 43.5527 10.1409C44.3561 9.40115 45.1118 9.07056 46.2928 9.07056C48.1339 9.07056 49.5827 10.5032 49.5827 12.7074Z" fill="white"/>
<path d="M59.2028 13.0844C59.2028 15.2726 57.5338 17.0041 55.455 17.0041C54.6047 17.0041 53.8959 16.7839 53.3137 16.406V20.4833H51.125V9.30595H53.3137V9.74686C53.8964 9.36893 54.6051 9.14868 55.455 9.14868C57.5334 9.1491 59.2028 10.865 59.2028 13.0844ZM57.0463 13.0844C57.0463 11.9667 56.2276 10.9906 55.0935 10.9906C54.4478 10.9906 53.8021 11.2108 53.3142 11.872V14.2816C53.8021 14.9271 54.4478 15.1474 55.0935 15.1474C56.2281 15.1462 57.0463 14.1865 57.0463 13.0844Z" fill="white"/>
<path d="M62.6192 16.8471H60.4307V5.67017H62.6192V16.8471Z" fill="white"/>
<path d="M64.5908 6.64677C64.5908 5.90697 65.1736 5.35571 65.9135 5.35571C66.6378 5.35571 67.2204 5.90528 67.2204 6.64677C67.2204 7.37093 66.6378 7.90612 65.9135 7.90612C65.1736 7.90612 64.5908 7.37093 64.5908 6.64677ZM67.0158 9.3071V16.8481H64.8272V9.3071H67.0158Z" fill="white"/>
<path d="M74.9652 16.738C74.0518 17.0213 73.6425 17.0843 72.9355 17.0843C71.1088 17.0843 69.9122 15.7932 69.9122 13.8414V11.1494H68.3223V9.30751H69.9126V6.61548H72.0856V9.30751H74.8095V11.1494H72.0856V13.8258C72.0856 14.6759 72.6053 15.0695 73.4083 15.0695C73.8175 15.0695 74.2586 14.9752 74.6835 14.8649L74.9652 16.738Z" fill="white"/>
<path d="M83.7545 16.8471H81.5658V16.3119C80.9518 16.7998 80.2588 17.0834 79.4093 17.0834C77.4252 17.0834 76.1025 15.6508 76.1025 13.4627V9.30664H78.2912V13.258C78.2912 14.4544 78.8896 15.0999 79.9133 15.0999C80.463 15.0999 81.0626 14.7694 81.5666 14.1555V9.30664H83.7554L83.7545 16.8471Z" fill="white"/>
<path d="M93.0441 16.847H90.8554V16.4062C90.2727 16.7841 89.564 17.0043 88.7137 17.0043C86.6348 17.0043 84.9502 15.2884 84.9502 13.0686C84.9502 10.8805 86.6353 9.1485 88.7137 9.1485C89.564 9.1485 90.2727 9.36875 90.8554 9.74668V5.67017H93.0441V16.847ZM90.8549 14.2815V11.8718C90.367 11.2263 89.7212 11.006 89.0756 11.006C87.9263 11.006 87.1228 11.9665 87.1228 13.0682C87.1228 14.1859 87.9263 15.162 89.0756 15.162C89.72 15.1628 90.367 14.9426 90.8549 14.2815Z" fill="white"/>
<path d="M101.924 13.6359H96.3655C96.5388 14.5174 97.1216 15.2102 98.3182 15.2102C98.9322 15.2102 99.3574 15.0212 99.5936 14.6434H101.877C101.468 16.0917 100.05 17.0834 98.2709 17.0834C95.8458 17.0834 94.208 15.3362 94.208 13.0846C94.208 10.7549 95.8301 9.0686 98.2079 9.0686C100.365 9.0686 101.971 10.5956 101.971 12.9257C101.975 13.1634 101.959 13.4008 101.924 13.6359ZM96.3812 12.3448H99.7983C99.6715 11.4005 99.1053 10.8809 98.2236 10.8809C97.1685 10.8809 96.5858 11.4947 96.3812 12.3448Z" fill="white"/>
</g>
</g>
<defs>
<clipPath id="clip0_942_79">
<rect width="101.053" height="21.0526" fill="white" transform="translate(0.920898 0.863525)"/>
</clipPath>
</defs>
</svg>
