<svg width="102" height="22" viewBox="0 0 102 22" fill="none" xmlns="http://www.w3.org/2000/svg">
<g clip-path="url(#clip0_1326_290)">
<mask id="mask0_1326_290" style="mask-type:luminance" maskUnits="userSpaceOnUse" x="0" y="1" width="102" height="22">
<path d="M101.053 1.56274H0V22.6154H101.053V1.56274Z" fill="white"/>
</mask>
<g mask="url(#mask0_1326_290)">
<path d="M9.27823 6.30136C9.21988 6.22443 9.15349 6.18384 9.07949 6.18384C9.02503 6.186 8.97228 6.20344 8.92726 6.23414C8.36656 6.67465 7.59949 8.53936 6.9707 10.9972L7.52719 11.0035C8.62661 11.0158 9.76156 11.0289 10.8839 11.0458C10.5879 9.92004 10.3083 8.95534 10.0521 8.17623C9.67741 7.03821 9.42455 6.52837 9.27823 6.30136Z" fill="black"/>
<path d="M10.5292 1.56274C4.714 1.56274 0 6.27549 0 12.0891C0 17.9026 4.714 22.6154 10.5292 22.6154C16.3442 22.6154 21.0582 17.9026 21.0582 12.0891C21.0582 6.27549 16.3438 1.56274 10.5292 1.56274ZM18.0982 12.2801L18.0957 12.2822C18.0843 12.2916 18.0729 12.3 18.0607 12.3084L18.0488 12.3165L18.0242 12.3313L18.0014 12.3444C17.9215 12.3863 17.8326 12.4082 17.7422 12.4082H12.7551C12.7948 12.5735 12.8396 12.7613 12.8857 12.9654C13.1589 14.1461 13.8854 17.2824 14.6567 17.2824H14.6732H14.6816H14.6963C15.299 17.2824 15.6063 16.4116 16.2804 14.5034L16.2884 14.4801C16.3967 14.1736 16.5189 13.8278 16.6513 13.4621L16.6851 13.3687C16.7051 13.316 16.7429 13.2719 16.792 13.2441C16.8411 13.2163 16.8983 13.2066 16.9539 13.2166C17.0094 13.2267 17.0596 13.2559 17.0959 13.2991C17.1321 13.3423 17.1521 13.3968 17.1523 13.4533C17.1522 13.4767 17.1489 13.5001 17.1422 13.5225L17.1142 13.6164C17.0441 13.8435 16.9693 14.1529 16.883 14.511C16.4813 16.1753 15.8744 18.6898 14.3175 18.6898H14.3061C13.3001 18.6818 12.6992 17.074 12.4409 16.3875C11.9601 15.1037 11.5952 13.7357 11.2455 12.4107H6.65322L5.70011 15.4583L5.68615 15.4474C5.63006 15.5358 5.54677 15.6038 5.44878 15.641C5.35079 15.6781 5.24339 15.6825 5.14268 15.6536C5.04197 15.6245 4.95338 15.5637 4.89019 15.4801C4.82701 15.3965 4.79263 15.2946 4.79224 15.1899V15.1734L4.84974 14.8284C4.98126 14.0446 5.13898 13.2313 5.31912 12.4091H3.38286L3.37567 12.4019C3.20281 12.3753 3.04516 12.2878 2.93111 12.1553C2.81707 12.0227 2.75413 11.8538 2.75365 11.679C2.7527 11.5081 2.81206 11.3424 2.92126 11.211C3.03047 11.0795 3.18253 10.9908 3.35072 10.9603C3.42599 10.9524 3.50169 10.9491 3.57737 10.9506C3.60528 10.9506 3.63657 10.9506 3.67167 10.9506C4.28608 10.9612 4.94024 10.9709 5.65317 10.9802C6.66507 6.86945 7.83722 4.78279 9.13751 4.77686C10.533 4.77686 11.5677 7.95251 12.396 11.0593L12.3994 11.0715C14.1014 11.1058 15.9155 11.1561 17.6792 11.2829L17.7532 11.2896C17.7816 11.2902 17.8098 11.2927 17.8378 11.2973H17.8479L17.8569 11.2994H17.8615C17.9651 11.3204 18.0606 11.3704 18.1368 11.4435C18.2131 11.5167 18.267 11.61 18.2922 11.7126C18.3174 11.8152 18.313 11.9228 18.2794 12.023C18.2458 12.1232 18.1844 12.2118 18.1026 12.2784L18.0982 12.2801Z" fill="black"/>
<path d="M26.8994 14.7234L26.0647 16.7855H23.6396L28.2539 6.01782H30.3956L34.9938 16.7859H32.5834L31.7488 14.7238L26.8994 14.7234ZM29.3098 8.74114L27.735 12.6613H30.9158L29.3098 8.74114Z" fill="black"/>
<path d="M48.6618 12.6449V16.7852H46.473V12.8339C46.473 11.6375 45.8903 10.992 44.8662 10.992C44.4094 10.992 43.9054 11.1966 43.4487 11.8265C43.4861 12.0978 43.5071 12.3711 43.5118 12.6449V16.7852H41.3239V12.8339C41.3239 11.6375 40.7412 10.992 39.7019 10.992C39.2789 10.992 38.8041 11.2456 38.3634 11.8421V16.7852H36.1748V9.24437H38.3634V9.70093C38.8359 9.26001 39.3399 9.00806 40.2215 9.00806C41.1823 9.00806 42.0322 9.38599 42.6318 10.0784C43.4352 9.33865 44.1909 9.00806 45.3719 9.00806C47.213 9.00806 48.6618 10.4407 48.6618 12.6449Z" fill="black"/>
<path d="M58.2819 13.0219C58.2819 15.2101 56.6129 16.9416 54.5341 16.9416C53.6838 16.9416 52.975 16.7214 52.3928 16.3435V20.4208H50.2041V9.24345H52.3928V9.68436C52.9755 9.30643 53.6842 9.08618 54.5341 9.08618C56.6125 9.0866 58.2819 10.8025 58.2819 13.0219ZM56.1254 13.0219C56.1254 11.9042 55.3067 10.9281 54.1726 10.9281C53.5269 10.9281 52.8812 11.1483 52.3933 11.8095V14.2191C52.8812 14.8646 53.5269 15.0849 54.1726 15.0849C55.3072 15.0837 56.1254 14.124 56.1254 13.0219Z" fill="black"/>
<path d="M61.6983 16.7846H59.5098V5.60767H61.6983V16.7846Z" fill="black"/>
<path d="M63.6699 6.58427C63.6699 5.84447 64.2527 5.29321 64.9926 5.29321C65.7169 5.29321 66.2995 5.84278 66.2995 6.58427C66.2995 7.30843 65.7169 7.84362 64.9926 7.84362C64.2527 7.84362 63.6699 7.30843 63.6699 6.58427ZM66.0949 9.2446V16.7856H63.9063V9.2446H66.0949Z" fill="black"/>
<path d="M74.0443 16.6755C73.1309 16.9588 72.7216 17.0218 72.0146 17.0218C70.1879 17.0218 68.9913 15.7307 68.9913 13.7789V11.0869H67.4014V9.24501H68.9917V6.55298H71.1647V9.24501H73.8886V11.0869H71.1647V13.7633C71.1647 14.6134 71.6844 15.007 72.4874 15.007C72.8966 15.007 73.3377 14.9127 73.7626 14.8024L74.0443 16.6755Z" fill="black"/>
<path d="M82.8339 16.7846H80.6451V16.2494C80.0311 16.7373 79.3381 17.0209 78.4886 17.0209C76.5045 17.0209 75.1819 15.5883 75.1819 13.4002V9.24414H77.3705V13.1955C77.3705 14.3919 77.9689 15.0374 78.9926 15.0374C79.5423 15.0374 80.142 14.7069 80.646 14.093V9.24414H82.8347L82.8339 16.7846Z" fill="black"/>
<path d="M92.1232 16.7845H89.9345V16.3437C89.3518 16.7216 88.6431 16.9418 87.7928 16.9418C85.7139 16.9418 84.0293 15.2259 84.0293 13.0061C84.0293 10.818 85.7144 9.086 87.7928 9.086C88.6431 9.086 89.3518 9.30625 89.9345 9.68418V5.60767H92.1232V16.7845ZM89.934 14.219V11.8093C89.4461 11.1638 88.8003 10.9435 88.1547 10.9435C87.0054 10.9435 86.2019 11.904 86.2019 13.0057C86.2019 14.1234 87.0054 15.0995 88.1547 15.0995C88.7991 15.1003 89.4461 14.8801 89.934 14.219Z" fill="black"/>
<path d="M101.003 13.5734H95.4446C95.618 14.4549 96.2007 15.1477 97.3973 15.1477C98.0113 15.1477 98.4365 14.9587 98.6727 14.5809H100.956C100.547 16.0292 99.1294 17.0209 97.35 17.0209C94.9249 17.0209 93.2871 15.2737 93.2871 13.0221C93.2871 10.6924 94.9092 9.0061 97.287 9.0061C99.4436 9.0061 101.05 10.5331 101.05 12.8632C101.054 13.1009 101.038 13.3383 101.003 13.5734ZM95.4603 12.2823H98.8774C98.7506 11.338 98.1844 10.8184 97.3027 10.8184C96.2476 10.8184 95.6649 11.4322 95.4603 12.2823Z" fill="black"/>
</g>
</g>
<defs>
<clipPath id="clip0_1326_290">
<rect width="101.053" height="21.0526" fill="white" transform="translate(0 0.801025)"/>
</clipPath>
</defs>
</svg>
