<svg width="118" height="47" viewBox="0 0 118 47" fill="none" xmlns="http://www.w3.org/2000/svg">
<rect width="118" height="47" fill="#171717"/>
<g clip-path="url(#clip0_1904_1216)">
<path d="M29.2962 29.2514C29.0662 29.0813 28.9562 28.7912 29.0162 28.501C29.5763 25.9296 33.1868 13.5527 51.5796 9.8407C70.2724 6.07862 85.9647 16.0541 88.6751 17.9051C88.9352 18.0852 89.0552 18.3954 88.9752 18.6956C88.3151 21.3671 84.3645 33.914 67.2519 37.1458C48.6691 40.6677 33.5569 32.3631 29.2962 29.2514Z" fill="white"/>
<path d="M65.642 23.3572C64.9419 23.3572 64.3418 23.6373 63.9317 24.1576C63.5416 24.6479 63.3416 25.3182 63.3416 26.1087C63.3416 27.7896 64.2718 28.8402 65.752 28.8402C66.5621 28.8402 67.3022 28.5 67.7123 27.9397C67.7723 27.8596 67.7723 27.7796 67.7023 27.7096L67.4222 27.4094C67.3822 27.3694 67.3422 27.3494 67.2922 27.3494C67.2422 27.3494 67.2022 27.3694 67.1622 27.4094C66.7921 27.7796 66.3621 27.9697 65.862 27.9697C65.4319 27.9697 65.0819 27.8396 64.8318 27.5795C64.5518 27.2893 64.3918 26.8491 64.3818 26.2988H67.5923C67.7023 26.2988 67.7723 26.2287 67.7723 26.1287C67.8323 25.2282 67.6223 24.4778 67.1622 23.9875C66.7821 23.5673 66.2521 23.3572 65.642 23.3572ZM65.632 24.2377C65.952 24.2377 66.212 24.3377 66.4021 24.5278C66.6121 24.7379 66.7321 25.0581 66.7621 25.4483H64.4018C64.5018 24.6179 65.0619 24.2377 65.632 24.2377ZM58.8209 23.7374L58.5409 24.2477C58.4909 24.3377 58.4309 24.3577 58.3409 24.3377C58.1908 24.2977 58.0408 24.2777 57.9008 24.2777C57.3007 24.2777 56.6606 24.7279 56.6606 25.9086V28.5901C56.6606 28.7001 56.5806 28.7702 56.4806 28.7702H55.8005C55.7005 28.7702 55.6205 28.7001 55.6205 28.5901V25.8085C55.6205 24.6879 55.4504 24.0275 55.0304 23.6373C54.9804 23.5873 54.9204 23.5573 54.9304 23.4872C54.9504 23.4072 55.0504 23.3772 55.1304 23.3672C55.7005 23.3171 56.1905 23.7074 56.4206 24.2276C56.7706 23.6773 57.3507 23.3572 58.0408 23.3572C58.2809 23.3572 58.5109 23.3972 58.7309 23.4672C58.8009 23.4872 58.8409 23.5173 58.8609 23.5673C58.8609 23.6273 58.8409 23.6873 58.8209 23.7374ZM62.9016 27.1893C62.9016 27.6896 62.7115 28.0998 62.3615 28.3799C62.0114 28.6701 61.4813 28.8302 60.8612 28.8302C59.9611 28.8302 59.201 28.53 58.7109 28.0197C58.6509 27.9497 58.6409 27.8596 58.7109 27.7696L59.031 27.4194C59.111 27.3294 59.191 27.3394 59.271 27.4094C59.7011 27.7596 60.2412 27.9397 60.8312 27.9397C61.5113 27.9397 61.8714 27.6695 61.8714 27.2393C61.8714 26.9792 61.7414 26.7891 61.4713 26.669C61.1013 26.4989 60.5112 26.4589 59.9511 26.2888C59.261 26.0887 58.8609 25.6684 58.8609 24.9781C58.8609 24.5378 59.061 24.1176 59.431 23.8074C59.8011 23.4972 60.2512 23.3472 60.8512 23.3472C61.6014 23.3472 62.2615 23.6073 62.7315 24.0275C62.7715 24.0676 62.7915 24.1076 62.7915 24.1576C62.7915 24.2076 62.7815 24.2477 62.7415 24.2877L62.4215 24.6379C62.3615 24.7079 62.2615 24.7179 62.1914 24.6579C61.8514 24.3877 61.3713 24.2276 60.8912 24.2276C60.2512 24.2276 59.8911 24.4778 59.8911 24.898C59.8911 25.1582 60.0811 25.3082 60.3812 25.4083C60.8712 25.5584 61.4513 25.5784 61.9914 25.8085C62.6115 26.0587 62.9016 26.5389 62.9016 27.1893ZM72.763 23.6673C72.743 23.7174 71.0728 28.1198 70.8727 28.6301C70.4927 29.6006 70.2927 30.0509 69.7826 30.5011C69.1625 31.0514 68.2524 31.1415 67.6223 31.0514C67.5623 31.0414 67.5122 31.0214 67.4822 30.9714C67.4522 30.9313 67.4522 30.8713 67.4722 30.8013L67.6223 30.381C67.6523 30.291 67.7223 30.251 67.8123 30.261C68.3024 30.301 68.7224 30.1909 69.0725 29.9208C69.3525 29.7007 69.5926 29.3505 69.7626 28.8202L67.8023 23.6673C67.7823 23.6073 67.7823 23.5473 67.8123 23.4972C67.8423 23.4472 67.9123 23.4272 67.9723 23.4272H68.7024C68.8024 23.4272 68.8424 23.4772 68.8724 23.5473L70.3127 27.4494L71.7529 23.5473C71.7729 23.4872 71.8229 23.4272 71.9229 23.4272H72.593C72.663 23.4272 72.713 23.4472 72.753 23.4972C72.783 23.5473 72.783 23.6173 72.763 23.6673ZM45.909 28.45C45.929 28.54 45.919 28.58 45.839 28.6401C45.669 28.7601 45.4189 28.8302 45.1689 28.8302C44.6988 28.8302 44.1387 28.6401 44.1387 27.7296V23.6073C44.1387 23.4972 44.2187 23.4272 44.3188 23.4272H45.0089C45.1189 23.4272 45.1889 23.5072 45.1889 23.6073V27.5095C45.1889 27.7496 45.2389 27.9097 45.3389 28.0097C45.4089 28.0798 45.5389 28.1198 45.699 28.1098C45.769 28.1098 45.799 28.1098 45.829 28.1298C45.859 28.1498 45.869 28.1898 45.879 28.2499L45.909 28.45ZM42.4485 22.0364C43.1586 22.7168 43.4986 23.6673 43.4986 24.938C43.4986 26.2087 43.2386 27.0992 42.6485 27.7696C42.0384 28.46 41.1983 28.7702 39.8881 28.7702H37.9178C37.8078 28.7702 37.7378 28.7001 37.7378 28.5901V22.8369C37.7378 22.4767 38.0778 22.4267 38.5979 22.3866C38.6579 22.3866 38.7079 22.3866 38.7479 22.4267C38.7779 22.4567 38.7979 22.5067 38.7979 22.5667V27.8496H39.7881C40.7282 27.8496 41.3383 27.6395 41.7784 27.1292C42.1584 26.689 42.3985 25.9886 42.3985 24.938C42.3985 24.0175 42.1584 23.2871 41.6884 22.7668C41.1583 22.1865 40.3382 21.8964 39.258 21.8964C38.918 21.8964 38.3879 21.9264 37.9278 22.0164C37.8778 22.0264 37.8178 22.0264 37.7678 21.9964C37.7178 21.9564 37.7178 21.8964 37.7178 21.8463V21.4761C37.7178 21.3561 37.7678 21.286 37.8778 21.256C38.3779 21.1059 38.908 21.0459 39.5881 21.0459C40.8582 21.0459 41.7484 21.3661 42.4485 22.0364ZM43.9487 21.9164C43.9487 21.5362 44.2688 21.236 44.6488 21.236C45.0289 21.236 45.3489 21.5462 45.3489 21.9164C45.3489 22.2866 45.0289 22.5967 44.6488 22.5967C44.2688 22.6067 43.9487 22.2966 43.9487 21.9164ZM47.8793 28.7902C47.6093 28.7902 47.4992 28.7301 47.3892 28.45L45.579 23.6673C45.5589 23.6173 45.5589 23.5473 45.589 23.5072C45.619 23.4572 45.679 23.4372 45.749 23.4372H46.4791C46.5591 23.4372 46.6191 23.4872 46.6491 23.5573L48.0893 27.4694L49.5295 23.5573C49.5595 23.4872 49.6296 23.4372 49.6996 23.4372H50.3697C50.4397 23.4372 50.4997 23.4572 50.5297 23.5072C50.5597 23.5573 50.5697 23.6173 50.5397 23.6873L48.7294 28.46C48.6194 28.7401 48.5094 28.8002 48.2394 28.8002H47.8793V28.7902ZM52.75 23.3672C52.0499 23.3672 51.4498 23.6473 51.0398 24.1676C50.6497 24.6579 50.4497 25.3283 50.4497 26.1187C50.4497 27.7996 51.3798 28.8502 52.86 28.8502C53.6702 28.8502 54.4103 28.51 54.8203 27.9497C54.8803 27.8697 54.8803 27.7896 54.8103 27.7196L54.5303 27.4194C54.4903 27.3794 54.4503 27.3594 54.4003 27.3594C54.3503 27.3594 54.3103 27.3794 54.2703 27.4194C53.9002 27.7896 53.4701 27.9797 52.9701 27.9797C52.54 27.9797 52.1899 27.8496 51.9399 27.5895C51.6599 27.2993 51.4998 26.8591 51.4898 26.3088H54.7003C54.8103 26.3088 54.8703 26.2388 54.8804 26.1387C54.9404 25.2382 54.7303 24.4878 54.2703 23.9975C53.8902 23.5673 53.3601 23.3672 52.75 23.3672ZM52.74 24.2377C53.0601 24.2377 53.3201 24.3377 53.5101 24.5278C53.7202 24.7379 53.8402 25.0581 53.8702 25.4483H51.5198C51.6099 24.6179 52.1699 24.2377 52.74 24.2377ZM71.0228 16.8035C71.0128 16.7235 71.0328 16.6935 71.1128 16.7035C72.683 16.7335 74.0832 17.2438 74.9434 18.2844C74.9934 18.3444 74.9134 18.4344 74.8433 18.3744C73.8232 17.584 72.703 17.1938 71.4928 17.1437C71.5228 17.594 71.6529 18.2443 71.9629 18.8747C72.0029 18.9547 71.8829 19.0148 71.8429 18.9547C71.4428 18.4344 71.1228 17.654 71.0228 16.8035ZM74.4533 21.8063C72.0929 21.8663 70.9028 20.9758 70.1826 19.9253C71.1128 19.5951 72.583 19.425 74.0732 19.9253C74.1532 19.9553 74.2032 19.8452 74.1432 19.8052C72.883 19.0248 70.9628 19.1448 69.6526 19.6851C69.5726 19.7152 69.5626 19.7552 69.6126 19.8352C70.8827 21.9364 72.8931 22.2566 74.4733 21.9564C74.5533 21.9364 74.5533 21.8063 74.4533 21.8063ZM85.1149 20.5556C85.0549 20.4956 84.9949 20.4556 84.9349 20.4155C83.9447 19.7352 82.7445 19.3149 81.4543 19.2249C81.1043 19.1949 81.0243 19.1048 80.5842 18.7246C80.0341 18.2543 79.514 18.0742 78.8639 18.0943C78.2839 18.1143 77.7038 18.3744 77.2937 18.6746C76.6536 16.7835 75.2834 15.2827 73.6832 14.4122C73.6232 14.3822 73.5932 14.4022 73.5832 14.4623C73.3831 15.0626 73.3631 16.0932 73.5031 16.8736C73.5231 16.9636 73.6532 16.9536 73.6532 16.8636C73.6632 16.0631 73.7332 15.3327 73.8832 15.0126C75.2534 15.863 76.3536 17.2238 76.9337 18.8447C76.9937 19.0048 77.0337 19.1649 77.0737 19.3249L77.0837 19.3149C77.6638 18.8347 78.2839 18.5145 78.934 18.5045C79.8041 18.4945 80.2042 18.9347 80.6042 19.2249C79.5441 19.2749 78.2339 19.7452 77.2837 20.3455C77.6238 22.987 76.4136 25.3283 74.4133 26.3688C74.3233 24.3577 75.0534 21.6762 76.2536 20.1154C76.3036 20.0453 76.2035 19.9553 76.1335 20.0253C74.5333 21.6162 73.7532 24.4378 74.0132 26.8691C74.0232 26.9792 74.0532 26.9892 74.1532 26.9491C76.5936 25.9986 78.0138 23.4772 77.7338 20.5556C78.5839 20.0954 79.7441 19.6051 81.1243 19.5851C82.4445 19.5651 83.6547 19.8852 84.8548 20.5556C84.9249 20.5956 84.9849 20.6257 85.0449 20.6657C85.1049 20.7157 85.1849 20.6257 85.1149 20.5556Z" fill="#171717"/>
<path d="M84.1339 11.8818C84.1239 11.9318 84.0939 11.9318 84.0639 11.9318H83.6439V13.3225C83.6439 13.3626 83.6239 13.3926 83.5739 13.3926H83.3938C83.3438 13.3926 83.3238 13.3726 83.3238 13.3225V11.9318H82.9038C82.8638 11.9318 82.8438 11.9218 82.8438 11.8818V11.7517C82.8438 11.7117 82.8638 11.6916 82.8938 11.6916H84.0839C84.1239 11.6916 84.1439 11.7017 84.1439 11.7317V11.7517L84.1339 11.8818ZM85.9542 13.3926H85.7842C85.7342 13.3926 85.7142 13.3626 85.7142 13.3125L85.6942 12.262L85.2641 13.3526C85.2541 13.3926 85.2241 13.3926 85.2041 13.3926H85.1041C85.0741 13.3926 85.0541 13.3826 85.0341 13.3426L84.564 12.252L84.554 13.3326C84.554 13.3826 84.534 13.3926 84.484 13.3926H84.324C84.284 13.3926 84.274 13.3726 84.274 13.3326V13.3225L84.314 11.7517C84.314 11.7017 84.334 11.6816 84.374 11.6816H84.524C84.574 11.6816 84.594 11.7017 84.604 11.7317L85.1541 12.9924L85.6742 11.7317C85.6842 11.6916 85.6942 11.6816 85.7442 11.6816H85.9042C85.9442 11.6816 85.9642 11.7017 85.9642 11.7417L86.0142 13.3125V13.3225C86.0242 13.3726 86.0042 13.3926 85.9542 13.3926Z" fill="white"/>
</g>
<defs>
<clipPath id="clip0_1904_1216">
<rect width="60" height="29" fill="white" transform="translate(29 9)"/>
</clipPath>
</defs>
</svg>
