<svg width="118" height="47" viewBox="0 0 118 47" fill="none" xmlns="http://www.w3.org/2000/svg">
<rect width="118" height="47" fill="#171717"/>
<g clip-path="url(#clip0_1904_1216)">
<path d="M38.2083 27.2332C38.0465 27.1137 37.9692 26.9097 38.0114 26.7058C38.4052 24.8986 40.9438 16.1998 53.8759 13.5909C67.019 10.9468 78.0524 17.9578 79.9581 19.2588C80.1409 19.3854 80.2253 19.6033 80.1691 19.8143C79.7049 21.6919 76.9272 30.5102 64.8953 32.7816C51.8295 35.2569 41.204 29.4202 38.2083 27.2332Z" fill="white"/>
<path d="M63.7626 23.0914C63.2704 23.0914 62.8485 23.2883 62.5602 23.6539C62.2859 23.9985 62.1453 24.4697 62.1453 25.0252C62.1453 26.2066 62.7992 26.945 63.84 26.945C64.4096 26.945 64.93 26.7059 65.2183 26.3121C65.2605 26.2558 65.2605 26.1996 65.2113 26.1503L65.0144 25.9394C64.9862 25.9112 64.9581 25.8972 64.923 25.8972C64.8878 25.8972 64.8597 25.9112 64.8315 25.9394C64.5713 26.1996 64.269 26.3332 63.9174 26.3332C63.615 26.3332 63.3688 26.2417 63.193 26.0589C62.9961 25.855 62.8836 25.5456 62.8766 25.1588H65.1339C65.2113 25.1588 65.2605 25.1096 65.2605 25.0393C65.3027 24.4064 65.155 23.879 64.8315 23.5344C64.5643 23.239 64.1916 23.0914 63.7626 23.0914ZM63.7556 23.7102C63.9806 23.7102 64.1635 23.7805 64.2971 23.9141C64.4448 24.0618 64.5292 24.2868 64.5502 24.5611H62.8907C62.961 23.9774 63.3548 23.7102 63.7556 23.7102ZM58.9667 23.3586L58.7698 23.7172C58.7347 23.7805 58.6925 23.7946 58.6292 23.7805C58.5237 23.7524 58.4182 23.7383 58.3198 23.7383C57.8978 23.7383 57.4478 24.0548 57.4478 24.8845V26.7692C57.4478 26.8465 57.3915 26.8957 57.3212 26.8957H56.843C56.7727 26.8957 56.7164 26.8465 56.7164 26.7692V24.8142C56.7164 24.0266 56.5969 23.5625 56.3015 23.2883C56.2664 23.2531 56.2242 23.232 56.2312 23.1828C56.2453 23.1265 56.3156 23.1054 56.3719 23.0984C56.7727 23.0632 57.1173 23.3375 57.279 23.7031C57.5251 23.3164 57.933 23.0914 58.4182 23.0914C58.587 23.0914 58.7487 23.1195 58.9034 23.1687C58.9527 23.1828 58.9808 23.2039 58.9949 23.239C58.9949 23.2812 58.9808 23.3234 58.9667 23.3586ZM61.8358 25.7847C61.8358 26.1363 61.7022 26.4246 61.4561 26.6215C61.21 26.8254 60.8373 26.9379 60.4013 26.9379C59.7684 26.9379 59.2339 26.727 58.8894 26.3683C58.8472 26.3191 58.8401 26.2558 58.8894 26.1925L59.1144 25.9464C59.1707 25.8831 59.2269 25.8901 59.2832 25.9394C59.5856 26.1855 59.9653 26.3121 60.3802 26.3121C60.8584 26.3121 61.1115 26.1222 61.1115 25.8198C61.1115 25.637 61.0201 25.5034 60.8302 25.419C60.5701 25.2994 60.1552 25.2713 59.7614 25.1518C59.2761 25.0111 58.9949 24.7158 58.9949 24.2306C58.9949 23.9211 59.1355 23.6258 59.3957 23.4078C59.6559 23.1898 59.9723 23.0843 60.3943 23.0843C60.9217 23.0843 61.3858 23.2672 61.7163 23.5625C61.7444 23.5906 61.7585 23.6188 61.7585 23.6539C61.7585 23.6891 61.7515 23.7172 61.7233 23.7453L61.4983 23.9915C61.4561 24.0407 61.3858 24.0477 61.3366 24.0055C61.0975 23.8157 60.7599 23.7031 60.4224 23.7031C59.9723 23.7031 59.7192 23.879 59.7192 24.1743C59.7192 24.3571 59.8528 24.4626 60.0637 24.5329C60.4083 24.6384 60.8162 24.6525 61.1959 24.8142C61.6319 24.99 61.8358 25.3276 61.8358 25.7847ZM68.7695 23.3093C68.7555 23.3445 67.5811 26.4387 67.4405 26.7973C67.1732 27.4794 67.0326 27.7959 66.674 28.1123C66.238 28.4991 65.598 28.5624 65.155 28.4991C65.1128 28.492 65.0777 28.478 65.0566 28.4428C65.0355 28.4147 65.0355 28.3725 65.0495 28.3233L65.155 28.0279C65.1761 27.9646 65.2253 27.9365 65.2886 27.9435C65.6332 27.9717 65.9285 27.8943 66.1747 27.7044C66.3716 27.5497 66.5403 27.3036 66.6599 26.9309L65.2816 23.3093C65.2675 23.2672 65.2675 23.225 65.2886 23.1898C65.3097 23.1546 65.3589 23.1406 65.4011 23.1406H65.9145C65.9848 23.1406 66.0129 23.1757 66.034 23.225L67.0467 25.9675L68.0593 23.225C68.0734 23.1828 68.1085 23.1406 68.1788 23.1406H68.65C68.6992 23.1406 68.7344 23.1546 68.7625 23.1898C68.7836 23.225 68.7836 23.2742 68.7695 23.3093ZM49.8882 26.6707C49.9023 26.734 49.8953 26.7621 49.839 26.8043C49.7195 26.8887 49.5437 26.9379 49.3679 26.9379C49.0373 26.9379 48.6435 26.8043 48.6435 26.1644V23.2672C48.6435 23.1898 48.6998 23.1406 48.7701 23.1406H49.2553C49.3327 23.1406 49.3819 23.1968 49.3819 23.2672V26.0097C49.3819 26.1785 49.4171 26.291 49.4874 26.3613C49.5366 26.4105 49.628 26.4387 49.7406 26.4316C49.7898 26.4316 49.8109 26.4316 49.832 26.4457C49.8531 26.4597 49.8601 26.4879 49.8671 26.5301L49.8882 26.6707ZM47.4551 22.1631C47.9544 22.6413 48.1935 23.3093 48.1935 24.2024C48.1935 25.0955 48.0106 25.7214 47.5958 26.1925C47.1668 26.6777 46.5761 26.8957 45.6549 26.8957H44.2695C44.1922 26.8957 44.143 26.8465 44.143 26.7692V22.7257C44.143 22.4725 44.3821 22.4374 44.7477 22.4092C44.7899 22.4092 44.8251 22.4092 44.8532 22.4374C44.8743 22.4585 44.8884 22.4936 44.8884 22.5358V26.2488H45.5846C46.2456 26.2488 46.6745 26.1011 46.984 25.7425C47.2512 25.4331 47.4199 24.9408 47.4199 24.2024C47.4199 23.5555 47.2512 23.0421 46.9207 22.6765C46.548 22.2686 45.9713 22.0647 45.2119 22.0647C44.9728 22.0647 44.6001 22.0858 44.2766 22.149C44.2414 22.1561 44.1992 22.1561 44.1641 22.135C44.1289 22.1069 44.1289 22.0647 44.1289 22.0295V21.7693C44.1289 21.6849 44.1641 21.6357 44.2414 21.6146C44.593 21.5091 44.9657 21.4669 45.4439 21.4669C46.337 21.4669 46.9629 21.692 47.4551 22.1631ZM48.5099 22.0787C48.5099 21.8115 48.735 21.6005 49.0022 21.6005C49.2694 21.6005 49.4944 21.8185 49.4944 22.0787C49.4944 22.3389 49.2694 22.5569 49.0022 22.5569C48.735 22.5639 48.5099 22.3459 48.5099 22.0787ZM51.2736 26.9098C51.0837 26.9098 51.0063 26.8676 50.929 26.6707L49.6562 23.3093C49.6421 23.2742 49.6421 23.225 49.6632 23.1968C49.6843 23.1617 49.7265 23.1476 49.7757 23.1476H50.2891C50.3453 23.1476 50.3875 23.1828 50.4086 23.232L51.4212 25.9816L52.4339 23.232C52.455 23.1828 52.5042 23.1476 52.5534 23.1476H53.0246C53.0738 23.1476 53.116 23.1617 53.1371 23.1968C53.1582 23.232 53.1652 23.2742 53.1441 23.3234L51.8713 26.6777C51.7939 26.8746 51.7166 26.9168 51.5267 26.9168H51.2736V26.9098ZM54.6982 23.0984C54.206 23.0984 53.784 23.2953 53.4957 23.661C53.2215 24.0055 53.0808 24.4767 53.0808 25.0322C53.0808 26.2136 53.7348 26.952 54.7756 26.952C55.3452 26.952 55.8656 26.7129 56.1539 26.3191C56.1961 26.2628 56.1961 26.2066 56.1468 26.1574L55.9499 25.9464C55.9218 25.9183 55.8937 25.9042 55.8585 25.9042C55.8234 25.9042 55.7952 25.9183 55.7671 25.9464C55.5069 26.2066 55.2045 26.3402 54.8529 26.3402C54.5505 26.3402 54.3044 26.2488 54.1286 26.0659C53.9317 25.862 53.8192 25.5526 53.8122 25.1658H56.0695C56.1468 25.1658 56.189 25.1166 56.1961 25.0463C56.2383 24.4134 56.0906 23.886 55.7671 23.5414C55.4999 23.239 55.1272 23.0984 54.6982 23.0984ZM54.6912 23.7102C54.9162 23.7102 55.099 23.7805 55.2327 23.9141C55.3803 24.0618 55.4647 24.2868 55.4858 24.5611H53.8333C53.8966 23.9774 54.2904 23.7102 54.6912 23.7102ZM67.5459 18.4853C67.5389 18.429 67.553 18.4079 67.6092 18.415C68.7133 18.4361 69.6978 18.7947 70.3025 19.5261C70.3377 19.5682 70.2814 19.6315 70.2322 19.5893C69.5149 19.0338 68.7273 18.7596 67.8764 18.7244C67.8975 19.0408 67.989 19.4979 68.207 19.9409C68.2351 19.9972 68.1507 20.0394 68.1226 19.9972C67.8413 19.6315 67.6163 19.083 67.5459 18.4853ZM69.958 22.0014C68.2984 22.0436 67.4616 21.4177 66.9552 20.6793C67.6092 20.4473 68.643 20.3277 69.6907 20.6793C69.747 20.7004 69.7822 20.6231 69.74 20.5949C68.8539 20.0464 67.5037 20.1308 66.5825 20.5106C66.5263 20.5317 66.5192 20.5598 66.5544 20.616C67.4475 22.0928 68.861 22.3178 69.972 22.1069C70.0283 22.0928 70.0283 22.0014 69.958 22.0014ZM77.4542 21.1224C77.412 21.0802 77.3698 21.052 77.3277 21.0239C76.6315 20.5457 75.7876 20.2504 74.8805 20.1871C74.6343 20.166 74.5781 20.1027 74.2687 19.8355C73.8819 19.505 73.5162 19.3784 73.0591 19.3924C72.6513 19.4065 72.2434 19.5893 71.9551 19.8003C71.505 18.4712 70.5416 17.4164 69.4165 16.8046C69.3743 16.7835 69.3532 16.7976 69.3462 16.8398C69.2055 17.2617 69.1915 17.986 69.2899 18.5345C69.304 18.5978 69.3954 18.5908 69.3954 18.5275C69.4024 17.9649 69.4517 17.4516 69.5571 17.2265C70.5205 17.8243 71.2941 18.7806 71.7019 19.9199C71.7441 20.0324 71.7723 20.1449 71.8004 20.2574L71.8074 20.2504C72.2153 19.9128 72.6513 19.6878 73.1084 19.6808C73.7202 19.6737 74.0014 19.9831 74.2827 20.1871C73.5373 20.2222 72.6161 20.5527 71.9481 20.9747C72.1872 22.8312 71.3363 24.4767 69.9298 25.208C69.8665 23.7946 70.3799 21.91 71.2238 20.8129C71.2589 20.7637 71.1886 20.7004 71.1394 20.7496C70.0142 21.8678 69.4657 23.8508 69.6486 25.5596C69.6556 25.637 69.6767 25.644 69.747 25.6159C71.4628 24.9478 72.4614 23.1757 72.2645 21.1224C72.8622 20.7989 73.678 20.4543 74.6484 20.4402C75.5766 20.4262 76.4275 20.6512 77.2714 21.1224C77.3206 21.1505 77.3628 21.1716 77.405 21.1997C77.4472 21.2349 77.5035 21.1716 77.4542 21.1224Z" fill="#171717"/>
<path d="M76.7655 15.0254C76.7585 15.0606 76.7374 15.0606 76.7163 15.0606H76.421V16.038C76.421 16.0662 76.4069 16.0873 76.3717 16.0873H76.2452C76.21 16.0873 76.1959 16.0732 76.1959 16.038V15.0606H75.9006C75.8725 15.0606 75.8584 15.0535 75.8584 15.0254V14.934C75.8584 14.9059 75.8725 14.8918 75.8936 14.8918H76.7304C76.7585 14.8918 76.7726 14.8988 76.7726 14.9199V14.934L76.7655 15.0254ZM78.0454 16.0873H77.9259C77.8907 16.0873 77.8766 16.0662 77.8766 16.031L77.8626 15.2926L77.5602 16.0591C77.5531 16.0873 77.5321 16.0873 77.518 16.0873H77.4477C77.4266 16.0873 77.4125 16.0802 77.3984 16.0521L77.0679 15.2856L77.0609 16.0451C77.0609 16.0802 77.0468 16.0873 77.0117 16.0873H76.8992C76.871 16.0873 76.864 16.0732 76.864 16.0451V16.038L76.8921 14.934C76.8921 14.8988 76.9062 14.8848 76.9343 14.8848H77.0398C77.075 14.8848 77.089 14.8988 77.0961 14.9199L77.4828 15.806L77.8485 14.9199C77.8555 14.8918 77.8626 14.8848 77.8977 14.8848H78.0102C78.0384 14.8848 78.0524 14.8988 78.0524 14.927L78.0876 16.031V16.038C78.0946 16.0732 78.0806 16.0873 78.0454 16.0873Z" fill="white"/>
</g>
<defs>
<clipPath id="clip0_1904_1216">
<rect width="42.1865" height="20.382" fill="white" transform="translate(38 13)"/>
</clipPath>
</defs>
</svg>
