<svg width="119" height="14" viewBox="0 0 119 14" fill="none" xmlns="http://www.w3.org/2000/svg">
<g clip-path="url(#clip0_942_96)">
<mask id="mask0_942_96" style="mask-type:luminance" maskUnits="userSpaceOnUse" x="0" y="1" width="119" height="14">
<path d="M118.82 1.61377H0.924805V14.2453H118.82V1.61377Z" fill="white"/>
</mask>
<g mask="url(#mask0_942_96)">
<path d="M1.05733 1.96449C1.33543 1.48032 1.98051 1.60934 2.40912 1.80634C5.51837 3.09654 8.61615 4.42005 11.7096 5.74494C12.498 5.96414 12.1397 6.88671 12.1397 7.46245C10.4338 7.48049 8.72652 7.46246 7.01923 7.47633C6.54761 7.4569 5.98712 7.5568 5.63161 7.17528C4.22822 5.88507 2.87357 4.53936 1.50172 3.2228C1.17918 2.90093 0.706129 2.42647 1.06307 1.96449H1.05733ZM21.38 2.4889C22.1312 2.19617 22.8493 1.79524 23.6463 1.62737C24.1452 1.52471 24.3631 2.02692 24.6067 2.33629C23.5517 3.84709 22.0351 4.97221 20.7506 6.29571C20.1931 6.77434 19.7027 7.56789 18.8513 7.47494C17.0093 7.47494 15.1672 7.46384 13.3223 7.47494C13.2047 6.94082 12.9123 6.09733 13.5946 5.81015C16.1749 4.68365 18.7825 3.59044 21.38 2.49306V2.4889ZM36.6395 2.71504C36.7828 2.37653 37.1799 2.50416 37.4681 2.46948C39.9996 2.48474 42.5297 2.46948 45.0656 2.47919C46.6424 2.50416 48.0874 3.72777 48.2895 5.24412C48.5977 6.99076 47.114 8.80261 45.2792 8.88169C43.1175 8.92608 40.9528 8.85255 38.7926 8.90944C38.3712 10.0193 38.8585 11.3248 38.546 12.4873C37.9827 12.9036 37.3391 13.3267 36.6022 13.3572C36.6022 11.433 36.6223 9.50737 36.6123 7.58315C36.5864 7.31817 36.651 6.87146 37.0423 6.9436C39.6556 6.9103 42.2717 6.95886 44.8849 6.92833C45.5272 6.96302 46.2166 6.4941 46.2382 5.84067C46.3815 5.07903 45.6647 4.40619 44.8964 4.43254C42.1727 4.38399 39.4492 4.47832 36.7399 4.39231C36.5305 3.86235 36.5965 3.26996 36.6453 2.71504H36.6395ZM59.9438 13.3474C59.931 9.72379 59.8879 6.09733 59.9667 2.47503C63.8759 2.4889 67.7893 2.44589 71.6984 2.49584C71.4877 3.17146 71.2211 3.94559 70.6319 4.37982C67.7492 4.48248 64.8506 4.39786 61.9622 4.41867C61.9464 5.25106 61.9478 6.1001 61.9521 6.94221C64.7733 6.93388 67.5953 6.93388 70.4183 6.94221C70.4585 7.58731 70.4599 8.23658 70.4384 8.88446C67.6087 8.91221 64.7819 8.88446 61.9521 8.89833C61.9521 9.73073 61.9521 10.5631 61.9521 11.3955C64.6758 11.3858 67.3894 11.3955 70.1073 11.3955C71.1107 11.3372 71.2799 12.5525 71.7658 13.1658C71.5067 13.3164 71.2077 13.3902 70.9057 13.378C67.2518 13.3627 63.595 13.3974 59.9423 13.36L59.9438 13.3474ZM83.2954 2.55549C83.5821 2.26693 83.8574 2.6859 84.1139 2.79688C87.1601 5.06932 90.2235 7.31679 93.2625 9.59478C93.3069 7.57067 93.2052 5.5424 93.307 3.52384C93.7627 2.95227 94.5096 2.67619 95.1892 2.4237C95.3425 2.83989 95.311 3.28661 95.3153 3.72084C95.2866 6.82845 95.3354 9.94022 95.2923 13.0479C95.4027 13.5376 94.792 13.3891 94.5756 13.1629C91.4721 10.8614 88.3815 8.5418 85.2694 6.25132C85.2306 8.2893 85.3381 10.3342 85.2235 12.3681C84.7734 12.9229 83.9863 13.2684 83.2553 13.3863C83.2238 10.1622 83.2553 6.93805 83.2352 3.71252C83.2222 3.32497 83.2423 2.93705 83.2954 2.55272V2.55549ZM107.02 6.63839C107.584 4.24248 110.005 2.41537 112.546 2.48335C114.553 2.52219 116.553 2.40843 118.549 2.53884C118.529 3.24222 118.069 3.85264 117.631 4.3826C115.809 4.54075 113.967 4.32849 112.146 4.47693C110.653 4.65451 109.32 5.76575 108.993 7.1947C108.459 9.13695 110.108 11.2707 112.167 11.3844C113.716 11.4122 115.265 11.3844 116.815 11.3844C116.815 10.552 116.815 9.72795 116.815 8.89972C115.658 8.88307 114.498 8.92747 113.341 8.88862C112.844 8.94134 112.678 8.38225 112.447 8.06594C112.303 7.72327 111.925 7.37228 112.117 6.98105C113.998 6.88255 115.887 6.98105 117.773 6.93527C118.114 6.97967 118.558 6.82845 118.812 7.13088C118.864 9.19245 118.812 11.2582 118.831 13.3211C117.409 13.4168 115.985 13.353 114.564 13.3683C113.085 13.3474 111.517 13.5389 110.151 12.855C107.762 11.8478 106.331 9.08146 107.027 6.63561L107.02 6.63839ZM5.58861 8.69301C5.95558 8.30179 6.53328 8.40445 7.02211 8.38503C8.7423 8.41139 10.4539 8.36283 12.1683 8.41693C12.1841 8.9455 12.4808 9.7779 11.82 10.0456C9.13651 11.2124 6.43867 12.3459 3.74227 13.4876C3.03842 13.765 2.35464 14.148 1.59203 14.245C1.20785 14.1327 0.865248 13.7789 0.942657 13.3641C1.18205 12.8398 1.64794 12.4624 2.05361 12.0587C3.24484 10.9488 4.37443 9.77373 5.59577 8.69301H5.58861ZM13.2764 8.41554C15.064 8.38225 16.8602 8.41554 18.642 8.39334C19.0147 8.42109 19.4634 8.3448 19.7515 8.63196C21.0632 9.81813 22.3146 11.0639 23.5947 12.2806C23.9244 12.6247 24.3115 12.9438 24.4906 13.3905C24.5939 13.9926 23.8313 14.4614 23.2937 14.1397C20.0583 12.8494 16.8687 11.4455 13.6692 10.0762C12.9338 9.83201 13.2019 8.97325 13.2764 8.41832" fill="white"/>
</g>
</g>
<defs>
<clipPath id="clip0_942_96">
<rect width="117.895" height="12.6316" fill="white" transform="translate(0.920898 0.852051)"/>
</clipPath>
</defs>
</svg>
