<svg width="118" height="47" viewBox="0 0 118 47" fill="none" xmlns="http://www.w3.org/2000/svg">
<rect width="118" height="47" fill="#171717"/>
<path d="M38.5449 10.0001C38.5734 10.0001 38.602 10.0002 38.6314 10.0003C39.0473 10.002 39.4403 10.0208 39.8447 10.1256C39.8977 10.1373 39.9506 10.149 40.0036 10.1606C40.6853 10.3201 41.3384 10.6436 41.8903 11.0726C41.9221 11.0961 41.9539 11.1196 41.9866 11.1438C43.6077 12.3783 44.3952 14.4275 44.6716 16.3846C44.7275 16.8253 44.7406 17.2629 44.7409 17.7066C44.7409 17.7382 44.7409 17.7698 44.741 17.8024C44.7392 19.2168 44.5167 20.7739 43.595 21.9067C43.5694 21.9389 43.5438 21.9712 43.5174 22.0044C43.2972 22.2665 43.0476 22.4427 42.7616 22.6265C42.7241 22.6515 42.6866 22.6765 42.6479 22.7022C42.6942 22.6961 42.7404 22.69 42.7881 22.6838C42.9657 22.6604 43.1433 22.6371 43.3209 22.6138C43.4013 22.6033 43.4818 22.5927 43.5622 22.5821C44.3566 22.4775 44.3566 22.4775 44.7073 22.4394C46.0215 22.2961 47.3223 22.0418 48.6214 21.8002C51.7399 21.2209 51.7399 21.2209 52.8606 21.8792C53.1036 22.0535 53.3161 22.2868 53.3684 22.5886C53.4016 22.9656 53.3731 23.2477 53.134 23.5451C52.9993 23.6885 52.871 23.7721 52.6865 23.8387C52.657 23.8499 52.6274 23.8612 52.5969 23.8728C52.0598 24.0418 51.4481 23.9631 50.8966 23.9144C49.9204 23.83 48.9353 23.8768 47.9571 23.9008C47.4247 23.9138 46.8929 23.9195 46.3603 23.9144C46.3569 23.9484 46.3534 23.9825 46.3498 24.0175C46.3186 24.2345 46.2499 24.442 46.1872 24.6515C46.1736 24.6975 46.16 24.7436 46.146 24.7911C46.1097 24.9137 46.0733 25.0363 46.0368 25.1589C45.8189 25.8907 45.6075 26.6232 45.4133 27.3616C45.4608 27.3571 45.5083 27.3525 45.5572 27.3477C48.5061 27.0669 48.5061 27.0669 49.7697 27.3238C49.8198 27.3326 49.87 27.3413 49.9202 27.35C50.1593 27.3963 50.3297 27.4376 50.4894 27.6268C50.6259 27.8714 50.6382 28.1033 50.5652 28.3726C50.327 28.7671 49.7048 28.8696 49.2903 28.9793C48.0863 29.2715 46.7518 29.1077 45.5311 29.0191C45.4989 29.0168 45.4667 29.0145 45.4335 29.0122C45.2851 29.0009 45.1419 28.9867 44.9966 28.9527C44.9949 28.974 44.9932 28.9953 44.9915 29.0172C44.9665 29.2985 44.9193 29.5739 44.8686 29.8516C44.8593 29.9032 44.8499 29.9548 44.8406 30.0064C44.8153 30.1461 44.7897 30.2857 44.7641 30.4254C44.7479 30.5133 44.7318 30.6012 44.7157 30.6892C44.5411 31.6414 44.356 32.5915 44.164 33.5404C44.1444 33.6372 44.1249 33.7341 44.1054 33.8309C43.5392 36.6376 43.5392 36.6376 42.9131 37.0972C42.5599 37.3067 42.2208 37.4265 41.81 37.3365C41.3633 37.212 41.0104 36.9629 40.7783 36.5516C40.6474 36.2677 40.6313 36.0048 40.6284 35.6956C40.6273 35.6597 40.6262 35.6239 40.6251 35.587C40.6191 34.8847 40.841 34.2007 41.0451 33.5363C41.0691 33.4572 41.0931 33.3782 41.117 33.299C41.164 33.1441 41.2112 32.9893 41.2587 32.8345C41.3111 32.6634 41.3627 32.4921 41.414 32.3207C42.1824 29.7701 42.1824 29.7701 42.6479 28.839C42.3592 28.8356 42.0751 28.8343 41.7879 28.8685C41.645 28.8823 41.5034 28.8792 41.36 28.8769C41.3576 28.7506 41.3583 28.6244 41.36 28.4981C41.3589 28.4555 41.3589 28.4555 41.3578 28.4121C41.3608 28.3041 41.3755 28.2198 41.4492 28.1382C41.8747 27.8334 42.5613 27.8421 43.0646 27.7783C43.069 27.7523 43.0734 27.7262 43.0779 27.6993C43.106 27.5733 43.1479 27.4586 43.194 27.338C43.208 27.3012 43.208 27.3012 43.2222 27.2637C43.2532 27.1826 43.2844 27.1017 43.3156 27.0207C43.3264 26.9926 43.3372 26.9645 43.3483 26.9356C43.7449 25.9044 44.1589 24.8816 44.6178 23.8765C44.5868 23.8748 44.5557 23.873 44.5238 23.8712C44.2535 23.8534 43.9974 23.8213 43.7347 23.7558C43.7008 23.7475 43.667 23.7392 43.6322 23.7307C42.7051 23.4957 42.7051 23.4957 42.3828 23.2326C42.3112 23.0922 42.307 23.012 42.307 22.8537C42.2695 22.86 42.232 22.8662 42.1934 22.8727C41.435 22.9621 40.8456 22.8005 40.1856 22.437C40.1481 22.4167 40.1105 22.3963 40.0719 22.3753C39.9957 22.3335 39.92 22.2911 39.8447 22.2476C39.8391 22.2866 39.8391 22.2866 39.8335 22.3264C39.8015 22.4591 39.746 22.5723 39.6837 22.6927C39.6705 22.7187 39.6572 22.7446 39.6436 22.7713C39.6137 22.8297 39.5837 22.888 39.5536 22.9464C39.5003 23.0498 39.4479 23.1537 39.3955 23.2576C38.9582 24.1176 38.4597 24.9384 37.9374 25.749C37.8547 25.8779 37.7732 26.0075 37.6917 26.1371C37.6177 26.2549 37.5433 26.3723 37.4687 26.4897C37.4258 26.5574 37.3832 26.6253 37.3407 26.6932C36.993 27.2348 36.5438 27.8219 35.9041 28.021C35.4483 28.112 35.067 28.0434 34.6767 27.7958C34.5883 27.7314 34.5081 27.6631 34.4277 27.5889C34.4001 27.5639 34.3726 27.5388 34.3442 27.513C33.7449 26.9106 33.4538 25.95 33.1989 25.1598C33.1862 25.1209 33.1862 25.1209 33.1733 25.0813C33.026 24.6024 32.9621 24.1033 32.8987 23.6079C32.8862 23.5107 32.8734 23.4136 32.8605 23.3165C32.8524 23.2541 32.8443 23.1917 32.8362 23.1293C32.8324 23.1005 32.8286 23.0718 32.8247 23.0422C32.807 22.9028 32.7944 22.7671 32.7987 22.6265C32.7637 22.6186 32.7286 22.6107 32.6925 22.6026C32.5128 22.5617 32.3338 22.5185 32.1548 22.4749C32.116 22.4656 32.0773 22.4562 32.0374 22.4466C30.4292 22.0538 29.5244 21.1239 28.6697 19.7475C28.6538 19.7223 28.638 19.6972 28.6217 19.6713C28.4305 19.3677 28.2578 19.0652 28.1393 18.7247C28.1273 18.6908 28.1152 18.657 28.1028 18.6221C27.9307 18.0553 27.9774 17.3995 28.2222 16.8637C28.4506 16.4369 28.8178 16.0678 29.1621 15.732C29.1874 15.7064 29.2126 15.6807 29.2386 15.6543C29.3977 15.4931 29.5598 15.3395 29.7317 15.1921C29.8102 15.1223 29.8839 15.0492 29.9576 14.9744C30.0788 14.8515 30.2041 14.7364 30.3356 14.6246C30.3857 14.5808 30.4346 14.5354 30.4818 14.4884C31.3135 13.6797 32.8803 13.0045 34.0488 13.0045C34.0586 12.9784 34.0684 12.9522 34.0784 12.9252C34.3195 12.3503 34.7233 11.8626 35.1474 11.4135C35.1904 11.3669 35.1904 11.3669 35.2343 11.3193C36.1095 10.4012 37.2954 9.99381 38.5449 10.0001Z" fill="white"/>
<path d="M52.9518 21.9444C53.1957 22.1631 53.3499 22.3776 53.3788 22.7062C53.3903 23.0898 53.3276 23.3389 53.0631 23.6205C52.947 23.7256 52.8333 23.7856 52.6866 23.8385C52.657 23.8498 52.6274 23.8611 52.5969 23.8727C52.0599 24.0416 51.4482 23.963 50.8967 23.9143C49.9204 23.8299 48.9354 23.8767 47.9571 23.9007C47.4247 23.9136 46.893 23.9193 46.3604 23.9143C46.3569 23.9483 46.3535 23.9823 46.3499 24.0174C46.3187 24.2343 46.25 24.4418 46.1873 24.6513C46.1737 24.6974 46.16 24.7434 46.146 24.7909C46.1098 24.9136 46.0733 25.0362 46.0368 25.1587C45.819 25.8905 45.6076 26.623 45.4134 27.3615C45.4609 27.3569 45.5084 27.3523 45.5573 27.3476C48.5062 27.0668 48.5062 27.0668 49.7697 27.3236C49.8199 27.3324 49.87 27.3411 49.9202 27.3498C50.1594 27.3962 50.3297 27.4375 50.4895 27.6267C50.6259 27.8712 50.6383 28.1031 50.5652 28.3725C50.327 28.767 49.7048 28.8695 49.2904 28.9791C48.0863 29.2713 46.7519 29.1075 45.5311 29.019C45.4989 29.0167 45.4667 29.0144 45.4335 29.012C45.2852 29.0007 45.1419 28.9866 44.9967 28.9525C44.995 28.9738 44.9933 28.9951 44.9915 29.0171C44.9666 29.2984 44.9194 29.5738 44.8687 29.8515C44.8593 29.903 44.85 29.9546 44.8407 30.0062C44.8154 30.1459 44.7898 30.2856 44.7641 30.4252C44.748 30.5132 44.7319 30.6011 44.7158 30.689C44.5412 31.6413 44.356 32.5913 44.1641 33.5403C44.1445 33.6371 44.125 33.7339 44.1055 33.8307C43.5393 36.6374 43.5393 36.6374 42.9132 37.097C42.5599 37.3065 42.2209 37.4263 41.81 37.3363C41.3634 37.2119 41.0104 36.9628 40.7783 36.5515C40.6475 36.2675 40.6314 36.0046 40.6284 35.6954C40.6273 35.6596 40.6262 35.6237 40.6251 35.5868C40.6192 34.8846 40.8411 34.2006 41.0451 33.5362C41.0691 33.4571 41.0931 33.378 41.1171 33.2989C41.164 33.144 41.2113 32.9891 41.2587 32.8343C41.3112 32.6633 41.3628 32.492 41.414 32.3206C42.1824 29.77 42.1824 29.77 42.648 28.8389C42.3592 28.8354 42.0751 28.8341 41.788 28.8683C41.6451 28.8822 41.5035 28.8791 41.36 28.8767C41.3577 28.7504 41.3584 28.6243 41.36 28.4979C41.3593 28.4696 41.3586 28.4412 41.3578 28.412C41.3609 28.3039 41.3756 28.2196 41.4493 28.1381C41.8747 27.8333 42.5614 27.842 43.0647 27.7782C43.0691 27.7521 43.0734 27.726 43.0779 27.6992C43.1061 27.5731 43.148 27.4585 43.194 27.3378C43.2034 27.3133 43.2127 27.2888 43.2223 27.2636C43.2532 27.1825 43.2844 27.1015 43.3157 27.0206C43.3265 26.9925 43.3373 26.9643 43.3484 26.9354C43.7449 25.9043 44.159 24.8815 44.6178 23.8764C44.5868 23.8746 44.5558 23.8728 44.5239 23.871C44.2536 23.8533 43.9974 23.8211 43.7347 23.7556C43.7009 23.7474 43.6671 23.7391 43.6322 23.7306C42.7069 23.496 42.7069 23.496 42.3828 23.2324C42.326 23.1211 42.326 23.1211 42.3071 23.0051C42.2993 22.9629 42.2914 22.9207 42.2834 22.8773C42.2787 22.8444 42.274 22.8116 42.2692 22.7778C42.3262 22.7701 42.3262 22.7701 42.3845 22.7621C42.5277 22.7417 42.6693 22.7149 42.8114 22.6879C43.0849 22.6381 43.359 22.6028 43.6353 22.5718C43.6768 22.5672 43.7183 22.5625 43.7611 22.5577C43.8491 22.5479 43.9372 22.5381 44.0252 22.5282C44.9062 22.4288 45.7802 22.3031 46.654 22.1528C46.6802 22.1483 46.7063 22.1438 46.7333 22.1391C47.4252 22.0199 48.1161 21.8954 48.8061 21.7662C49.178 21.6966 49.5503 21.6314 49.9236 21.5704C49.97 21.5626 50.0165 21.5549 50.0643 21.547C51.0087 21.3955 52.1329 21.3569 52.9518 21.9444Z" fill="white"/>
<path d="M34.5417 13.9529C35.7391 13.8973 36.9998 14.4788 37.951 15.1651C37.9877 15.1915 38.0244 15.2179 38.0623 15.245C38.7602 15.7576 39.4466 16.3506 39.9867 17.0283C40.0721 17.1347 40.1608 17.2376 40.2499 17.3409C41.1215 18.3917 41.8201 19.6371 42.1132 20.9752C42.1219 21.0135 42.1305 21.0518 42.1394 21.0912C42.1852 21.3123 42.2256 21.5361 42.1558 21.7565C42.0789 21.8536 42.0551 21.8683 41.9286 21.8867C41.803 21.8817 41.7023 21.8451 41.5858 21.7993C41.3715 21.7193 41.1581 21.6686 40.9342 21.6239C40.4973 21.5346 40.4973 21.5346 40.3383 21.4835C39.1025 21.0883 37.5487 21.526 36.3046 21.7657C36.2686 21.7726 36.2325 21.7795 36.1954 21.7867C36.1317 21.7991 36.068 21.8116 36.0044 21.8245C35.6225 21.9001 35.2464 21.9141 34.8577 21.913C34.7791 21.9128 34.7005 21.913 34.6219 21.9132C33.7631 21.9137 33.7631 21.9137 33.5189 21.8323C33.4762 21.6362 33.4676 21.4451 33.4597 21.2451C33.4581 21.2057 33.4565 21.1662 33.4549 21.1256C33.3984 19.564 33.3984 19.564 33.5135 18.856C33.5647 18.5293 33.6076 18.2016 33.6509 17.8737C33.6659 17.7602 33.6812 17.6466 33.6964 17.5331C33.7408 17.2028 33.7847 16.8726 33.8219 16.5414C33.9269 15.6299 34.1808 14.7947 34.5417 13.9529Z" fill="#171717"/>
<path d="M38.4496 10.9107C38.4875 10.9109 38.5254 10.9112 38.5644 10.9114C39.0743 10.9185 39.5473 10.9857 40.0336 11.1474C40.0696 11.1591 40.0696 11.1591 40.1063 11.1711C40.6634 11.3547 41.1435 11.6335 41.5867 12.0187C41.6182 12.0455 41.6496 12.0724 41.682 12.1001C42.7991 13.0767 43.4117 14.4673 43.6897 15.9027C43.7022 15.9666 43.7154 16.0303 43.7291 16.0939C43.9567 17.1599 43.9547 18.3434 43.7081 19.4056C43.701 19.4364 43.6939 19.4673 43.6866 19.4991C43.6078 19.83 43.5006 20.1509 43.3861 20.471C43.3758 20.5002 43.3654 20.5293 43.3548 20.5594C43.2805 20.7596 43.1835 20.9334 43.0641 21.1103C42.9754 20.9772 42.9562 20.8544 42.9268 20.7007C42.6312 19.2817 41.8205 17.9971 40.9427 16.8675C40.9176 16.835 40.8924 16.8026 40.8665 16.7691C40.7116 16.5722 40.5488 16.3843 40.3798 16.1993C40.3094 16.1217 40.2411 16.0429 40.1733 15.9631C39.8992 15.6489 39.5974 15.3525 39.2759 15.0871C39.2571 15.0713 39.2382 15.0555 39.2188 15.0392C37.9997 14.0217 36.6095 13.3221 35.0332 13.0794C35.0905 12.9118 35.1809 12.7763 35.2842 12.6343C35.3011 12.6109 35.3179 12.5875 35.3353 12.5634C35.9676 11.6995 36.8563 11.1216 37.9151 10.9354C38.0935 10.9108 38.2698 10.9089 38.4496 10.9107Z" fill="#171717"/>
<path d="M62.0049 28.6875C62.2118 28.7605 62.4313 28.8642 62.5352 29.0663C62.5536 29.2299 62.5483 29.3102 62.4614 29.4521C62.4274 29.4937 62.3928 29.5348 62.3576 29.5753C62.3391 29.5978 62.3205 29.6203 62.3014 29.6434C62.2616 29.6915 62.2215 29.7395 62.1812 29.7872C62.0962 29.8884 62.0133 29.9913 61.9304 30.0942C61.8481 30.1961 61.7652 30.2975 61.6823 30.3989C61.6317 30.461 61.5814 30.5233 61.5311 30.5856C61.3676 30.7874 61.1992 30.983 61.0244 31.1751C60.9525 31.2543 60.8818 31.3343 60.8116 31.415C60.5284 31.7397 60.2365 32.0564 59.9438 32.3726C59.8812 32.4403 59.8186 32.5081 59.7561 32.576C59.7354 32.5984 59.7147 32.6209 59.6934 32.644C59.6536 32.6872 59.6139 32.7303 59.5741 32.7735C59.5015 32.8522 59.4289 32.9303 59.3532 33.006C59.3617 33.1632 59.4714 33.2817 59.5615 33.4037C59.5786 33.4272 59.5956 33.4506 59.6132 33.4748C59.6651 33.546 59.7174 33.617 59.7699 33.6879C59.8126 33.7459 59.8126 33.7459 59.8561 33.8051C60.1725 34.2307 60.5008 34.6453 60.8452 35.0486C60.9358 35.1549 61.0243 35.2628 61.1123 35.3712C61.2432 35.5321 61.3771 35.69 61.5124 35.8471C61.7056 36.0714 61.8946 36.2987 62.0806 36.529C62.1089 36.5635 62.1372 36.598 62.1663 36.6336C62.1935 36.667 62.2207 36.7005 62.2487 36.735C62.2729 36.7646 62.2971 36.7942 62.322 36.8248C62.4697 37.0235 62.495 37.1938 62.4595 37.4381C62.3767 37.6463 62.2478 37.7981 62.0428 37.8927C61.8661 37.9232 61.7481 37.9198 61.5911 37.8279C61.4732 37.7402 61.3637 37.6474 61.2567 37.547C61.2362 37.5279 61.2156 37.5088 61.1945 37.4891C61.002 37.3082 60.8141 37.1226 60.6269 36.9362C60.5986 36.908 60.5702 36.8798 60.541 36.8508C60.3854 36.6948 60.2364 36.5353 60.0926 36.3683C60.0215 36.286 59.9478 36.2064 59.874 36.1265C59.681 35.9125 59.5046 35.687 59.3288 35.459C59.2804 35.3963 59.2316 35.334 59.1827 35.2718C58.9802 35.0122 58.7878 34.7469 58.5997 34.4767C58.5016 34.336 58.4016 34.1991 58.2925 34.0667C58.2628 34.0979 58.2331 34.1292 58.2025 34.1614C58.1031 34.2561 58.1031 34.2561 58.0273 34.2561C58.0273 34.2811 58.0273 34.3061 58.0273 34.3318C57.9723 34.3859 57.9723 34.3859 57.8959 34.449C57.7219 34.597 57.5622 34.7561 57.4023 34.919C57.1199 35.2066 56.8264 35.4724 56.5097 35.7216C56.488 35.739 56.4663 35.7564 56.4439 35.7744C56.2212 35.95 56.0168 36.1063 55.722 36.0913C55.5794 36.0616 55.5087 35.9916 55.4135 35.885C55.2848 35.6705 55.264 35.4503 55.2998 35.2031C55.3799 34.995 55.515 34.8524 55.6668 34.6941C55.6908 34.6688 55.7148 34.6435 55.7396 34.6174C55.901 34.4486 56.0666 34.291 56.2469 34.1424C56.2875 34.1077 56.3279 34.0728 56.3684 34.0378C56.5743 33.8599 56.781 33.6837 56.9927 33.5127C57.1784 33.3625 57.353 33.2028 57.5267 33.039C57.6106 32.9681 57.6106 32.9681 57.6864 32.9681C57.6761 32.9474 57.6658 32.9267 57.6552 32.9053C57.1185 31.8176 56.6159 30.5519 57.0045 29.3315C57.0621 29.1772 57.1247 29.0263 57.1939 28.8769C57.4834 28.865 57.7284 28.8552 57.9894 28.9906C58.1028 29.1088 58.117 29.1925 58.1171 29.354C58.1177 29.3958 58.1182 29.4375 58.1188 29.4806C58.1191 29.5251 58.1194 29.5697 58.1197 29.6156C58.1382 30.4349 58.3 31.2627 58.7092 31.9832C58.7303 31.9617 58.7514 31.9401 58.7731 31.9179C58.802 31.8887 58.8309 31.8594 58.8607 31.8293C58.8888 31.8007 58.917 31.7722 58.9459 31.7427C59.0265 31.6651 59.1077 31.5919 59.1925 31.5191C59.3985 31.3405 59.5864 31.1444 59.7764 30.9491C59.8175 30.9073 59.8175 30.9073 59.8595 30.8647C59.8965 30.8267 59.8965 30.8267 59.9342 30.788C59.9972 30.7331 59.9972 30.7331 60.0729 30.7331C60.0729 30.7081 60.0729 30.6831 60.0729 30.6573C60.1192 30.6119 60.1192 30.6119 60.1889 30.5555C60.359 30.4112 60.5166 30.2561 60.6743 30.0986C60.6995 30.0735 60.7248 30.0484 60.7508 30.0226C60.7747 29.9986 60.7985 29.9747 60.8231 29.95C60.8446 29.9285 60.8661 29.907 60.8882 29.8848C60.952 29.8187 60.952 29.8187 61.02 29.7103C61.045 29.7103 61.07 29.7103 61.0957 29.7103C61.1092 29.6783 61.1092 29.6783 61.1229 29.6456C61.1824 29.5392 61.2548 29.4675 61.3419 29.3822C61.3755 29.3491 61.4091 29.3159 61.4438 29.2817C61.4789 29.2473 61.5141 29.213 61.5503 29.1776C61.6198 29.1094 61.6893 29.0411 61.7586 28.9726C61.7895 28.9425 61.8204 28.9123 61.8522 28.8812C61.9346 28.8001 61.9346 28.8001 62.0049 28.6875Z" fill="white"/>
<path d="M33.594 14.0284C33.5835 14.0598 33.573 14.0912 33.5622 14.1236C33.3564 14.7431 33.1595 15.3584 33.0258 15.9983C33.0203 16.0238 33.0148 16.0493 33.0091 16.0756C32.9741 16.2387 32.9423 16.4023 32.9121 16.5665C32.9075 16.5909 32.903 16.6152 32.8982 16.6403C32.8291 17.0125 32.7795 17.386 32.7369 17.7621C32.7322 17.8028 32.7276 17.8435 32.7228 17.8855C32.6475 18.5766 32.6409 19.2646 32.642 19.9588C32.6422 20.0946 32.6421 20.2303 32.6419 20.366C32.6417 20.4714 32.6418 20.5768 32.6419 20.6822C32.6419 20.7565 32.6418 20.8308 32.6417 20.905C32.6418 20.95 32.6419 20.9949 32.642 21.0412C32.6421 21.0806 32.6421 21.1201 32.6421 21.1607C32.6464 21.2526 32.6614 21.3271 32.6848 21.4153C32.6863 21.5037 32.6865 21.5921 32.6848 21.6805C31.3752 21.4165 30.4777 20.8652 29.7301 19.7485C29.4663 19.3467 29.2052 18.9389 29.0103 18.4984C28.9968 18.468 28.9833 18.4375 28.9693 18.4061C28.8618 18.106 28.8318 17.7097 28.9559 17.4117C29.1004 17.1344 29.2819 16.8871 29.5091 16.6726C29.5752 16.6077 29.635 16.5407 29.695 16.4701C30.1888 15.9023 30.7235 15.3814 31.359 14.9755C31.3956 14.9519 31.3956 14.9519 31.433 14.9278C31.5949 14.8248 31.7598 14.7282 31.9272 14.6345C31.9531 14.6199 31.9791 14.6052 32.0058 14.5901C32.3619 14.3903 32.7116 14.2285 33.1015 14.1042C33.1385 14.0901 33.1755 14.076 33.2135 14.0614C33.3447 14.0239 33.4581 14.0262 33.594 14.0284Z" fill="#171717"/>
<path d="M38.8215 22.1348C38.859 22.1535 38.859 22.1535 38.8973 22.1726C38.6335 22.6407 38.3686 23.108 38.1018 23.5743C37.9164 23.8982 37.7315 24.2224 37.5478 24.5473C37.528 24.5822 37.5083 24.617 37.488 24.6529C37.3816 24.841 37.2765 25.0297 37.1725 25.2192C36.2427 26.9088 36.2427 26.9088 35.6774 27.0972C35.5127 27.123 35.3631 27.135 35.2157 27.0487C35.1364 26.9806 35.0659 26.9092 34.9955 26.8321C34.9729 26.8093 34.9504 26.7865 34.9271 26.763C34.4145 26.2196 34.2124 25.4502 34.0106 24.7486C34.0028 24.7218 33.9951 24.6951 33.9871 24.6676C33.8786 24.2863 33.7912 23.9017 33.7146 23.5127C33.7063 23.4714 33.698 23.4301 33.6895 23.3876C33.6451 23.155 33.6231 22.9398 33.6318 22.703C33.6988 22.7019 33.7659 22.7012 33.833 22.7006C33.8704 22.7002 33.9077 22.6997 33.9462 22.6993C34.0964 22.7033 34.244 22.7169 34.3934 22.7312C34.6831 22.7568 34.9742 22.7651 35.2648 22.775C35.3329 22.7773 35.4011 22.7799 35.4692 22.7828C36.2668 22.8154 37.1203 22.7248 37.8765 22.4624C37.9583 22.4351 38.0408 22.4112 38.1238 22.3877C38.153 22.3794 38.1821 22.3711 38.2122 22.3626C38.2675 22.3471 38.3228 22.3315 38.3782 22.3161C38.5001 22.2809 38.6083 22.2412 38.7216 22.1836C38.7546 22.1675 38.7876 22.1514 38.8215 22.1348Z" fill="#171717"/>
<path d="M53.6707 26.7183C53.6778 26.8083 53.6778 26.8083 53.6707 26.9078C53.5489 26.989 53.4933 26.9961 53.3511 27.0119C52.8534 27.0891 52.5035 27.3512 52.2028 27.7388C52.0856 27.8991 51.9922 28.0458 51.9282 28.2336C51.9844 28.2149 51.9844 28.2149 52.0418 28.1957C52.0543 28.1582 52.0668 28.1207 52.0797 28.0821C52.1047 28.0821 52.1297 28.0821 52.1555 28.0821C52.1555 28.0571 52.1555 28.0321 52.1555 28.0063C52.2473 27.9085 52.3551 27.8263 52.4585 27.7411C52.4776 27.7252 52.4967 27.7093 52.5164 27.6929C53.033 27.2643 53.568 26.875 54.2676 26.8947C54.608 26.9308 54.8851 27.0651 55.1102 27.3245C55.2506 27.5483 55.2622 27.7874 55.2239 28.0442C54.9693 28.7745 54.2783 29.2024 53.6328 29.5595C53.6106 29.572 53.5883 29.5845 53.5654 29.5974C53.1208 29.8443 52.6353 30.033 52.1176 29.9762C52.0801 29.9637 52.0426 29.9512 52.0039 29.9383C51.991 29.9828 51.991 29.9828 51.9779 30.0282C51.8704 30.3252 51.769 30.5861 51.4736 30.7338C51.3016 30.7544 51.1723 30.7574 51.0214 30.6675C50.8393 30.4689 50.8492 30.27 50.8549 30.0103C50.8698 29.8354 50.9152 29.6965 50.9826 29.5358C51.048 29.3741 51.0752 29.2355 51.019 29.067C50.9683 28.3098 51.1933 27.7364 51.6861 27.1556C52.2392 26.5673 52.9246 26.3453 53.6707 26.7183ZM52.899 28.6991C52.7969 28.8045 52.7249 28.905 52.6479 29.0291C53.1515 28.9575 53.6213 28.6155 54.0117 28.3094C54.0438 28.2846 54.076 28.2599 54.1092 28.2343C54.2623 28.1098 54.3511 28.0186 54.3905 27.8169C53.8285 27.8169 53.2869 28.3469 52.899 28.6991Z" fill="white"/>
<path d="M79.3174 33.3086C79.6174 33.3086 79.9174 33.3086 80.2265 33.3086C80.3891 33.6835 80.5259 34.0651 80.6612 34.4505C80.8711 35.048 81.0847 35.644 81.3062 36.2373C81.3169 36.266 81.3276 36.2948 81.3387 36.3244C81.3971 36.4809 81.4557 36.6373 81.5145 36.7937C81.5288 36.7519 81.543 36.7102 81.5577 36.6672C81.7512 36.1051 81.9614 35.5496 82.1732 34.9942C82.2199 34.8716 82.2665 34.7489 82.3131 34.6262C82.4815 34.1833 82.4815 34.1833 82.5658 33.9629C82.5992 33.8752 82.6326 33.7874 82.6658 33.6995C82.6828 33.6547 82.6998 33.6099 82.7174 33.5637C82.7328 33.523 82.7482 33.4822 82.7641 33.4402C82.8025 33.3465 82.8025 33.3465 82.8404 33.3086C83.1279 33.3086 83.4154 33.3086 83.7116 33.3086C83.7116 34.7212 83.7116 36.1338 83.7116 37.5892C83.5116 37.5892 83.3116 37.5892 83.1055 37.5892C83.093 36.4516 83.0805 35.314 83.0677 34.142C82.9071 34.5733 82.9071 34.5733 82.7433 35.0133C82.4233 35.8724 82.1021 36.731 81.7797 37.5892C81.5922 37.5892 81.4047 37.5892 81.2115 37.5892C80.8874 36.7594 80.5796 35.9237 80.2719 35.0878C80.1558 34.7725 80.0396 34.4572 79.9235 34.142C79.911 35.2796 79.8985 36.4172 79.8856 37.5892C79.6981 37.5892 79.5106 37.5892 79.3174 37.5892C79.3174 36.1766 79.3174 34.764 79.3174 33.3086ZM79.8477 33.8768C79.8856 33.9526 79.8856 33.9526 79.8856 33.9526L79.8477 33.8768Z" fill="white"/>
<path d="M53.3215 31.0015C53.4746 31.1334 53.5163 31.2899 53.5321 31.4847C53.5315 31.5391 53.5303 31.5934 53.5286 31.6477C53.5281 31.6784 53.5276 31.7092 53.5271 31.7408C53.526 31.8096 53.5246 31.8783 53.5229 31.9471C53.5202 32.0667 53.5184 32.1862 53.5168 32.3058C53.509 32.8594 53.4975 33.4129 53.4857 33.9663C53.4798 34.2457 53.4743 34.5252 53.4696 34.8046C53.4654 35.0506 53.4607 35.2965 53.4551 35.5424C53.4522 35.6719 53.4496 35.8014 53.4478 35.9309C53.4456 36.075 53.4423 36.2191 53.4387 36.3632C53.4381 36.4264 53.4381 36.4264 53.4375 36.4909C53.4284 36.7878 53.3689 37.0643 53.1484 37.2788C52.97 37.4175 52.7844 37.4251 52.5644 37.4143C52.3215 37.3838 52.2011 37.2677 52.0505 37.0874C51.9738 36.9774 51.9624 36.8804 51.9617 36.7505C51.9615 36.7179 51.9612 36.6853 51.961 36.6517C51.961 36.6157 51.9609 36.5796 51.9609 36.5424C51.9607 36.5037 51.9605 36.465 51.9603 36.4251C51.9591 36.0451 51.9611 35.6651 51.964 35.2852C51.9663 34.9652 51.9673 34.6453 51.9669 34.3254C51.9665 33.9858 51.968 33.6462 51.9715 33.3067C51.9734 33.1179 51.9744 32.9293 51.9734 32.7405C51.9725 32.5604 51.974 32.3804 51.9771 32.2003C51.9779 32.1334 51.9779 32.0664 51.9769 31.9995C51.9742 31.7945 51.979 31.6119 52.043 31.4159C52.1916 31.2672 52.3399 31.192 52.5354 31.1128C52.5753 31.0955 52.6152 31.0782 52.6564 31.0604C52.8824 30.9664 53.0848 30.9101 53.3215 31.0015Z" fill="white"/>
<path d="M63.6338 33.3086C65.7582 33.3086 65.7582 33.3086 66.3613 33.8768C66.8435 34.421 66.9291 35.0453 66.899 35.7476C66.8692 36.1458 66.7512 36.5084 66.5128 36.8316C66.4961 36.8555 66.4795 36.8794 66.4623 36.9041C66.1365 37.3304 65.6126 37.4889 65.1112 37.5892C64.6236 37.5892 64.1361 37.5892 63.6338 37.5892C63.6338 36.1766 63.6338 34.764 63.6338 33.3086ZM64.2399 33.8389C64.2399 34.9015 64.2399 35.9641 64.2399 37.0589C65.0903 37.087 65.0903 37.087 65.7957 36.7166C66.1473 36.3586 66.2614 35.9214 66.2666 35.43C66.2619 34.9863 66.1823 34.5865 65.8688 34.2556C65.8396 34.2242 65.8396 34.2242 65.8099 34.1922C65.3882 33.7855 64.783 33.8389 64.2399 33.8389Z" fill="white"/>
<path d="M74.2412 33.3086C76.1005 33.3086 76.1005 33.3086 76.5141 33.6495C76.7282 33.8702 76.7825 34.1169 76.7935 34.419C76.7875 34.7257 76.7157 34.9688 76.507 35.1979C76.364 35.3294 76.2027 35.4017 76.0216 35.4678C76.049 35.4858 76.0763 35.5038 76.1045 35.5223C76.3787 35.7721 76.4912 36.1654 76.6277 36.5025C76.6472 36.55 76.6666 36.5975 76.686 36.6451C76.7241 36.738 76.762 36.8311 76.7998 36.9242C76.8687 37.0922 76.9396 37.2592 77.011 37.4262C77.0444 37.5134 77.0444 37.5134 77.0444 37.5892C76.8319 37.5892 76.6194 37.5892 76.4005 37.5892C76.2481 37.2569 76.119 36.9164 75.9896 36.5746C75.835 36.1378 75.835 36.1378 75.5292 35.8088C75.3241 35.751 75.3241 35.751 74.8852 35.7709C74.8852 36.3709 74.8852 36.971 74.8852 37.5892C74.6727 37.5892 74.4602 37.5892 74.2412 37.5892C74.2412 36.1766 74.2412 34.764 74.2412 33.3086ZM74.8473 33.8389C74.8473 34.289 74.8473 34.739 74.8473 35.2027C75.0936 35.3258 75.5027 35.2412 75.7565 35.1648C75.9297 35.0782 76.0608 34.9679 76.1353 34.786C76.1881 34.5547 76.179 34.3645 76.0974 34.142C75.9666 33.9689 75.8116 33.8923 75.6049 33.8389C75.4718 33.8263 75.3408 33.8281 75.2072 33.8318C75.0884 33.8342 74.9697 33.8365 74.8473 33.8389Z" fill="white"/>
<path d="M87.6456 33.3047C87.6905 33.305 87.6905 33.305 87.7363 33.3053C87.7849 33.3055 87.7849 33.3055 87.8344 33.3057C87.8684 33.306 87.9024 33.3063 87.9374 33.3066C87.9716 33.3068 88.0058 33.307 88.0409 33.3071C88.1256 33.3076 88.2103 33.3082 88.2949 33.309C88.3058 33.3382 88.3058 33.3382 88.3169 33.3681C88.4129 33.6262 88.509 33.8843 88.6051 34.1424C88.6209 34.1848 88.6367 34.2272 88.6529 34.2709C88.847 34.792 89.0415 35.313 89.2369 35.8336C89.246 35.8578 89.2551 35.882 89.2645 35.9069C89.3619 36.1666 89.4595 36.4262 89.5571 36.6858C89.5894 36.7719 89.6218 36.8579 89.6541 36.944C89.6688 36.9831 89.6835 37.0222 89.6987 37.0625C89.7123 37.0988 89.726 37.135 89.74 37.1724C89.7518 37.2038 89.7636 37.2351 89.7757 37.2674C89.8145 37.3741 89.8501 37.4819 89.886 37.5896C89.661 37.5896 89.4359 37.5896 89.2041 37.5896C89.1471 37.4342 89.0903 37.2787 89.0336 37.1232C89.0092 37.0569 89.0092 37.0569 88.9844 36.9892C88.9613 36.9257 88.9613 36.9257 88.9377 36.8608C88.9235 36.8217 88.9092 36.7827 88.8945 36.7424C88.8632 36.6426 88.8632 36.6426 88.8632 36.5289C88.2256 36.5289 87.5881 36.5289 86.9312 36.5289C86.8937 36.6664 86.8562 36.8039 86.8176 36.9456C86.7785 37.0624 86.7388 37.178 86.6968 37.2937C86.6617 37.3913 86.6265 37.489 86.5903 37.5896C86.3778 37.5896 86.1652 37.5896 85.9463 37.5896C86.0228 37.3239 86.111 37.067 86.2115 36.8095C86.2262 36.7714 86.2409 36.7333 86.2561 36.694C86.3042 36.5695 86.3525 36.445 86.4009 36.3206C86.4691 36.1444 86.5371 35.9681 86.6052 35.7919C86.6226 35.7468 86.64 35.7017 86.658 35.6553C86.7819 35.3344 86.9045 35.013 87.0264 34.6912C87.043 34.6474 87.0596 34.6035 87.0767 34.5583C87.1412 34.3879 87.2057 34.2174 87.2701 34.0468C87.3142 33.9297 87.3585 33.8127 87.4028 33.6956C87.4225 33.6432 87.4225 33.6432 87.4426 33.5896C87.4546 33.558 87.4666 33.5264 87.479 33.4938C87.4894 33.4662 87.4998 33.4385 87.5105 33.4101C87.5528 33.3104 87.5528 33.3104 87.6456 33.3047ZM87.8782 33.953C87.7939 34.1834 87.7096 34.4138 87.6255 34.6443C87.597 34.7226 87.5683 34.8008 87.5397 34.8791C87.4983 34.9921 87.457 35.1051 87.4158 35.2182C87.3968 35.2699 87.3968 35.2699 87.3774 35.3227C87.3653 35.3561 87.3532 35.3894 87.3407 35.4237C87.3302 35.4525 87.3197 35.4813 87.3088 35.5109C87.2545 35.6721 87.2074 35.8357 87.1585 35.9986C87.6585 35.9986 88.1586 35.9986 88.6738 35.9986C88.522 35.5697 88.522 35.5697 88.3697 35.1409C88.301 34.9481 88.2327 34.7551 88.1646 34.562C88.1378 34.4869 88.111 34.4117 88.0842 34.3365C88.066 34.2843 88.066 34.2843 88.0473 34.231C88.036 34.1995 88.0247 34.168 88.0131 34.1356C88.0034 34.1083 87.9938 34.0811 87.9838 34.053C87.9582 33.9833 87.9582 33.9833 87.8782 33.953Z" fill="white"/>
<path d="M69.3926 33.3086C70.1301 33.3086 70.8677 33.3086 71.6276 33.3086C71.6276 33.4711 71.6276 33.6336 71.6276 33.8011C71.5897 33.8389 71.5897 33.8389 71.4428 33.8432C71.3773 33.8432 71.3118 33.843 71.2463 33.8426C71.2118 33.8426 71.1774 33.8425 71.142 33.8425C71.0316 33.8423 70.9212 33.8418 70.8108 33.8413C70.7361 33.8411 70.6615 33.8409 70.5868 33.8408C70.4034 33.8404 70.22 33.8397 70.0366 33.8389C70.0241 34.264 70.0116 34.689 69.9987 35.1269C70.4987 35.1269 70.9988 35.1269 71.5139 35.1269C71.5139 35.3019 71.5139 35.4769 71.5139 35.6572C71.0139 35.6572 70.5139 35.6572 69.9987 35.6572C69.9987 36.1198 69.9987 36.5823 69.9987 37.0589C70.5487 37.0589 71.0988 37.0589 71.6655 37.0589C71.6655 37.2339 71.6655 37.4089 71.6655 37.5892C70.9154 37.5892 70.1654 37.5892 69.3926 37.5892C69.3926 36.1766 69.3926 34.764 69.3926 33.3086Z" fill="white"/>
<path d="M90.4542 31.1106C90.6995 31.281 90.8523 31.4901 90.9845 31.7546C90.9913 31.8641 90.995 31.9718 90.9964 32.0814C90.9975 32.111 90.9985 32.1406 90.9997 32.1712C91.003 32.4827 90.879 32.7153 90.6727 32.9441C90.4226 33.1704 90.0995 33.2918 89.7642 33.2842C89.4565 33.2424 89.1402 33.0936 88.9389 32.8532C88.8677 32.7431 88.8066 32.6303 88.7495 32.5123C88.737 32.4873 88.7245 32.4623 88.7116 32.4365C88.679 32.0118 88.6866 31.6822 88.962 31.3373C89.3494 30.9144 89.9553 30.8254 90.4542 31.1106ZM89.3556 31.3379C89.3556 31.3504 89.3556 31.3629 89.3556 31.3758C89.3787 31.3771 89.4018 31.3784 89.4256 31.3798C89.531 31.3862 89.6362 31.394 89.7415 31.4019C89.7779 31.4039 89.8142 31.4059 89.8517 31.408C90.0266 31.4219 90.1257 31.433 90.2699 31.5386C90.3618 31.6718 90.3678 31.7458 90.3595 31.9029C90.3405 31.9819 90.3405 31.9819 90.2506 32.0743C90.2013 32.1036 90.2013 32.1036 90.1511 32.1334C90.1261 32.1584 90.1011 32.1835 90.0754 32.2092C90.1027 32.2342 90.13 32.2592 90.1582 32.285C90.2821 32.4078 90.3668 32.5518 90.4542 32.7017C90.5544 32.6636 90.5982 32.6385 90.6536 32.545C90.7686 32.2471 90.7921 32.0249 90.68 31.7219C90.5729 31.4839 90.4144 31.3663 90.1822 31.2589C89.8955 31.166 89.6175 31.1951 89.3556 31.3379ZM89.2041 31.4516C88.9887 31.7221 88.9141 31.948 88.9534 32.2952C88.9891 32.453 89.0611 32.5792 89.1662 32.7017C89.1912 32.7142 89.2162 32.7267 89.242 32.7396C89.242 32.3145 89.242 31.8895 89.242 31.4516C89.2295 31.4516 89.217 31.4516 89.2041 31.4516ZM89.545 31.6789C89.545 31.7789 89.545 31.8789 89.545 31.9819C89.62 31.9766 89.695 31.971 89.7699 31.9653C89.8117 31.9623 89.8534 31.9592 89.8965 31.956C89.9962 31.9552 89.9962 31.9552 90.0375 31.9062C90.0438 31.8115 90.0438 31.8115 90.0375 31.7168C89.9964 31.667 89.9964 31.667 89.8965 31.6752C89.8547 31.6756 89.813 31.676 89.7699 31.6765C89.7281 31.6768 89.6862 31.6772 89.6431 31.6775C89.6107 31.678 89.5784 31.6784 89.545 31.6789ZM89.545 32.2092C89.545 32.3967 89.545 32.5842 89.545 32.7774C89.4575 32.7774 89.37 32.7774 89.2798 32.7774C89.4326 32.95 89.6425 32.993 89.8646 33.0213C90.0487 32.9987 90.2141 32.9394 90.3784 32.8532C90.3909 32.8282 90.4034 32.8032 90.4163 32.7774C90.3725 32.7806 90.3288 32.7837 90.2837 32.7869C90.1998 32.7779 90.1998 32.7779 90.1132 32.7396C90.0269 32.6281 89.9591 32.5142 89.8917 32.3905C89.8034 32.2547 89.8034 32.2547 89.545 32.2092Z" fill="white"/>
<path d="M33.6328 22.7012C33.7828 22.7012 33.9328 22.7012 34.0874 22.7012C34.0874 22.7137 34.0874 22.7262 34.0874 22.7391C33.9624 22.7516 33.8374 22.7641 33.7086 22.7769C33.7086 22.8644 33.7086 22.9519 33.7086 23.0421C33.6836 23.0421 33.6586 23.0421 33.6328 23.0421C33.6328 22.9296 33.6328 22.8171 33.6328 22.7012Z" fill="#D2B7A5"/>
<path d="M38.8216 22.1348C38.8466 22.1473 38.8716 22.1598 38.8974 22.1726C38.8474 22.2352 38.7974 22.2977 38.7458 22.3621C38.7458 22.3371 38.7458 22.3121 38.7458 22.2863C38.6708 22.2988 38.5958 22.3113 38.5186 22.3242C38.615 22.2484 38.7072 22.1805 38.8216 22.1348Z" fill="#E2C6B4"/>
</svg>
