<svg width="149" height="148" viewBox="0 0 149 148" fill="none" xmlns="http://www.w3.org/2000/svg">
<g opacity="0.3">
<path d="M0.666016 0H4.66602V4H0.666016V0Z" fill="#C4C4C4"/>
<path d="M24.666 0H28.666V4H24.666V0Z" fill="#C4C4C4"/>
<path d="M48.666 0H52.666V4H48.666V0Z" fill="#C4C4C4"/>
<path d="M72.666 0H76.666V4H72.666V0Z" fill="#C4C4C4"/>
<path d="M96.666 0H100.666V4H96.666V0Z" fill="#C4C4C4"/>
<path d="M120.666 0H124.666V4H120.666V0Z" fill="#C4C4C4"/>
<path d="M144.666 0H148.666V4H144.666V0Z" fill="#C4C4C4"/>
<path d="M0.666016 24H4.66602V28H0.666016V24Z" fill="#C4C4C4"/>
<path d="M24.666 24H28.666V28H24.666V24Z" fill="#C4C4C4"/>
<path d="M48.666 24H52.666V28H48.666V24Z" fill="#C4C4C4"/>
<path d="M72.666 24H76.666V28H72.666V24Z" fill="#C4C4C4"/>
<path d="M96.666 24H100.666V28H96.666V24Z" fill="#C4C4C4"/>
<path d="M120.666 24H124.666V28H120.666V24Z" fill="#C4C4C4"/>
<path d="M144.666 24H148.666V28H144.666V24Z" fill="#C4C4C4"/>
<path d="M0.666016 48H4.66602V52H0.666016V48Z" fill="#C4C4C4"/>
<path d="M24.666 48H28.666V52H24.666V48Z" fill="#C4C4C4"/>
<path d="M48.666 48H52.666V52H48.666V48Z" fill="#C4C4C4"/>
<path d="M72.666 48H76.666V52H72.666V48Z" fill="#C4C4C4"/>
<path d="M96.666 48H100.666V52H96.666V48Z" fill="#C4C4C4"/>
<path d="M120.666 48H124.666V52H120.666V48Z" fill="#C4C4C4"/>
<path d="M144.666 48H148.666V52H144.666V48Z" fill="#C4C4C4"/>
<path d="M0.666016 72H4.66602V76H0.666016V72Z" fill="#C4C4C4"/>
<path d="M24.666 72H28.666V76H24.666V72Z" fill="#C4C4C4"/>
<path d="M48.666 72H52.666V76H48.666V72Z" fill="#C4C4C4"/>
<path d="M72.666 72H76.666V76H72.666V72Z" fill="#C4C4C4"/>
<path d="M96.666 72H100.666V76H96.666V72Z" fill="#C4C4C4"/>
<path d="M120.666 72H124.666V76H120.666V72Z" fill="#C4C4C4"/>
<path d="M144.666 72H148.666V76H144.666V72Z" fill="#C4C4C4"/>
<path d="M0.666016 96H4.66602V100H0.666016V96Z" fill="#C4C4C4"/>
<path d="M24.666 96H28.666V100H24.666V96Z" fill="#C4C4C4"/>
<path d="M48.666 96H52.666V100H48.666V96Z" fill="#C4C4C4"/>
<path d="M72.666 96H76.666V100H72.666V96Z" fill="#C4C4C4"/>
<path d="M96.666 96H100.666V100H96.666V96Z" fill="#C4C4C4"/>
<path d="M120.666 96H124.666V100H120.666V96Z" fill="#C4C4C4"/>
<path d="M144.666 96H148.666V100H144.666V96Z" fill="#C4C4C4"/>
<path d="M0.666016 120H4.66602V124H0.666016V120Z" fill="#C4C4C4"/>
<path d="M24.666 120H28.666V124H24.666V120Z" fill="#C4C4C4"/>
<path d="M48.666 120H52.666V124H48.666V120Z" fill="#C4C4C4"/>
<path d="M72.666 120H76.666V124H72.666V120Z" fill="#C4C4C4"/>
<path d="M96.666 120H100.666V124H96.666V120Z" fill="#C4C4C4"/>
<path d="M120.666 120H124.666V124H120.666V120Z" fill="#C4C4C4"/>
<path d="M144.666 120H148.666V124H144.666V120Z" fill="#C4C4C4"/>
<path d="M0.666016 144H4.66602V148H0.666016V144Z" fill="#C4C4C4"/>
<path d="M24.666 144H28.666V148H24.666V144Z" fill="#C4C4C4"/>
<path d="M48.666 144H52.666V148H48.666V144Z" fill="#C4C4C4"/>
<path d="M72.666 144H76.666V148H72.666V144Z" fill="#C4C4C4"/>
<path d="M96.666 144H100.666V148H96.666V144Z" fill="#C4C4C4"/>
<path d="M120.666 144H124.666V148H120.666V144Z" fill="#C4C4C4"/>
<path d="M144.666 144H148.666V148H144.666V144Z" fill="#C4C4C4"/>
</g>
</svg>
