<svg width="204" height="325" viewBox="0 0 204 325" fill="none" xmlns="http://www.w3.org/2000/svg">
<path fill-rule="evenodd" clip-rule="evenodd" d="M-42.3905 100.879V140.952L63.7069 201.939V240.332L-76.5859 159.576V150.188V121.259V81.1097L63.7069 0.124512V39.5867L-42.3905 100.879ZM131.787 200.642L132.094 200.335V200.796L131.787 200.642ZM63.707 240.256L130.877 201.481C130.877 201.481 131.487 200.946 131.793 200.565L98.8948 181.559L63.707 201.862V201.939V240.256ZM63.707 0.124512V39.5867L169.805 100.879V124.999L204 144.539V81.1097L63.707 0.124512ZM-42.3905 198.961V223.386L63.7069 284.602V324.14L-76.5859 243.155V179.344L-42.3905 198.961ZM-3.46684 122.711L-4.38281 123.627L28.515 142.633L63.7027 122.329V84.0122L-3.46684 122.787V122.711ZM63.707 83.9303L204 164.229V243.153L63.707 324.138V284.6L169.805 223.384V183.006L63.707 122.324V83.9303Z" fill="white" fill-opacity="0.04"/>
</svg>
