<svg width="163" height="34" viewBox="0 0 163 34" fill="none" xmlns="http://www.w3.org/2000/svg">
<path d="M21.2079 21.0957C21.2079 21.0957 21.1845 21.1191 21.1768 21.1269L21.2079 21.1424V21.0957Z" fill="#414142"/>
<path d="M3.47524 15.0602V10.9876L14.2578 4.75854V0.748047L0 8.97848V13.0588V15.9988V16.9529L14.2578 25.1601V21.2582L3.47524 15.0602Z" fill="#3D9DCD"/>
<path d="M14.2578 21.2582V25.1523L21.0842 21.2116C21.0842 21.2116 21.1462 21.1573 21.1773 21.1186L17.8339 19.187L14.2578 21.2504V21.2582ZM14.2578 0.748047V4.75854L25.0404 10.9876V13.4389L28.5156 15.4247V8.97848L14.2578 0.748047Z" fill="#3D9DCD"/>
<path d="M3.47524 23.4388V20.9565L0 18.9629V25.4479L14.2578 33.6784V29.6601L3.47524 23.4388Z" fill="#A5A7AB"/>
<path d="M7.43098 13.2064C7.43098 13.2064 7.36892 13.2684 7.33789 13.2994L10.6813 15.231L14.2573 13.1676V9.27344L7.43098 13.2141V13.2064Z" fill="#A5A7AB"/>
<path d="M28.5156 17.4262L14.2578 9.26562V13.1675L25.0404 19.3345V23.4381L14.2578 29.6594V33.6777L28.5156 25.4472V17.4262Z" fill="white"/>
<path d="M40.1689 29.0424H42.8995V32.3547H40.4171C39.9827 32.3547 39.6414 32.3237 39.3932 32.2539C39.145 32.1918 38.9122 32.0755 38.7106 31.9203C38.1288 31.4704 37.834 30.6947 37.834 29.5854C37.834 28.864 37.9736 28.2589 38.2529 27.7857C38.4623 27.4367 38.7416 27.1807 39.0907 27.0178C39.4475 26.8549 39.9052 26.7773 40.4792 26.7773H42.9072V27.7625H40.6188C40.1301 27.7625 39.7655 27.8711 39.5483 28.0883C39.2846 28.3442 39.1527 28.8019 39.1527 29.4691C39.1527 29.8104 39.1837 30.1207 39.2536 30.3922C39.3234 30.6637 39.4165 30.8731 39.5328 31.005C39.6414 31.1291 39.7888 31.2144 39.9672 31.2765C40.1534 31.3308 40.3784 31.3618 40.6499 31.3618H41.7126V30.0276H40.1689V29.0424ZM49.8034 26.7773V27.7625H48.2597C47.8563 27.7625 47.5616 27.7857 47.3754 27.8478C47.197 27.9021 47.0418 28.0107 46.9177 28.1736C46.8324 28.2822 46.7781 28.3908 46.7548 28.5072C46.7238 28.6158 46.7005 28.8097 46.6772 29.0812H49.8112V30.0664H46.6772C46.716 30.5473 46.8557 30.8886 47.0961 31.0748C47.3366 31.261 47.74 31.3618 48.314 31.3618H49.8034V32.347H48.2597C47.8408 32.347 47.4685 32.3237 47.1582 32.2694C46.654 32.1918 46.2583 31.9669 45.9636 31.61C45.5447 31.0981 45.3352 30.4077 45.3352 29.5234C45.3352 28.5537 45.63 27.7935 46.2273 27.2582C46.429 27.0798 46.6462 26.9479 46.8789 26.8781C47.1116 26.8083 47.4219 26.7695 47.8098 26.7695H49.8112L49.8034 26.7773ZM53.6045 28.2667V32.3547H52.4797V26.7773H53.9923L56.2109 30.9274V26.7773H57.3357V32.3547H55.8773L53.6045 28.2667ZM64.387 26.7773V27.7625H62.8433C62.4399 27.7625 62.1452 27.7857 61.959 27.8478C61.7806 27.9021 61.6254 28.0107 61.5013 28.1736C61.416 28.2822 61.3617 28.3908 61.3384 28.5072C61.3074 28.6158 61.2841 28.8097 61.2608 29.0812H64.3948V30.0664H61.2608C61.2996 30.5473 61.4393 30.8886 61.6797 31.0748C61.9202 31.261 62.3236 31.3618 62.8976 31.3618H64.387V32.347H62.8433C62.4244 32.347 62.0521 32.3237 61.734 32.2694C61.2376 32.1918 60.8342 31.9669 60.5394 31.61C60.1205 31.0981 59.9111 30.4077 59.9111 29.5234C59.9111 28.5537 60.2136 27.7935 60.8032 27.2582C61.0049 27.0798 61.2221 26.9479 61.4548 26.8781C61.6875 26.8083 61.9978 26.7695 62.3856 26.7695H64.387V26.7773ZM68.2424 30.2293V32.3547H67.0555V26.7773H69.7783C70.5618 26.7773 71.1048 26.8781 71.4151 27.0721C71.6245 27.2039 71.7874 27.3824 71.9038 27.5996C72.0201 27.8168 72.0822 28.0572 72.0822 28.3287C72.0822 28.8562 71.9503 29.2674 71.6788 29.5544C71.5159 29.725 71.291 29.8569 71.0117 29.95C71.2289 30.0276 71.3918 30.1051 71.5082 30.1905C71.6168 30.2758 71.7176 30.4077 71.8107 30.5783C71.8805 30.7102 71.9271 30.8343 71.9581 30.9584C71.9814 31.0826 72.0124 31.2687 72.0279 31.5092C72.0589 31.9048 72.1055 32.1918 72.1598 32.347H70.8255C70.7867 32.2151 70.748 31.9514 70.7014 31.5557C70.6704 31.2299 70.6083 30.9817 70.523 30.8033C70.4377 30.6326 70.3058 30.493 70.1351 30.3999C69.9257 30.2836 69.6076 30.2215 69.1965 30.2293H68.2424ZM68.2424 29.2441H69.9024C70.1817 29.2441 70.3756 29.2053 70.492 29.12C70.6704 28.9959 70.7557 28.7787 70.7557 28.4684C70.7557 28.1271 70.6238 27.9098 70.3523 27.809C70.2592 27.778 70.1119 27.7625 69.8947 27.7625H68.2346V29.2441H68.2424ZM74.2232 32.3547L76.5271 26.7773H77.8924L80.1963 32.3547H78.8077L78.2725 31.067H76.1547L75.6117 32.3547H74.2232ZM77.2175 28.1193L76.4263 30.0819H78.0087L77.2175 28.1193ZM82.4769 26.7773H83.6638V29.9112C83.6793 30.3068 83.6948 30.5706 83.7181 30.7025C83.7568 30.9584 83.8732 31.1291 84.0826 31.2222C84.2921 31.3153 84.6489 31.3618 85.1609 31.3618H86.2935V32.347H85.0368C84.4472 32.347 84.0128 32.316 83.7413 32.2461C83.1285 32.0677 82.7329 31.6799 82.57 31.0748C82.5079 30.8421 82.4769 30.4542 82.4691 29.9035V26.7695L82.4769 26.7773ZM94.0197 27.7625H92.251V26.7773H97.0527V27.7625H95.2065V32.347H94.0197V27.7625ZM100.575 30.2293V32.3547H99.3877V26.7773H102.11C102.894 26.7773 103.437 26.8781 103.747 27.0721C103.957 27.2039 104.12 27.3824 104.236 27.5996C104.352 27.8168 104.407 28.0572 104.407 28.3287C104.407 28.8562 104.275 29.2674 104.003 29.5544C103.84 29.725 103.615 29.8569 103.344 29.95C103.561 30.0276 103.724 30.1051 103.84 30.1905C103.957 30.2758 104.05 30.4077 104.143 30.5783C104.213 30.7102 104.259 30.8343 104.29 30.9584C104.314 31.0826 104.345 31.2687 104.36 31.5092C104.391 31.9048 104.438 32.1918 104.492 32.347H103.158C103.119 32.2151 103.072 31.9514 103.034 31.5557C103.003 31.2299 102.94 30.9817 102.855 30.8033C102.77 30.6326 102.638 30.493 102.467 30.3999C102.258 30.2836 101.94 30.2215 101.529 30.2293H100.575ZM100.575 29.2441H102.242C102.522 29.2441 102.716 29.2053 102.832 29.12C103.01 28.9959 103.096 28.7787 103.096 28.4684C103.096 28.1271 102.964 27.9098 102.7 27.809C102.607 27.778 102.452 27.7625 102.242 27.7625H100.575V29.2441ZM106.555 32.3547L108.859 26.7773H110.225L112.528 32.3547H111.14L110.605 31.067H108.487L107.944 32.3547H106.555ZM109.542 28.1193L108.751 30.0819H110.333L109.542 28.1193ZM114.856 26.7773H117.222C117.811 26.7773 118.269 26.8393 118.595 26.9557C119.192 27.1729 119.588 27.5685 119.781 28.1503C119.937 28.5925 120.006 29.0734 120.006 29.5777C120.006 30.0819 119.937 30.5551 119.789 31.005C119.642 31.4627 119.401 31.7962 119.068 32.0134C118.858 32.1453 118.626 32.2384 118.37 32.2849C118.114 32.3315 117.734 32.3547 117.214 32.3547H114.848V26.7773H114.856ZM116.042 27.7625V31.3618H117.222C117.734 31.3618 118.098 31.2455 118.292 31.0127C118.416 30.8731 118.509 30.6637 118.587 30.3999C118.664 30.1362 118.695 29.8569 118.695 29.5544C118.695 29.2286 118.649 28.926 118.564 28.6468C118.478 28.3753 118.362 28.1658 118.214 28.034C118.005 27.8478 117.671 27.7547 117.222 27.7547H116.042V27.7625ZM122.582 26.7773H123.769V32.3547H122.582V26.7773ZM127.764 28.2667V32.3547H126.639V26.7773H128.159L130.378 30.9274V26.7773H131.503V32.3547H130.044L127.771 28.2667H127.764ZM136.397 29.0424H139.128V32.3547H136.646C136.211 32.3547 135.87 32.3237 135.622 32.2539C135.374 32.1918 135.141 32.0755 134.939 31.9203C134.357 31.4704 134.063 30.6947 134.063 29.5854C134.063 28.864 134.202 28.2589 134.481 27.7857C134.691 27.4367 134.97 27.1807 135.319 27.0178C135.676 26.8549 136.134 26.7773 136.708 26.7773H139.136V27.7625H136.84C136.343 27.7625 135.986 27.8711 135.769 28.0883C135.505 28.3442 135.374 28.8019 135.374 29.4691C135.374 29.8104 135.405 30.1207 135.474 30.3922C135.544 30.6637 135.637 30.8731 135.754 31.005C135.862 31.1291 136.01 31.2144 136.196 31.2765C136.382 31.3308 136.607 31.3618 136.878 31.3618H137.941V30.0276H136.397V29.0424ZM145.854 26.7773H147.04V29.9112C147.056 30.3068 147.071 30.5706 147.095 30.7025C147.133 30.9584 147.25 31.1291 147.459 31.2222C147.669 31.3153 148.026 31.3618 148.545 31.3618H149.678V32.347H148.421C147.832 32.347 147.397 32.316 147.126 32.2461C146.505 32.0677 146.117 31.6799 145.954 31.0748C145.892 30.8421 145.861 30.4542 145.854 29.9035V26.7695V26.7773ZM152.036 26.7773H153.223V29.9112C153.238 30.3068 153.254 30.5706 153.277 30.7025C153.316 30.9584 153.432 31.1291 153.642 31.2222C153.844 31.3153 154.208 31.3618 154.72 31.3618H155.853V32.347H154.596C154.006 32.347 153.572 32.316 153.3 32.2461C152.688 32.0677 152.292 31.6799 152.129 31.0748C152.067 30.8421 152.036 30.4542 152.028 29.9035V26.7695L152.036 26.7773ZM162.384 31.3696V32.3547H160.445C160.08 32.3547 159.793 32.3315 159.599 32.3004C158.917 32.1686 158.436 31.7885 158.141 31.1524C157.947 30.7335 157.854 30.206 157.854 29.5854C157.854 28.8407 158.001 28.2279 158.288 27.7547C158.498 27.4134 158.777 27.1729 159.126 27.0178C159.475 26.8626 159.933 26.785 160.491 26.785H162.376V27.7702H160.623C160.096 27.7702 159.708 27.9098 159.46 28.1969C159.258 28.4296 159.157 28.8562 159.157 29.4768C159.157 30.2991 159.312 30.8421 159.63 31.1058C159.855 31.2842 160.197 31.3773 160.67 31.3773H162.376L162.384 31.3696Z" fill="white"/>
<path fill-rule="evenodd" clip-rule="evenodd" d="M60.6712 5.02429L63.8672 0.757812H47.7942C46.5996 0.757812 45.5136 0.897442 44.5362 1.16895C43.5743 1.44045 42.7055 1.85158 41.9298 2.39459C41.123 2.95311 40.5334 3.60472 40.1378 4.3339C39.75 5.05532 39.556 5.87759 39.556 6.8007C39.556 7.72381 39.75 8.52281 40.1378 9.24423C40.5257 9.97341 41.123 10.6173 41.9298 11.1758C42.7055 11.7188 43.5743 12.1299 44.5362 12.4014C45.5136 12.6807 46.5996 12.8126 47.7942 12.8126H56.6375C57.0409 12.8126 57.4365 12.8436 57.8166 12.9056C58.1967 12.9677 58.5535 13.0608 58.8793 13.1849H58.8948C59.9964 13.6271 60.5394 14.333 60.5394 15.2871C60.5394 15.7758 60.3765 16.2102 60.0507 16.5903C59.7792 16.9084 59.3991 17.1721 58.9103 17.3816C58.569 17.529 58.2044 17.6453 57.8243 17.7151C57.4442 17.7927 57.0486 17.8315 56.6375 17.8315H41.0144L37.8262 22.0747H56.6375C57.9329 22.0747 59.1043 21.9196 60.1515 21.6093C61.1832 21.299 62.1063 20.8413 62.9208 20.2285C64.5964 18.9951 65.4342 17.3816 65.4342 15.388C65.4342 14.3718 65.2247 13.4564 64.8214 12.6497C64.4102 11.8274 63.7819 11.0905 62.9441 10.4466C62.1141 9.82602 61.1832 9.36059 60.1437 9.0503C59.0888 8.73225 57.9252 8.57711 56.6375 8.57711H47.7942C47.1969 8.57711 46.7237 8.44524 46.3669 8.18925C45.917 7.86344 45.692 7.40577 45.692 6.80846C45.692 6.21115 45.917 5.74572 46.3669 5.41991C46.7237 5.16392 47.2047 5.03205 47.7942 5.03205H60.6712V5.02429Z" fill="#3D9DCD"/>
<path fill-rule="evenodd" clip-rule="evenodd" d="M131.408 21.8582V3.03911C131.408 0.735215 127.677 0.238752 126.607 1.27047L113.993 15.2878L101.822 1.61954C100.302 -0.0870539 96.6172 0.890361 96.6172 3.01584V21.8582H101.877V9.95082L111.627 21.0902C111.837 21.2764 112.093 21.447 112.388 21.6099C112.969 21.9202 113.567 22.0754 114.18 22.0754C114.792 22.0754 115.266 21.9513 115.708 21.6953C116.003 21.5246 116.274 21.2919 116.522 21.0049L126.141 9.90427V21.8659H131.401L131.408 21.8582Z" fill="#3D9DCD"/>
<path fill-rule="evenodd" clip-rule="evenodd" d="M157.636 5.02429L160.832 0.757812H144.759C143.565 0.757812 142.479 0.897442 141.501 1.16895C140.539 1.44045 139.67 1.85158 138.895 2.39459C138.096 2.95311 137.498 3.60472 137.103 4.3339C136.715 5.05532 136.521 5.87759 136.521 6.8007C136.521 7.72381 136.715 8.52281 137.103 9.24423C137.491 9.97341 138.088 10.6173 138.895 11.1758C139.67 11.7188 140.539 12.1299 141.501 12.4014C142.479 12.6807 143.565 12.8126 144.759 12.8126H153.602C154.006 12.8126 154.401 12.8436 154.782 12.9056C155.169 12.9677 155.526 13.0608 155.844 13.1849H155.852C156.954 13.6271 157.504 14.333 157.504 15.2871C157.504 15.7758 157.341 16.2102 157.016 16.5903C156.744 16.9084 156.364 17.1721 155.875 17.3816C155.534 17.529 155.169 17.6453 154.789 17.7151C154.409 17.7927 154.014 17.8315 153.61 17.8315H137.995L134.807 22.0669H153.618C154.913 22.0669 156.085 21.9118 157.132 21.6015C158.164 21.2912 159.087 20.8335 159.901 20.2207C161.577 18.9873 162.415 17.3738 162.415 15.3802C162.415 14.364 162.205 13.4487 161.802 12.6419C161.391 11.8196 160.762 11.0827 159.925 10.4388C159.095 9.81826 158.164 9.35283 157.124 9.04254C156.069 8.7245 154.906 8.56935 153.618 8.56935H144.775C144.177 8.56935 143.704 8.43748 143.347 8.18149C142.897 7.85569 142.68 7.39801 142.68 6.8007C142.68 6.20339 142.905 5.73796 143.347 5.41216C143.704 5.15617 144.185 5.02429 144.775 5.02429H157.652H157.636Z" fill="#3D9DCD"/>
<path fill-rule="evenodd" clip-rule="evenodd" d="M87.3322 17.8176L86.4091 16.4756L80.7618 8.22961L80.118 7.28323L79.4664 8.22186L72.8339 17.8098L69.8939 22.0685H63.502L76.5341 3.00899C78.2795 -0.00857466 82.065 0.247416 83.888 3.00124L96.6176 22.0685H90.2334L87.3244 17.8098L87.3322 17.8176Z" fill="#3D9DCD"/>
</svg>
