<svg width="163" height="34" viewBox="0 0 163 34" fill="none" xmlns="http://www.w3.org/2000/svg">
<path d="M21.2079 21.0947C21.2079 21.0947 21.1845 21.1181 21.1768 21.1259L21.2079 21.1415V21.0947Z" fill="#414142"/>
<path d="M3.47524 15.0597V10.9871L14.2578 4.75805V0.747559L0 8.97799V13.0583V15.9983V16.9524L14.2578 25.1596V21.2577L3.47524 15.0597Z" fill="#3D9DCD"/>
<path d="M14.2578 21.2577V25.1518L21.0842 21.2112C21.0842 21.2112 21.1462 21.1569 21.1773 21.1181L17.8339 19.1865L14.2578 21.2499V21.2577ZM14.2578 0.747559V4.75805L25.0404 10.9871V13.4384L28.5156 15.4243V8.97799L14.2578 0.747559Z" fill="#3D9DCD"/>
<path d="M3.47524 23.4374V20.955L0 18.9614V25.4465L14.2578 33.6769V29.6587L3.47524 23.4374Z" fill="#A5A7AB"/>
<path d="M7.43098 13.2059C7.43098 13.2059 7.36892 13.2679 7.33789 13.299L10.6813 15.2305L14.2573 13.1671V9.27295L7.43098 13.2136V13.2059Z" fill="#A5A7AB"/>
<path d="M28.5156 17.4255L14.2578 9.26489V13.1668L25.0404 19.3338V23.4374L14.2578 29.6587V33.6769L28.5156 25.4465V17.4255Z" fill="white"/>
<path d="M40.1689 29.0409H42.8995V32.3533H40.4171C39.9827 32.3533 39.6414 32.3222 39.3932 32.2524C39.145 32.1904 38.9122 32.074 38.7106 31.9189C38.1288 31.469 37.834 30.6932 37.834 29.5839C37.834 28.8625 37.9736 28.2575 38.2529 27.7843C38.4623 27.4352 38.7416 27.1792 39.0907 27.0163C39.4475 26.8534 39.9052 26.7758 40.4792 26.7758H42.9072V27.761H40.6188C40.1301 27.761 39.7655 27.8696 39.5483 28.0868C39.2846 28.3428 39.1527 28.8005 39.1527 29.4676C39.1527 29.8089 39.1837 30.1192 39.2536 30.3907C39.3234 30.6622 39.4165 30.8716 39.5328 31.0035C39.6414 31.1276 39.7888 31.213 39.9672 31.275C40.1534 31.3293 40.3784 31.3604 40.6499 31.3604H41.7126V30.0261H40.1689V29.0409ZM49.8034 26.7758V27.761H48.2597C47.8563 27.761 47.5616 27.7843 47.3754 27.8463C47.197 27.9006 47.0418 28.0092 46.9177 28.1721C46.8324 28.2807 46.7781 28.3893 46.7548 28.5057C46.7238 28.6143 46.7005 28.8082 46.6772 29.0797H49.8112V30.0649H46.6772C46.716 30.5458 46.8557 30.8872 47.0961 31.0733C47.3366 31.2595 47.74 31.3604 48.314 31.3604H49.8034V32.3455H48.2597C47.8408 32.3455 47.4685 32.3222 47.1582 32.2679C46.654 32.1904 46.2583 31.9654 45.9636 31.6086C45.5447 31.0966 45.3352 30.4062 45.3352 29.5219C45.3352 28.5522 45.63 27.792 46.2273 27.2568C46.429 27.0784 46.6462 26.9465 46.8789 26.8767C47.1116 26.8069 47.4219 26.7681 47.8098 26.7681H49.8112L49.8034 26.7758ZM53.6045 28.2652V32.3533H52.4797V26.7758H53.9923L56.2109 30.9259V26.7758H57.3357V32.3533H55.8773L53.6045 28.2652ZM64.387 26.7758V27.761H62.8433C62.4399 27.761 62.1452 27.7843 61.959 27.8463C61.7806 27.9006 61.6254 28.0092 61.5013 28.1721C61.416 28.2807 61.3617 28.3893 61.3384 28.5057C61.3074 28.6143 61.2841 28.8082 61.2608 29.0797H64.3948V30.0649H61.2608C61.2996 30.5458 61.4393 30.8872 61.6797 31.0733C61.9202 31.2595 62.3236 31.3604 62.8976 31.3604H64.387V32.3455H62.8433C62.4244 32.3455 62.0521 32.3222 61.734 32.2679C61.2376 32.1904 60.8342 31.9654 60.5394 31.6086C60.1205 31.0966 59.9111 30.4062 59.9111 29.5219C59.9111 28.5522 60.2136 27.792 60.8032 27.2568C61.0049 27.0784 61.2221 26.9465 61.4548 26.8767C61.6875 26.8069 61.9978 26.7681 62.3856 26.7681H64.387V26.7758ZM68.2424 30.2278V32.3533H67.0555V26.7758H69.7783C70.5618 26.7758 71.1048 26.8767 71.4151 27.0706C71.6245 27.2025 71.7874 27.3809 71.9038 27.5981C72.0201 27.8153 72.0822 28.0558 72.0822 28.3273C72.0822 28.8548 71.9503 29.2659 71.6788 29.5529C71.5159 29.7236 71.291 29.8554 71.0117 29.9485C71.2289 30.0261 71.3918 30.1037 71.5082 30.189C71.6168 30.2743 71.7176 30.4062 71.8107 30.5769C71.8805 30.7087 71.9271 30.8329 71.9581 30.957C71.9814 31.0811 72.0124 31.2673 72.0279 31.5077C72.0589 31.9034 72.1055 32.1904 72.1598 32.3455H70.8255C70.7867 32.2137 70.748 31.9499 70.7014 31.5543C70.6704 31.2285 70.6083 30.9802 70.523 30.8018C70.4377 30.6312 70.3058 30.4915 70.1351 30.3985C69.9257 30.2821 69.6076 30.22 69.1965 30.2278H68.2424ZM68.2424 29.2426H69.9024C70.1817 29.2426 70.3756 29.2038 70.492 29.1185C70.6704 28.9944 70.7557 28.7772 70.7557 28.4669C70.7557 28.1256 70.6238 27.9084 70.3523 27.8075C70.2592 27.7765 70.1119 27.761 69.8947 27.761H68.2346V29.2426H68.2424ZM74.2232 32.3533L76.5271 26.7758H77.8924L80.1963 32.3533H78.8077L78.2725 31.0656H76.1547L75.6117 32.3533H74.2232ZM77.2175 28.1178L76.4263 30.0804H78.0087L77.2175 28.1178ZM82.4769 26.7758H83.6638V29.9098C83.6793 30.3054 83.6948 30.5691 83.7181 30.701C83.7568 30.957 83.8732 31.1276 84.0826 31.2207C84.2921 31.3138 84.6489 31.3604 85.1609 31.3604H86.2935V32.3455H85.0368C84.4472 32.3455 84.0128 32.3145 83.7413 32.2447C83.1285 32.0663 82.7329 31.6784 82.57 31.0733C82.5079 30.8406 82.4769 30.4528 82.4691 29.902V26.7681L82.4769 26.7758ZM94.0197 27.761H92.251V26.7758H97.0527V27.761H95.2065V32.3455H94.0197V27.761ZM100.575 30.2278V32.3533H99.3877V26.7758H102.11C102.894 26.7758 103.437 26.8767 103.747 27.0706C103.957 27.2025 104.12 27.3809 104.236 27.5981C104.352 27.8153 104.407 28.0558 104.407 28.3273C104.407 28.8548 104.275 29.2659 104.003 29.5529C103.84 29.7236 103.615 29.8554 103.344 29.9485C103.561 30.0261 103.724 30.1037 103.84 30.189C103.957 30.2743 104.05 30.4062 104.143 30.5769C104.213 30.7087 104.259 30.8329 104.29 30.957C104.314 31.0811 104.345 31.2673 104.36 31.5077C104.391 31.9034 104.438 32.1904 104.492 32.3455H103.158C103.119 32.2137 103.072 31.9499 103.034 31.5543C103.003 31.2285 102.94 30.9802 102.855 30.8018C102.77 30.6312 102.638 30.4915 102.467 30.3985C102.258 30.2821 101.94 30.22 101.529 30.2278H100.575ZM100.575 29.2426H102.242C102.522 29.2426 102.716 29.2038 102.832 29.1185C103.01 28.9944 103.096 28.7772 103.096 28.4669C103.096 28.1256 102.964 27.9084 102.7 27.8075C102.607 27.7765 102.452 27.761 102.242 27.761H100.575V29.2426ZM106.555 32.3533L108.859 26.7758H110.225L112.528 32.3533H111.14L110.605 31.0656H108.487L107.944 32.3533H106.555ZM109.542 28.1178L108.751 30.0804H110.333L109.542 28.1178ZM114.856 26.7758H117.222C117.811 26.7758 118.269 26.8379 118.595 26.9542C119.192 27.1714 119.588 27.5671 119.781 28.1489C119.937 28.591 120.006 29.072 120.006 29.5762C120.006 30.0804 119.937 30.5536 119.789 31.0035C119.642 31.4612 119.401 31.7948 119.068 32.012C118.858 32.1438 118.626 32.2369 118.37 32.2835C118.114 32.33 117.734 32.3533 117.214 32.3533H114.848V26.7758H114.856ZM116.042 27.761V31.3604H117.222C117.734 31.3604 118.098 31.244 118.292 31.0113C118.416 30.8716 118.509 30.6622 118.587 30.3985C118.664 30.1347 118.695 29.8554 118.695 29.5529C118.695 29.2271 118.649 28.9246 118.564 28.6453C118.478 28.3738 118.362 28.1644 118.214 28.0325C118.005 27.8463 117.671 27.7532 117.222 27.7532H116.042V27.761ZM122.582 26.7758H123.769V32.3533H122.582V26.7758ZM127.764 28.2652V32.3533H126.639V26.7758H128.159L130.378 30.9259V26.7758H131.503V32.3533H130.044L127.771 28.2652H127.764ZM136.397 29.0409H139.128V32.3533H136.646C136.211 32.3533 135.87 32.3222 135.622 32.2524C135.374 32.1904 135.141 32.074 134.939 31.9189C134.357 31.469 134.063 30.6932 134.063 29.5839C134.063 28.8625 134.202 28.2575 134.481 27.7843C134.691 27.4352 134.97 27.1792 135.319 27.0163C135.676 26.8534 136.134 26.7758 136.708 26.7758H139.136V27.761H136.84C136.343 27.761 135.986 27.8696 135.769 28.0868C135.505 28.3428 135.374 28.8005 135.374 29.4676C135.374 29.8089 135.405 30.1192 135.474 30.3907C135.544 30.6622 135.637 30.8716 135.754 31.0035C135.862 31.1276 136.01 31.213 136.196 31.275C136.382 31.3293 136.607 31.3604 136.878 31.3604H137.941V30.0261H136.397V29.0409ZM145.854 26.7758H147.04V29.9098C147.056 30.3054 147.071 30.5691 147.095 30.701C147.133 30.957 147.25 31.1276 147.459 31.2207C147.669 31.3138 148.026 31.3604 148.545 31.3604H149.678V32.3455H148.421C147.832 32.3455 147.397 32.3145 147.126 32.2447C146.505 32.0663 146.117 31.6784 145.954 31.0733C145.892 30.8406 145.861 30.4528 145.854 29.902V26.7681V26.7758ZM152.036 26.7758H153.223V29.9098C153.238 30.3054 153.254 30.5691 153.277 30.701C153.316 30.957 153.432 31.1276 153.642 31.2207C153.844 31.3138 154.208 31.3604 154.72 31.3604H155.853V32.3455H154.596C154.006 32.3455 153.572 32.3145 153.3 32.2447C152.688 32.0663 152.292 31.6784 152.129 31.0733C152.067 30.8406 152.036 30.4528 152.028 29.902V26.7681L152.036 26.7758ZM162.384 31.3681V32.3533H160.445C160.08 32.3533 159.793 32.33 159.599 32.299C158.917 32.1671 158.436 31.787 158.141 31.1509C157.947 30.732 157.854 30.2045 157.854 29.5839C157.854 28.8392 158.001 28.2264 158.288 27.7532C158.498 27.4119 158.777 27.1714 159.126 27.0163C159.475 26.8612 159.933 26.7836 160.491 26.7836H162.376V27.7688H160.623C160.096 27.7688 159.708 27.9084 159.46 28.1954C159.258 28.4281 159.157 28.8548 159.157 29.4753C159.157 30.2976 159.312 30.8406 159.63 31.1044C159.855 31.2828 160.197 31.3759 160.67 31.3759H162.376L162.384 31.3681Z" fill="white"/>
<path fill-rule="evenodd" clip-rule="evenodd" d="M60.6712 5.02454L63.8672 0.758057H47.7942C46.5996 0.758057 45.5136 0.897686 44.5362 1.16919C43.5743 1.44069 42.7055 1.85182 41.9298 2.39483C41.123 2.95335 40.5334 3.60496 40.1378 4.33414C39.75 5.05556 39.556 5.87783 39.556 6.80094C39.556 7.72406 39.75 8.52305 40.1378 9.24447C40.5257 9.97365 41.123 10.6175 41.9298 11.176C42.7055 11.719 43.5743 12.1302 44.5362 12.4017C45.5136 12.6809 46.5996 12.8128 47.7942 12.8128H56.6375C57.0409 12.8128 57.4365 12.8438 57.8166 12.9059C58.1967 12.9679 58.5535 13.061 58.8793 13.1852H58.8948C59.9964 13.6273 60.5394 14.3332 60.5394 15.2874C60.5394 15.7761 60.3765 16.2105 60.0507 16.5906C59.7792 16.9086 59.3991 17.1724 58.9103 17.3818C58.569 17.5292 58.2044 17.6456 57.8243 17.7154C57.4442 17.793 57.0486 17.8317 56.6375 17.8317H41.0144L37.8262 22.0749H56.6375C57.9329 22.0749 59.1043 21.9198 60.1515 21.6095C61.1832 21.2992 62.1063 20.8415 62.9208 20.2287C64.5964 18.9953 65.4342 17.3818 65.4342 15.3882C65.4342 14.372 65.2247 13.4567 64.8214 12.6499C64.4102 11.8276 63.7819 11.0907 62.9441 10.4468C62.1141 9.82627 61.1832 9.36083 60.1437 9.05054C59.0888 8.73249 57.9252 8.57735 56.6375 8.57735H47.7942C47.1969 8.57735 46.7237 8.44548 46.3669 8.18949C45.917 7.86369 45.692 7.40601 45.692 6.8087C45.692 6.2114 45.917 5.74596 46.3669 5.42016C46.7237 5.16417 47.2047 5.03229 47.7942 5.03229H60.6712V5.02454Z" fill="#3D9DCD"/>
<path fill-rule="evenodd" clip-rule="evenodd" d="M131.408 21.8577V3.03863C131.408 0.734727 127.677 0.238264 126.607 1.26998L113.993 15.2873L101.822 1.61905C100.302 -0.0875422 96.6172 0.889872 96.6172 3.01536V21.8577H101.877V9.95033L111.627 21.0897C111.837 21.2759 112.093 21.4466 112.388 21.6095C112.969 21.9197 113.567 22.0749 114.18 22.0749C114.792 22.0749 115.266 21.9508 115.708 21.6948C116.003 21.5241 116.274 21.2914 116.522 21.0044L126.141 9.90378V21.8654H131.401L131.408 21.8577Z" fill="#3D9DCD"/>
<path fill-rule="evenodd" clip-rule="evenodd" d="M157.636 5.02454L160.832 0.758057H144.759C143.565 0.758057 142.479 0.897686 141.501 1.16919C140.539 1.44069 139.67 1.85182 138.895 2.39483C138.096 2.95335 137.498 3.60496 137.103 4.33414C136.715 5.05556 136.521 5.87783 136.521 6.80094C136.521 7.72406 136.715 8.52305 137.103 9.24447C137.491 9.97365 138.088 10.6175 138.895 11.176C139.67 11.719 140.539 12.1302 141.501 12.4017C142.479 12.6809 143.565 12.8128 144.759 12.8128H153.602C154.006 12.8128 154.401 12.8438 154.782 12.9059C155.169 12.9679 155.526 13.061 155.844 13.1852H155.852C156.954 13.6273 157.504 14.3332 157.504 15.2874C157.504 15.7761 157.341 16.2105 157.016 16.5906C156.744 16.9086 156.364 17.1724 155.875 17.3818C155.534 17.5292 155.169 17.6456 154.789 17.7154C154.409 17.793 154.014 17.8317 153.61 17.8317H137.995L134.807 22.0672H153.618C154.913 22.0672 156.085 21.912 157.132 21.6018C158.164 21.2915 159.087 20.8338 159.901 20.221C161.577 18.9876 162.415 17.3741 162.415 15.3805C162.415 14.3643 162.205 13.4489 161.802 12.6421C161.391 11.8199 160.762 11.0829 159.925 10.4391C159.095 9.81851 158.164 9.35308 157.124 9.04279C156.069 8.72474 154.906 8.5696 153.618 8.5696H144.775C144.177 8.5696 143.704 8.43772 143.347 8.18173C142.897 7.85593 142.68 7.39825 142.68 6.80094C142.68 6.20364 142.905 5.7382 143.347 5.4124C143.704 5.15641 144.185 5.02454 144.775 5.02454H157.652H157.636Z" fill="#3D9DCD"/>
<path fill-rule="evenodd" clip-rule="evenodd" d="M87.3322 17.8161L86.4091 16.4741L80.7618 8.22815L80.118 7.28177L79.4664 8.22039L72.8339 17.8083L69.8939 22.0671H63.502L76.5341 3.00753C78.2795 -0.0100395 82.065 0.245951 83.888 2.99977L96.6176 22.0671H90.2334L87.3244 17.8083L87.3322 17.8161Z" fill="#3D9DCD"/>
</svg>
