<svg width="14" height="14" viewBox="0 0 14 14" fill="none" xmlns="http://www.w3.org/2000/svg">
<path d="M14 8.75V13.4167C14 13.5714 13.9385 13.7197 13.8291 13.8291C13.7197 13.9385 13.5714 14 13.4167 14H0.583333C0.428624 14 0.280251 13.9385 0.170854 13.8291C0.0614583 13.7197 0 13.5714 0 13.4167V8.75C0 8.59529 0.0614583 8.44692 0.170854 8.33752C0.280251 8.22812 0.428624 8.16667 0.583333 8.16667C0.738043 8.16667 0.886416 8.22812 0.995812 8.33752C1.10521 8.44692 1.16667 8.59529 1.16667 8.75V12.8333H12.8333V8.75C12.8333 8.59529 12.8948 8.44692 13.0042 8.33752C13.1136 8.22812 13.262 8.16667 13.4167 8.16667C13.5714 8.16667 13.7197 8.22812 13.8291 8.33752C13.9385 8.44692 14 8.59529 14 8.75ZM6.58729 9.16271C6.64147 9.21694 6.7058 9.25997 6.77662 9.28933C6.84743 9.31868 6.92334 9.33379 7 9.33379C7.07666 9.33379 7.15257 9.31868 7.22338 9.28933C7.2942 9.25997 7.35853 9.21694 7.41271 9.16271L10.3294 6.24604C10.3836 6.19184 10.4266 6.1275 10.4559 6.05669C10.4852 5.98588 10.5003 5.90998 10.5003 5.83333C10.5003 5.75669 10.4852 5.68079 10.4559 5.60998C10.4266 5.53916 10.3836 5.47482 10.3294 5.42062C10.2752 5.36643 10.2108 5.32343 10.14 5.2941C10.0692 5.26477 9.99331 5.24968 9.91667 5.24968C9.84002 5.24968 9.76412 5.26477 9.69331 5.2941C9.6225 5.32343 9.55816 5.36643 9.50396 5.42062L7.58333 7.34198V0.583333C7.58333 0.428624 7.52188 0.280251 7.41248 0.170854C7.30308 0.0614581 7.15471 0 7 0C6.84529 0 6.69692 0.0614581 6.58752 0.170854C6.47812 0.280251 6.41667 0.428624 6.41667 0.583333V7.34198L4.49604 5.42062C4.38658 5.31117 4.23813 5.24968 4.08333 5.24968C3.92854 5.24968 3.78008 5.31117 3.67062 5.42062C3.56117 5.53008 3.49968 5.67854 3.49968 5.83333C3.49968 5.98813 3.56117 6.13658 3.67062 6.24604L6.58729 9.16271Z" fill="#3D9DCD"/>
</svg>
