<svg width="41" height="41" viewBox="0 0 41 41" fill="none" xmlns="http://www.w3.org/2000/svg">
<rect width="40.85" height="40.85" rx="20.425" fill="#B5E4CA"/>
<path d="M14.8014 26.5266C13.1112 24.9692 12.127 22.776 12.127 20.4246C12.127 18.2239 13.0012 16.1134 14.5573 14.5573C16.1134 13.0012 18.2239 12.127 20.4246 12.127C22.6253 12.127 24.7358 13.0012 26.292 14.5573C27.8481 16.1134 28.7223 18.2239 28.7223 20.4246C28.7223 22.8667 27.6602 25.1377 25.85 26.7028L25.633 26.884C24.1713 28.0649 22.3471 28.7223 20.4246 28.7223C18.4051 28.7223 16.4954 27.9972 14.9992 26.7028L14.8014 26.5266ZM20.4246 24.5735C18.9961 24.5735 17.7387 25.0637 16.7864 25.9419L16.7647 25.9624L16.9294 26.0696C17.9013 26.6731 19.0134 27.0136 20.1565 27.0576L20.4246 27.0627C21.682 27.0627 22.8846 26.713 23.9198 26.0696L24.0832 25.9624L24.0628 25.9419C23.1641 25.1122 21.9922 24.6283 20.6608 24.5773L20.4246 24.5735ZM20.4246 13.7865C18.6641 13.7865 16.9756 14.4859 15.7307 15.7307C14.4859 16.9756 13.7865 18.6641 13.7865 20.4246C13.7843 22.0096 14.3515 23.5426 15.3847 24.7445L15.5009 24.8747L15.5354 24.8415C16.7481 23.6645 18.3591 22.9777 20.1668 22.9177L20.4246 22.9139C22.3369 22.9139 24.045 23.6096 25.3151 24.8428L25.3483 24.876L25.4645 24.7458C26.4406 23.61 27.0023 22.1765 27.0576 20.6799L27.0627 20.4246C27.0627 18.6641 26.3634 16.9756 25.1185 15.7307C23.8736 14.4859 22.1852 13.7865 20.4246 13.7865ZM20.4246 15.446C20.8605 15.446 21.2921 15.5319 21.6948 15.6987C22.0975 15.8655 22.4633 16.1099 22.7716 16.4182C23.0798 16.7264 23.3242 17.0922 23.491 17.4949C23.6578 17.8976 23.7437 18.3292 23.7437 18.7651C23.7437 19.201 23.6578 19.6325 23.491 20.0352C23.3242 20.4379 23.0798 20.8038 22.7716 21.112C22.4633 21.4202 22.0975 21.6647 21.6948 21.8315C21.2921 21.9983 20.8605 22.0842 20.4246 22.0842C19.5443 22.0842 18.7001 21.7345 18.0777 21.112C17.4552 20.4896 17.1056 19.6454 17.1056 18.7651C17.1056 17.8848 17.4552 17.0406 18.0777 16.4182C18.7001 15.7957 19.5443 15.446 20.4246 15.446ZM20.4246 17.1056C19.9845 17.1056 19.5624 17.2804 19.2512 17.5916C18.9399 17.9028 18.7651 18.3249 18.7651 18.7651C18.7651 19.2052 18.9399 19.6273 19.2512 19.9386C19.5624 20.2498 19.9845 20.4246 20.4246 20.4246C20.8648 20.4246 21.2869 20.2498 21.5981 19.9386C21.9093 19.6273 22.0842 19.2052 22.0842 18.7651C22.0842 18.3249 21.9093 17.9028 21.5981 17.5916C21.2869 17.2804 20.8648 17.1056 20.4246 17.1056Z" fill="black"/>
</svg>
