<svg width="118" height="47" viewBox="0 0 118 47" fill="none" xmlns="http://www.w3.org/2000/svg">
<rect width="118" height="47" fill="white"/>
<g clip-path="url(#clip0_1807_320)">
<path d="M29.4719 28.7302C29.2503 28.5663 29.1443 28.2869 29.2021 28.0074C29.7418 25.5307 33.2207 13.6097 50.9432 10.0343C68.9548 6.41083 84.0753 16.0189 86.687 17.8018C86.9375 17.9753 87.0532 18.274 86.9761 18.5631C86.34 21.1362 82.5334 33.221 66.0445 36.3338C48.1389 39.726 33.5773 31.7273 29.4719 28.7302Z" fill="#162789"/>
<path d="M64.493 23.0546C63.8184 23.0546 63.2402 23.3244 62.8451 23.8255C62.4692 24.2977 62.2765 24.9434 62.2765 25.7047C62.2765 27.3238 63.1727 28.3357 64.599 28.3357C65.3796 28.3357 66.0927 28.008 66.4879 27.4683C66.5457 27.3912 66.5457 27.3141 66.4782 27.2467L66.2084 26.9576C66.1698 26.919 66.1313 26.8997 66.0831 26.8997C66.0349 26.8997 65.9964 26.919 65.9578 26.9576C65.6013 27.3141 65.1869 27.4972 64.705 27.4972C64.2906 27.4972 63.9533 27.372 63.7124 27.1214C63.4426 26.8419 63.2884 26.4179 63.2787 25.8878H66.3722C66.4782 25.8878 66.5457 25.8204 66.5457 25.724C66.6035 24.8567 66.4011 24.1339 65.9578 23.6617C65.5916 23.2569 65.0809 23.0546 64.493 23.0546ZM64.4834 23.9026C64.7917 23.9026 65.0423 23.999 65.2254 24.1821C65.4278 24.3845 65.5434 24.6929 65.5723 25.0687H63.298C63.3944 24.2688 63.9341 23.9026 64.4834 23.9026ZM57.9205 23.4208L57.6507 23.9123C57.6025 23.999 57.5447 24.0183 57.458 23.999C57.3134 23.9604 57.1689 23.9412 57.0339 23.9412C56.4557 23.9412 55.8389 24.3748 55.8389 25.512V28.0947C55.8389 28.2007 55.7619 28.2682 55.6655 28.2682H55.0102C54.9138 28.2682 54.8367 28.2007 54.8367 28.0947V25.4156C54.8367 24.3363 54.6729 23.7002 54.2681 23.3244C54.2199 23.2762 54.1621 23.2473 54.1717 23.1798C54.191 23.1027 54.2874 23.0738 54.3645 23.0642C54.9138 23.016 55.386 23.3919 55.6077 23.893C55.945 23.3629 56.5039 23.0546 57.1689 23.0546C57.4001 23.0546 57.6218 23.0931 57.8338 23.1606C57.9013 23.1798 57.9398 23.2088 57.9591 23.2569C57.9591 23.3148 57.9398 23.3726 57.9205 23.4208ZM61.8525 26.7455C61.8525 27.2274 61.6693 27.6225 61.3321 27.8924C60.9948 28.1718 60.484 28.326 59.8865 28.326C59.0192 28.326 58.2868 28.0369 57.8145 27.5454C57.7567 27.478 57.7471 27.3912 57.8145 27.3045L58.1229 26.9672C58.2 26.8805 58.2771 26.8901 58.3542 26.9576C58.7686 27.2949 59.289 27.4683 59.8576 27.4683C60.5129 27.4683 60.8598 27.2081 60.8598 26.7937C60.8598 26.5432 60.7346 26.3601 60.4744 26.2444C60.1178 26.0806 59.5492 26.042 59.0095 25.8782C58.3446 25.6855 57.9591 25.2807 57.9591 24.6158C57.9591 24.1917 58.1518 23.787 58.5084 23.4882C58.865 23.1895 59.2986 23.0449 59.8769 23.0449C60.5996 23.0449 61.2357 23.2955 61.6886 23.7002C61.7272 23.7388 61.7464 23.7773 61.7464 23.8255C61.7464 23.8737 61.7368 23.9123 61.6983 23.9508L61.3899 24.2881C61.3321 24.3556 61.2357 24.3652 61.1682 24.3074C60.8406 24.0472 60.378 23.893 59.9154 23.893C59.2986 23.893 58.9517 24.1339 58.9517 24.5387C58.9517 24.7892 59.1348 24.9338 59.4239 25.0302C59.8961 25.1747 60.4551 25.194 60.9755 25.4156C61.573 25.6566 61.8525 26.1191 61.8525 26.7455ZM71.3546 23.3533C71.3353 23.4015 69.7259 27.6418 69.5332 28.1333C69.167 29.0681 68.9742 29.5017 68.4827 29.9354C67.8852 30.4654 67.0083 30.5522 66.4011 30.4654C66.3433 30.4558 66.2951 30.4365 66.2662 30.3883C66.2373 30.3498 66.2373 30.292 66.2566 30.2245L66.4011 29.8198C66.43 29.733 66.4975 29.6945 66.5842 29.7041C67.0564 29.7427 67.4612 29.6367 67.7985 29.3765C68.0683 29.1644 68.2996 28.8271 68.4635 28.3164L66.5746 23.3533C66.5553 23.2955 66.5553 23.2377 66.5842 23.1895C66.6131 23.1413 66.6806 23.122 66.7384 23.122H67.4419C67.5383 23.122 67.5768 23.1702 67.6058 23.2377L68.9935 26.9961L70.3812 23.2377C70.4005 23.1798 70.4487 23.122 70.545 23.122H71.1907C71.2582 23.122 71.3064 23.1413 71.3449 23.1895C71.3738 23.2377 71.3738 23.3051 71.3546 23.3533ZM45.4791 27.9598C45.4984 28.0465 45.4888 28.0851 45.4117 28.1429C45.2479 28.2586 45.0069 28.326 44.766 28.326C44.3131 28.326 43.7734 28.1429 43.7734 27.2659V23.2955C43.7734 23.1895 43.8505 23.122 43.9469 23.122H44.6118C44.7178 23.122 44.7853 23.1991 44.7853 23.2955V27.0539C44.7853 27.2852 44.8335 27.4394 44.9298 27.5358C44.9973 27.6032 45.1226 27.6418 45.2768 27.6322C45.3442 27.6322 45.3731 27.6322 45.4021 27.6514C45.431 27.6707 45.4406 27.7092 45.4502 27.7671L45.4791 27.9598ZM42.1447 21.7825C42.829 22.4378 43.1566 23.3533 43.1566 24.5772C43.1566 25.8011 42.9061 26.6588 42.3375 27.3045C41.7496 27.9694 40.9401 28.2682 39.6777 28.2682H37.7792C37.6732 28.2682 37.6057 28.2007 37.6057 28.0947V22.5534C37.6057 22.2065 37.9334 22.1583 38.4345 22.1198C38.4923 22.1198 38.5405 22.1198 38.579 22.1583C38.6079 22.1872 38.6272 22.2354 38.6272 22.2932V27.3816H39.5813C40.4872 27.3816 41.075 27.1792 41.4991 26.6877C41.8653 26.2637 42.0966 25.5891 42.0966 24.5772C42.0966 23.6906 41.8653 22.9871 41.4123 22.486C40.9016 21.927 40.1113 21.6476 39.0705 21.6476C38.7429 21.6476 38.2321 21.6765 37.7888 21.7632C37.7406 21.7728 37.6828 21.7728 37.6346 21.7439C37.5864 21.7054 37.5864 21.6476 37.5864 21.5994V21.2428C37.5864 21.1272 37.6346 21.0597 37.7406 21.0308C38.2225 20.8862 38.7332 20.8284 39.3885 20.8284C40.6125 20.8284 41.4701 21.1368 42.1447 21.7825ZM43.5903 21.6668C43.5903 21.3006 43.8987 21.0115 44.2649 21.0115C44.6311 21.0115 44.9395 21.3103 44.9395 21.6668C44.9395 22.0234 44.6311 22.3222 44.2649 22.3222C43.8987 22.3318 43.5903 22.033 43.5903 21.6668ZM47.3776 28.2875C47.1174 28.2875 47.0114 28.2296 46.9054 27.9598L45.1611 23.3533C45.1419 23.3051 45.1419 23.2377 45.1708 23.1991C45.1997 23.1509 45.2575 23.1317 45.325 23.1317H46.0285C46.1056 23.1317 46.1634 23.1798 46.1923 23.2473L47.58 27.0154L48.9678 23.2473C48.9967 23.1798 49.0641 23.1317 49.1316 23.1317H49.7773C49.8447 23.1317 49.9025 23.1509 49.9315 23.1991C49.9604 23.2473 49.97 23.3051 49.9411 23.3726L48.1968 27.9694C48.0908 28.2393 47.9848 28.2971 47.7246 28.2971H47.3776V28.2875ZM52.0709 23.0642C51.3963 23.0642 50.8181 23.334 50.4229 23.8352C50.0471 24.3074 49.8544 24.9531 49.8544 25.7144C49.8544 27.3334 50.7506 28.3453 52.1769 28.3453C52.9575 28.3453 53.6706 28.0176 54.0657 27.478C54.1236 27.4009 54.1236 27.3238 54.0561 27.2563L53.7863 26.9672C53.7477 26.9286 53.7092 26.9094 53.661 26.9094C53.6128 26.9094 53.5742 26.9286 53.5357 26.9672C53.1791 27.3238 52.7647 27.5069 52.2829 27.5069C51.8685 27.5069 51.5312 27.3816 51.2903 27.131C51.0204 26.8516 50.8662 26.4275 50.8566 25.8975H53.9501C54.0561 25.8975 54.1139 25.83 54.1236 25.7337C54.1814 24.8663 53.979 24.1435 53.5357 23.6713C53.1695 23.2569 52.6587 23.0642 52.0709 23.0642ZM52.0612 23.9026C52.3696 23.9026 52.6202 23.999 52.8033 24.1821C53.0057 24.3845 53.1213 24.6929 53.1502 25.0687H50.8855C50.9723 24.2688 51.5119 23.9026 52.0612 23.9026ZM69.6777 16.7423C69.6681 16.6652 69.6874 16.6363 69.7645 16.6459C71.2775 16.6749 72.6266 17.1663 73.4554 18.1686C73.5036 18.2264 73.4265 18.3131 73.3591 18.2553C72.3761 17.494 71.2967 17.1182 70.1307 17.07C70.1596 17.5036 70.2848 18.13 70.5836 18.7372C70.6221 18.8143 70.5065 18.8721 70.4679 18.8143C70.0825 18.3131 69.7741 17.5615 69.6777 16.7423ZM72.9832 21.5608C70.7089 21.6186 69.5621 20.761 68.8682 19.7491C69.7645 19.431 71.1811 19.2672 72.617 19.7491C72.6941 19.778 72.7423 19.672 72.6845 19.6334C71.4702 18.8817 69.6199 18.9974 68.3574 19.5178C68.2803 19.5467 68.2707 19.5852 68.3189 19.6623C69.5428 21.6861 71.4798 21.9945 73.0025 21.7054C73.0796 21.6861 73.0796 21.5608 72.9832 21.5608ZM83.2563 20.3562C83.1985 20.2984 83.1406 20.2598 83.0828 20.2213C82.1288 19.566 80.9723 19.1612 79.7291 19.0745C79.3918 19.0456 79.3147 18.9588 78.8907 18.5926C78.3607 18.1397 77.8596 17.9662 77.2331 17.9855C76.6742 18.0048 76.1152 18.2553 75.7201 18.5444C75.1034 16.723 73.7831 15.2775 72.2412 14.4391C72.1833 14.4102 72.1544 14.4294 72.1448 14.4872C71.9521 15.0655 71.9328 16.0581 72.0677 16.8098C72.087 16.8965 72.2123 16.8869 72.2123 16.8001C72.2219 16.0292 72.2894 15.3257 72.4339 15.0173C73.7542 15.8364 74.8143 17.1471 75.3732 18.7083C75.431 18.8625 75.4696 19.0167 75.5081 19.1708L75.5178 19.1612C76.0767 18.6986 76.6742 18.3902 77.3006 18.3806C78.139 18.371 78.5245 18.795 78.91 19.0745C77.8885 19.1227 76.626 19.5756 75.7105 20.1538C76.0382 22.698 74.8721 24.9531 72.9447 25.9553C72.8579 24.0183 73.5614 21.4355 74.7179 19.9322C74.7661 19.8647 74.6697 19.778 74.6022 19.8454C73.0603 21.3777 72.3086 24.0954 72.5592 26.4372C72.5688 26.5432 72.5977 26.5528 72.6941 26.5143C75.0455 25.5987 76.414 23.1702 76.1442 20.3562C76.9633 19.9129 78.0812 19.4407 79.4111 19.4214C80.6832 19.4021 81.8493 19.7105 83.0057 20.3562C83.0732 20.3947 83.131 20.4237 83.1888 20.4622C83.2466 20.5104 83.3237 20.4237 83.2563 20.3562Z" fill="white"/>
<path d="M82.312 12.0013C82.3024 12.0495 82.2735 12.0495 82.2446 12.0495H81.8398V13.3891C81.8398 13.4276 81.8205 13.4565 81.7723 13.4565H81.5989C81.5507 13.4565 81.5314 13.4373 81.5314 13.3891V12.0495H81.1267C81.0881 12.0495 81.0688 12.0399 81.0688 12.0013V11.8761C81.0688 11.8375 81.0881 11.8182 81.117 11.8182H82.2638C82.3024 11.8182 82.3217 11.8279 82.3217 11.8568V11.8761L82.312 12.0013ZM84.066 13.4565H83.9021C83.854 13.4565 83.8347 13.4276 83.8347 13.3794L83.8154 12.3675L83.401 13.418C83.3914 13.4565 83.3625 13.4565 83.3432 13.4565H83.2468C83.2179 13.4565 83.1986 13.4469 83.1794 13.4083L82.7264 12.3579L82.7168 13.3987C82.7168 13.4469 82.6975 13.4565 82.6493 13.4565H82.4951C82.4566 13.4565 82.4469 13.4373 82.4469 13.3987V13.3891L82.4855 11.8761C82.4855 11.8279 82.5048 11.8086 82.5433 11.8086H82.6879C82.7361 11.8086 82.7553 11.8279 82.765 11.8568L83.295 13.071L83.7961 11.8568C83.8058 11.8182 83.8154 11.8086 83.8636 11.8086H84.0178C84.0563 11.8086 84.0756 11.8279 84.0756 11.8664L84.1238 13.3794V13.3891C84.1334 13.4373 84.1142 13.4565 84.066 13.4565Z" fill="#162789"/>
</g>
<defs>
<clipPath id="clip0_1807_320">
<rect width="57.8135" height="27.932" fill="white" transform="translate(29.1865 9.22461)"/>
</clipPath>
</defs>
</svg>
