<svg width="118" height="47" viewBox="0 0 118 47" fill="none" xmlns="http://www.w3.org/2000/svg">
<rect width="118" height="47" fill="white"/>
<g clip-path="url(#clip0_1785_343)">
<path d="M79 4H40V43H79V4Z" fill="#FF8300"/>
<path d="M75.7691 20.0113H75.9922C76.1047 20.0113 76.2371 20.0277 76.2371 20.1637C76.2371 20.2997 76.1155 20.3451 75.9759 20.3451H75.7691V20.0113ZM75.7691 20.4993H75.9505L76.2425 20.9818H76.4529L76.1373 20.4866C76.2189 20.4866 76.2969 20.4557 76.3532 20.3977C76.4094 20.3397 76.4366 20.2598 76.4312 20.1782C76.4312 19.9497 76.2915 19.8535 76.0194 19.8535H75.5913V20.9818H75.7727L75.7691 20.4993Z" fill="white"/>
<path d="M75.9705 19.5563C76.3169 19.5327 76.6416 19.7214 76.7886 20.0352C76.9391 20.349 76.8811 20.7209 76.6434 20.973C76.4058 21.227 76.0394 21.3104 75.7165 21.1834C75.3936 21.0564 75.1814 20.7444 75.1814 20.398C75.1687 20.1803 75.2431 19.9663 75.3918 19.8084C75.5406 19.6488 75.7492 19.5581 75.9668 19.5581M75.9705 21.4174C76.3841 21.4247 76.7614 21.1798 76.9228 20.7989C77.0861 20.4179 77.0026 19.9771 76.7124 19.6833C76.4221 19.3876 75.9832 19.2987 75.6004 19.4547C75.2177 19.6107 74.9674 19.9844 74.9674 20.398C74.9583 20.6683 75.0599 20.9313 75.2503 21.1236C75.4408 21.3158 75.7002 21.4229 75.9705 21.4174Z" fill="white"/>
<path d="M52.1245 21.4133H52.1481L53.182 24.4227H51.0633L52.1245 21.4133ZM49.9477 27.5916L50.5917 25.765H53.6573L54.2777 27.5916H56.1497L53.0841 19.3926H51.2338L48.1211 27.5916H49.9477Z" fill="white"/>
<path d="M44.6435 27.5916H46.4465V20.9072H48.9044V19.3926H42.1855V20.9072H44.6435V27.5916Z" fill="white"/>
<path d="M59.9043 26.3878C58.9393 26.3878 58.0903 25.9633 58.0903 24.8713H56.3435C56.3199 26.8921 58.0196 27.7881 59.8354 27.7881C62.0629 27.7881 63.2456 26.6635 63.2456 25.1579C63.2456 23.2986 61.4081 22.9177 60.8113 22.7689C58.7561 22.2411 58.3642 22.1613 58.3642 21.5282C58.3642 20.8407 59.03 20.5976 59.605 20.5976C60.4666 20.5976 61.1668 20.8498 61.2249 21.8384H62.9699C62.9699 19.9446 61.3972 19.1973 59.6848 19.1973C58.2028 19.1973 56.6192 20.0008 56.6192 21.6769C56.6192 23.217 57.8473 23.6868 59.0662 24.0079C60.2852 24.3289 61.4951 24.4795 61.4951 25.3647C61.4951 26.2028 60.5301 26.3878 59.8989 26.3878" fill="white"/>
<path d="M74.409 19.3457H72.606V27.5448H74.409V19.3457Z" fill="white"/>
<path d="M66.1152 24.9505L67.1492 23.9057L69.618 27.5916H71.8818L68.3663 22.6305L71.5716 19.3926H69.3205L66.1152 22.7901V19.3926H64.314V27.5916H66.1152V24.9505Z" fill="white"/>
</g>
<defs>
<clipPath id="clip0_1785_343">
<rect width="39" height="39" fill="white" transform="translate(40 4)"/>
</clipPath>
</defs>
</svg>
