<svg width="163" height="33" viewBox="0 0 163 33" fill="none" xmlns="http://www.w3.org/2000/svg">
<path d="M21.2079 20.3823C21.2079 20.3823 21.1845 20.4057 21.1768 20.4135L21.2079 20.4291V20.3823Z" fill="#414142"/>
<path d="M3.47524 14.3473V10.2747L14.2578 4.04565V0.0351562L0 8.26559V12.3459V15.2859V16.24L14.2578 24.4472V20.5453L3.47524 14.3473Z" fill="#3D9DCD"/>
<path d="M14.2578 20.5453V24.4394L21.0842 20.4988C21.0842 20.4988 21.1462 20.4445 21.1773 20.4057L17.8339 18.4741L14.2578 20.5375V20.5453ZM14.2578 0.0351562V4.04565L25.0404 10.2747V12.726L28.5156 14.7119V8.26559L14.2578 0.0351562Z" fill="#3D9DCD"/>
<path d="M3.47524 22.725V20.2426L0 18.249V24.7341L14.2578 32.9645V28.9463L3.47524 22.725Z" fill="#A5A7AB"/>
<path d="M7.43098 12.4935C7.43098 12.4935 7.36892 12.5555 7.33789 12.5866L10.6813 14.5181L14.2573 12.4547V8.56055L7.43098 12.5012V12.4935Z" fill="#A5A7AB"/>
<path d="M28.5156 16.7131L14.2578 8.55249V12.4544L25.0404 18.6214V22.725L14.2578 28.9463V32.9645L28.5156 24.7341V16.7131Z" fill="black"/>
<path d="M40.1689 28.3285H42.8995V31.6409H40.4171C39.9827 31.6409 39.6414 31.6098 39.3932 31.54C39.145 31.478 38.9122 31.3616 38.7106 31.2065C38.1288 30.7566 37.834 29.9808 37.834 28.8715C37.834 28.1501 37.9736 27.5451 38.2529 27.0719C38.4623 26.7228 38.7416 26.4668 39.0907 26.3039C39.4475 26.141 39.9052 26.0634 40.4792 26.0634H42.9072V27.0486H40.6188C40.1301 27.0486 39.7655 27.1572 39.5483 27.3744C39.2846 27.6304 39.1527 28.0881 39.1527 28.7552C39.1527 29.0965 39.1837 29.4068 39.2536 29.6783C39.3234 29.9498 39.4165 30.1592 39.5328 30.2911C39.6414 30.4152 39.7888 30.5006 39.9672 30.5626C40.1534 30.6169 40.3784 30.6479 40.6499 30.6479H41.7126V29.3137H40.1689V28.3285ZM49.8034 26.0634V27.0486H48.2597C47.8563 27.0486 47.5616 27.0719 47.3754 27.1339C47.197 27.1882 47.0418 27.2968 46.9177 27.4597C46.8324 27.5683 46.7781 27.6769 46.7548 27.7933C46.7238 27.9019 46.7005 28.0958 46.6772 28.3673H49.8112V29.3525H46.6772C46.716 29.8334 46.8557 30.1748 47.0961 30.3609C47.3366 30.5471 47.74 30.6479 48.314 30.6479H49.8034V31.6331H48.2597C47.8408 31.6331 47.4685 31.6098 47.1582 31.5555C46.654 31.478 46.2583 31.253 45.9636 30.8962C45.5447 30.3842 45.3352 29.6938 45.3352 28.8095C45.3352 27.8398 45.63 27.0796 46.2273 26.5444C46.429 26.366 46.6462 26.2341 46.8789 26.1643C47.1116 26.0944 47.4219 26.0557 47.8098 26.0557H49.8112L49.8034 26.0634ZM53.6045 27.5528V31.6409H52.4797V26.0634H53.9923L56.2109 30.2135V26.0634H57.3357V31.6409H55.8773L53.6045 27.5528ZM64.387 26.0634V27.0486H62.8433C62.4399 27.0486 62.1452 27.0719 61.959 27.1339C61.7806 27.1882 61.6254 27.2968 61.5013 27.4597C61.416 27.5683 61.3617 27.6769 61.3384 27.7933C61.3074 27.9019 61.2841 28.0958 61.2608 28.3673H64.3948V29.3525H61.2608C61.2996 29.8334 61.4393 30.1748 61.6797 30.3609C61.9202 30.5471 62.3236 30.6479 62.8976 30.6479H64.387V31.6331H62.8433C62.4244 31.6331 62.0521 31.6098 61.734 31.5555C61.2376 31.478 60.8342 31.253 60.5394 30.8962C60.1205 30.3842 59.9111 29.6938 59.9111 28.8095C59.9111 27.8398 60.2136 27.0796 60.8032 26.5444C61.0049 26.366 61.2221 26.2341 61.4548 26.1643C61.6875 26.0944 61.9978 26.0557 62.3856 26.0557H64.387V26.0634ZM68.2424 29.5154V31.6409H67.0555V26.0634H69.7783C70.5618 26.0634 71.1048 26.1643 71.4151 26.3582C71.6245 26.4901 71.7874 26.6685 71.9038 26.8857C72.0201 27.1029 72.0822 27.3434 72.0822 27.6149C72.0822 28.1424 71.9503 28.5535 71.6788 28.8405C71.5159 29.0112 71.291 29.143 71.0117 29.2361C71.2289 29.3137 71.3918 29.3913 71.5082 29.4766C71.6168 29.5619 71.7176 29.6938 71.8107 29.8645C71.8805 29.9963 71.9271 30.1205 71.9581 30.2446C71.9814 30.3687 72.0124 30.5549 72.0279 30.7953C72.0589 31.191 72.1055 31.478 72.1598 31.6331H70.8255C70.7867 31.5012 70.748 31.2375 70.7014 30.8419C70.6704 30.5161 70.6083 30.2678 70.523 30.0894C70.4377 29.9188 70.3058 29.7791 70.1351 29.6861C69.9257 29.5697 69.6076 29.5076 69.1965 29.5154H68.2424ZM68.2424 28.5302H69.9024C70.1817 28.5302 70.3756 28.4914 70.492 28.4061C70.6704 28.282 70.7557 28.0648 70.7557 27.7545C70.7557 27.4132 70.6238 27.196 70.3523 27.0951C70.2592 27.0641 70.1119 27.0486 69.8947 27.0486H68.2346V28.5302H68.2424ZM74.2232 31.6409L76.5271 26.0634H77.8924L80.1963 31.6409H78.8077L78.2725 30.3532H76.1547L75.6117 31.6409H74.2232ZM77.2175 27.4054L76.4263 29.368H78.0087L77.2175 27.4054ZM82.4769 26.0634H83.6638V29.1973C83.6793 29.593 83.6948 29.8567 83.7181 29.9886C83.7568 30.2446 83.8732 30.4152 84.0826 30.5083C84.2921 30.6014 84.6489 30.6479 85.1609 30.6479H86.2935V31.6331H85.0368C84.4472 31.6331 84.0128 31.6021 83.7413 31.5323C83.1285 31.3539 82.7329 30.966 82.57 30.3609C82.5079 30.1282 82.4769 29.7404 82.4691 29.1896V26.0557L82.4769 26.0634ZM94.0197 27.0486H92.251V26.0634H97.0527V27.0486H95.2065V31.6331H94.0197V27.0486ZM100.575 29.5154V31.6409H99.3877V26.0634H102.11C102.894 26.0634 103.437 26.1643 103.747 26.3582C103.957 26.4901 104.12 26.6685 104.236 26.8857C104.352 27.1029 104.407 27.3434 104.407 27.6149C104.407 28.1424 104.275 28.5535 104.003 28.8405C103.84 29.0112 103.615 29.143 103.344 29.2361C103.561 29.3137 103.724 29.3913 103.84 29.4766C103.957 29.5619 104.05 29.6938 104.143 29.8645C104.213 29.9963 104.259 30.1205 104.29 30.2446C104.314 30.3687 104.345 30.5549 104.36 30.7953C104.391 31.191 104.438 31.478 104.492 31.6331H103.158C103.119 31.5012 103.072 31.2375 103.034 30.8419C103.003 30.5161 102.94 30.2678 102.855 30.0894C102.77 29.9188 102.638 29.7791 102.467 29.6861C102.258 29.5697 101.94 29.5076 101.529 29.5154H100.575ZM100.575 28.5302H102.242C102.522 28.5302 102.716 28.4914 102.832 28.4061C103.01 28.282 103.096 28.0648 103.096 27.7545C103.096 27.4132 102.964 27.196 102.7 27.0951C102.607 27.0641 102.452 27.0486 102.242 27.0486H100.575V28.5302ZM106.555 31.6409L108.859 26.0634H110.225L112.528 31.6409H111.14L110.605 30.3532H108.487L107.944 31.6409H106.555ZM109.542 27.4054L108.751 29.368H110.333L109.542 27.4054ZM114.856 26.0634H117.222C117.811 26.0634 118.269 26.1255 118.595 26.2418C119.192 26.459 119.588 26.8547 119.781 27.4365C119.937 27.8786 120.006 28.3596 120.006 28.8638C120.006 29.368 119.937 29.8412 119.789 30.2911C119.642 30.7488 119.401 31.0824 119.068 31.2996C118.858 31.4314 118.626 31.5245 118.37 31.5711C118.114 31.6176 117.734 31.6409 117.214 31.6409H114.848V26.0634H114.856ZM116.042 27.0486V30.6479H117.222C117.734 30.6479 118.098 30.5316 118.292 30.2989C118.416 30.1592 118.509 29.9498 118.587 29.6861C118.664 29.4223 118.695 29.143 118.695 28.8405C118.695 28.5147 118.649 28.2122 118.564 27.9329C118.478 27.6614 118.362 27.452 118.214 27.3201C118.005 27.1339 117.671 27.0408 117.222 27.0408H116.042V27.0486ZM122.582 26.0634H123.769V31.6409H122.582V26.0634ZM127.764 27.5528V31.6409H126.639V26.0634H128.159L130.378 30.2135V26.0634H131.503V31.6409H130.044L127.771 27.5528H127.764ZM136.397 28.3285H139.128V31.6409H136.646C136.211 31.6409 135.87 31.6098 135.622 31.54C135.374 31.478 135.141 31.3616 134.939 31.2065C134.357 30.7566 134.063 29.9808 134.063 28.8715C134.063 28.1501 134.202 27.5451 134.481 27.0719C134.691 26.7228 134.97 26.4668 135.319 26.3039C135.676 26.141 136.134 26.0634 136.708 26.0634H139.136V27.0486H136.84C136.343 27.0486 135.986 27.1572 135.769 27.3744C135.505 27.6304 135.374 28.0881 135.374 28.7552C135.374 29.0965 135.405 29.4068 135.474 29.6783C135.544 29.9498 135.637 30.1592 135.754 30.2911C135.862 30.4152 136.01 30.5006 136.196 30.5626C136.382 30.6169 136.607 30.6479 136.878 30.6479H137.941V29.3137H136.397V28.3285ZM145.854 26.0634H147.04V29.1973C147.056 29.593 147.071 29.8567 147.095 29.9886C147.133 30.2446 147.25 30.4152 147.459 30.5083C147.669 30.6014 148.026 30.6479 148.545 30.6479H149.678V31.6331H148.421C147.832 31.6331 147.397 31.6021 147.126 31.5323C146.505 31.3539 146.117 30.966 145.954 30.3609C145.892 30.1282 145.861 29.7404 145.854 29.1896V26.0557V26.0634ZM152.036 26.0634H153.223V29.1973C153.238 29.593 153.254 29.8567 153.277 29.9886C153.316 30.2446 153.432 30.4152 153.642 30.5083C153.844 30.6014 154.208 30.6479 154.72 30.6479H155.853V31.6331H154.596C154.006 31.6331 153.572 31.6021 153.3 31.5323C152.688 31.3539 152.292 30.966 152.129 30.3609C152.067 30.1282 152.036 29.7404 152.028 29.1896V26.0557L152.036 26.0634ZM162.384 30.6557V31.6409H160.445C160.08 31.6409 159.793 31.6176 159.599 31.5866C158.917 31.4547 158.436 31.0746 158.141 30.4385C157.947 30.0196 157.854 29.4921 157.854 28.8715C157.854 28.1268 158.001 27.514 158.288 27.0408C158.498 26.6995 158.777 26.459 159.126 26.3039C159.475 26.1488 159.933 26.0712 160.491 26.0712H162.376V27.0563H160.623C160.096 27.0563 159.708 27.196 159.46 27.483C159.258 27.7157 159.157 28.1424 159.157 28.7629C159.157 29.5852 159.312 30.1282 159.63 30.392C159.855 30.5704 160.197 30.6635 160.67 30.6635H162.376L162.384 30.6557Z" fill="black"/>
<path fill-rule="evenodd" clip-rule="evenodd" d="M60.6712 4.31214L63.8672 0.0456543H47.7942C46.5996 0.0456543 45.5136 0.185284 44.5362 0.456787C43.5743 0.72829 42.7055 1.13942 41.9298 1.68243C41.123 2.24095 40.5334 2.89256 40.1378 3.62174C39.75 4.34316 39.556 5.16543 39.556 6.08854C39.556 7.01165 39.75 7.81065 40.1378 8.53207C40.5257 9.26125 41.123 9.90511 41.9298 10.4636C42.7055 11.0066 43.5743 11.4178 44.5362 11.6893C45.5136 11.9685 46.5996 12.1004 47.7942 12.1004H56.6375C57.0409 12.1004 57.4365 12.1314 57.8166 12.1935C58.1967 12.2555 58.5535 12.3486 58.8793 12.4727H58.8948C59.9964 12.9149 60.5394 13.6208 60.5394 14.575C60.5394 15.0637 60.3765 15.4981 60.0507 15.8782C59.7792 16.1962 59.3991 16.46 58.9103 16.6694C58.569 16.8168 58.2044 16.9332 57.8243 17.003C57.4442 17.0806 57.0486 17.1193 56.6375 17.1193H41.0144L37.8262 21.3625H56.6375C57.9329 21.3625 59.1043 21.2074 60.1515 20.8971C61.1832 20.5868 62.1063 20.1291 62.9208 19.5163C64.5964 18.2829 65.4342 16.6694 65.4342 14.6758C65.4342 13.6596 65.2247 12.7443 64.8214 11.9375C64.4102 11.1152 63.7819 10.3783 62.9441 9.73444C62.1141 9.11387 61.1832 8.64843 60.1437 8.33814C59.0888 8.02009 57.9252 7.86495 56.6375 7.86495H47.7942C47.1969 7.86495 46.7237 7.73308 46.3669 7.47709C45.917 7.15128 45.692 6.69361 45.692 6.0963C45.692 5.49899 45.917 5.03356 46.3669 4.70775C46.7237 4.45177 47.2047 4.31989 47.7942 4.31989H60.6712V4.31214Z" fill="#3D9DCD"/>
<path fill-rule="evenodd" clip-rule="evenodd" d="M131.408 21.1453V2.32622C131.408 0.0223243 127.677 -0.474138 126.607 0.557575L113.993 14.5749L101.822 0.906648C100.302 -0.799945 96.6172 0.17747 96.6172 2.30295V21.1453H101.877V9.23792L111.627 20.3773C111.837 20.5635 112.093 20.7342 112.388 20.8971C112.969 21.2073 113.567 21.3625 114.18 21.3625C114.792 21.3625 115.266 21.2384 115.708 20.9824C116.003 20.8117 116.274 20.579 116.522 20.292L126.141 9.19138V21.153H131.401L131.408 21.1453Z" fill="#3D9DCD"/>
<path fill-rule="evenodd" clip-rule="evenodd" d="M157.636 4.31214L160.832 0.0456543H144.759C143.565 0.0456543 142.479 0.185284 141.501 0.456787C140.539 0.72829 139.67 1.13942 138.895 1.68243C138.096 2.24095 137.498 2.89256 137.103 3.62174C136.715 4.34316 136.521 5.16543 136.521 6.08854C136.521 7.01165 136.715 7.81065 137.103 8.53207C137.491 9.26125 138.088 9.90511 138.895 10.4636C139.67 11.0066 140.539 11.4178 141.501 11.6893C142.479 11.9685 143.565 12.1004 144.759 12.1004H153.602C154.006 12.1004 154.401 12.1314 154.782 12.1935C155.169 12.2555 155.526 12.3486 155.844 12.4727H155.852C156.954 12.9149 157.504 13.6208 157.504 14.575C157.504 15.0637 157.341 15.4981 157.016 15.8782C156.744 16.1962 156.364 16.46 155.875 16.6694C155.534 16.8168 155.169 16.9332 154.789 17.003C154.409 17.0806 154.014 17.1193 153.61 17.1193H137.995L134.807 21.3548H153.618C154.913 21.3548 156.085 21.1996 157.132 20.8894C158.164 20.5791 159.087 20.1214 159.901 19.5086C161.577 18.2752 162.415 16.6617 162.415 14.668C162.415 13.6519 162.205 12.7365 161.802 11.9297C161.391 11.1075 160.762 10.3705 159.925 9.72669C159.095 9.10611 158.164 8.64068 157.124 8.33039C156.069 8.01234 154.906 7.85719 153.618 7.85719H144.775C144.177 7.85719 143.704 7.72532 143.347 7.46933C142.897 7.14353 142.68 6.68585 142.68 6.08854C142.68 5.49123 142.905 5.0258 143.347 4.7C143.704 4.44401 144.185 4.31214 144.775 4.31214H157.652H157.636Z" fill="#3D9DCD"/>
<path fill-rule="evenodd" clip-rule="evenodd" d="M87.3322 17.1037L86.4091 15.7617L80.7618 7.51575L80.118 6.56936L79.4664 7.50799L72.8339 17.0959L69.8939 21.3547H63.502L76.5341 2.29512C78.2795 -0.722442 82.065 -0.466452 83.888 2.28737L96.6176 21.3547H90.2334L87.3244 17.0959L87.3322 17.1037Z" fill="#3D9DCD"/>
</svg>
