<svg width="163" height="33" viewBox="0 0 163 33" fill="none" xmlns="http://www.w3.org/2000/svg">
<path d="M21.2079 20.3828C21.2079 20.3828 21.1845 20.4062 21.1768 20.414L21.2079 20.4296V20.3828Z" fill="#414142"/>
<path d="M3.47524 14.3473V10.2747L14.2578 4.04565V0.0351562L0 8.26559V12.3459V15.2859V16.24L14.2578 24.4472V20.5453L3.47524 14.3473Z" fill="#3D9DCD"/>
<path d="M14.2578 20.5453V24.4394L21.0842 20.4988C21.0842 20.4988 21.1462 20.4445 21.1773 20.4057L17.8339 18.4741L14.2578 20.5375V20.5453ZM14.2578 0.0351562V4.04565L25.0404 10.2747V12.726L28.5156 14.7119V8.26559L14.2578 0.0351562Z" fill="#3D9DCD"/>
<path d="M3.47524 22.7259V20.2436L0 18.25V24.7351L14.2578 32.9655V28.9472L3.47524 22.7259Z" fill="#9C9F9C"/>
<path d="M7.43098 12.4935C7.43098 12.4935 7.36892 12.5555 7.33789 12.5866L10.6813 14.5181L14.2573 12.4547V8.56055L7.43098 12.5012V12.4935Z" fill="#9C9F9C"/>
<path d="M28.5156 16.7134L14.2578 8.55273V12.4546L25.0404 18.6216V22.7252L14.2578 28.9465V32.9648L28.5156 24.7343V16.7134Z" fill="#CDCACA"/>
<path d="M40.1689 28.3276H42.8995V31.6399H40.4171C39.9827 31.6399 39.6414 31.6089 39.3932 31.5391C39.145 31.477 38.9122 31.3606 38.7106 31.2055C38.1288 30.7556 37.834 29.9798 37.834 28.8706C37.834 28.1491 37.9736 27.5441 38.2529 27.0709C38.4623 26.7218 38.7416 26.4658 39.0907 26.3029C39.4475 26.14 39.9052 26.0624 40.4792 26.0624H42.9072V27.0476H40.6188C40.1301 27.0476 39.7655 27.1562 39.5483 27.3734C39.2846 27.6294 39.1527 28.0871 39.1527 28.7542C39.1527 29.0955 39.1837 29.4058 39.2536 29.6773C39.3234 29.9488 39.4165 30.1583 39.5328 30.2901C39.6414 30.4143 39.7888 30.4996 39.9672 30.5616C40.1534 30.6159 40.3784 30.647 40.6499 30.647H41.7126V29.3127H40.1689V28.3276ZM49.8034 26.0624V27.0476H48.2597C47.8563 27.0476 47.5616 27.0709 47.3754 27.1329C47.197 27.1872 47.0418 27.2958 46.9177 27.4587C46.8324 27.5673 46.7781 27.6759 46.7548 27.7923C46.7238 27.9009 46.7005 28.0948 46.6772 28.3663H49.8112V29.3515H46.6772C46.716 29.8325 46.8557 30.1738 47.0961 30.36C47.3366 30.5461 47.74 30.647 48.314 30.647H49.8034V31.6321H48.2597C47.8408 31.6321 47.4685 31.6089 47.1582 31.5546C46.654 31.477 46.2583 31.252 45.9636 30.8952C45.5447 30.3832 45.3352 29.6928 45.3352 28.8085C45.3352 27.8389 45.63 27.0786 46.2273 26.5434C46.429 26.365 46.6462 26.2331 46.8789 26.1633C47.1116 26.0935 47.4219 26.0547 47.8098 26.0547H49.8112L49.8034 26.0624ZM53.6045 27.5518V31.6399H52.4797V26.0624H53.9923L56.2109 30.2126V26.0624H57.3357V31.6399H55.8773L53.6045 27.5518ZM64.387 26.0624V27.0476H62.8433C62.4399 27.0476 62.1452 27.0709 61.959 27.1329C61.7806 27.1872 61.6254 27.2958 61.5013 27.4587C61.416 27.5673 61.3617 27.6759 61.3384 27.7923C61.3074 27.9009 61.2841 28.0948 61.2608 28.3663H64.3948V29.3515H61.2608C61.2996 29.8325 61.4393 30.1738 61.6797 30.36C61.9202 30.5461 62.3236 30.647 62.8976 30.647H64.387V31.6321H62.8433C62.4244 31.6321 62.0521 31.6089 61.734 31.5546C61.2376 31.477 60.8342 31.252 60.5394 30.8952C60.1205 30.3832 59.9111 29.6928 59.9111 28.8085C59.9111 27.8389 60.2136 27.0786 60.8032 26.5434C61.0049 26.365 61.2221 26.2331 61.4548 26.1633C61.6875 26.0935 61.9978 26.0547 62.3856 26.0547H64.387V26.0624ZM68.2424 29.5144V31.6399H67.0555V26.0624H69.7783C70.5618 26.0624 71.1048 26.1633 71.4151 26.3572C71.6245 26.4891 71.7874 26.6675 71.9038 26.8847C72.0201 27.1019 72.0822 27.3424 72.0822 27.6139C72.0822 28.1414 71.9503 28.5525 71.6788 28.8395C71.5159 29.0102 71.291 29.1421 71.0117 29.2352C71.2289 29.3127 71.3918 29.3903 71.5082 29.4756C71.6168 29.561 71.7176 29.6928 71.8107 29.8635C71.8805 29.9954 71.9271 30.1195 71.9581 30.2436C71.9814 30.3677 72.0124 30.5539 72.0279 30.7944C72.0589 31.19 72.1055 31.477 72.1598 31.6321H70.8255C70.7867 31.5003 70.748 31.2365 70.7014 30.8409C70.6704 30.5151 70.6083 30.2669 70.523 30.0884C70.4377 29.9178 70.3058 29.7782 70.1351 29.6851C69.9257 29.5687 69.6076 29.5067 69.1965 29.5144H68.2424ZM68.2424 28.5292H69.9024C70.1817 28.5292 70.3756 28.4905 70.492 28.4051C70.6704 28.281 70.7557 28.0638 70.7557 27.7535C70.7557 27.4122 70.6238 27.195 70.3523 27.0942C70.2592 27.0631 70.1119 27.0476 69.8947 27.0476H68.2346V28.5292H68.2424ZM74.2232 31.6399L76.5271 26.0624H77.8924L80.1963 31.6399H78.8077L78.2725 30.3522H76.1547L75.6117 31.6399H74.2232ZM77.2175 27.4044L76.4263 29.367H78.0087L77.2175 27.4044ZM82.4769 26.0624H83.6638V29.1964C83.6793 29.592 83.6948 29.8557 83.7181 29.9876C83.7568 30.2436 83.8732 30.4143 84.0826 30.5073C84.2921 30.6004 84.6489 30.647 85.1609 30.647H86.2935V31.6321H85.0368C84.4472 31.6321 84.0128 31.6011 83.7413 31.5313C83.1285 31.3529 82.7329 30.965 82.57 30.36C82.5079 30.1272 82.4769 29.7394 82.4691 29.1886V26.0547L82.4769 26.0624ZM94.0197 27.0476H92.251V26.0624H97.0527V27.0476H95.2065V31.6321H94.0197V27.0476ZM100.575 29.5144V31.6399H99.3877V26.0624H102.11C102.894 26.0624 103.437 26.1633 103.747 26.3572C103.957 26.4891 104.12 26.6675 104.236 26.8847C104.352 27.1019 104.407 27.3424 104.407 27.6139C104.407 28.1414 104.275 28.5525 104.003 28.8395C103.84 29.0102 103.615 29.1421 103.344 29.2352C103.561 29.3127 103.724 29.3903 103.84 29.4756C103.957 29.561 104.05 29.6928 104.143 29.8635C104.213 29.9954 104.259 30.1195 104.29 30.2436C104.314 30.3677 104.345 30.5539 104.36 30.7944C104.391 31.19 104.438 31.477 104.492 31.6321H103.158C103.119 31.5003 103.072 31.2365 103.034 30.8409C103.003 30.5151 102.94 30.2669 102.855 30.0884C102.77 29.9178 102.638 29.7782 102.467 29.6851C102.258 29.5687 101.94 29.5067 101.529 29.5144H100.575ZM100.575 28.5292H102.242C102.522 28.5292 102.716 28.4905 102.832 28.4051C103.01 28.281 103.096 28.0638 103.096 27.7535C103.096 27.4122 102.964 27.195 102.7 27.0942C102.607 27.0631 102.452 27.0476 102.242 27.0476H100.575V28.5292ZM106.555 31.6399L108.859 26.0624H110.225L112.528 31.6399H111.14L110.605 30.3522H108.487L107.944 31.6399H106.555ZM109.542 27.4044L108.751 29.367H110.333L109.542 27.4044ZM114.856 26.0624H117.222C117.811 26.0624 118.269 26.1245 118.595 26.2409C119.192 26.4581 119.588 26.8537 119.781 27.4355C119.937 27.8776 120.006 28.3586 120.006 28.8628C120.006 29.367 119.937 29.8402 119.789 30.2901C119.642 30.7478 119.401 31.0814 119.068 31.2986C118.858 31.4305 118.626 31.5235 118.37 31.5701C118.114 31.6166 117.734 31.6399 117.214 31.6399H114.848V26.0624H114.856ZM116.042 27.0476V30.647H117.222C117.734 30.647 118.098 30.5306 118.292 30.2979C118.416 30.1583 118.509 29.9488 118.587 29.6851C118.664 29.4213 118.695 29.1421 118.695 28.8395C118.695 28.5137 118.649 28.2112 118.564 27.9319C118.478 27.6604 118.362 27.451 118.214 27.3191C118.005 27.1329 117.671 27.0399 117.222 27.0399H116.042V27.0476ZM122.582 26.0624H123.769V31.6399H122.582V26.0624ZM127.764 27.5518V31.6399H126.639V26.0624H128.159L130.378 30.2126V26.0624H131.503V31.6399H130.044L127.771 27.5518H127.764ZM136.397 28.3276H139.128V31.6399H136.646C136.211 31.6399 135.87 31.6089 135.622 31.5391C135.374 31.477 135.141 31.3606 134.939 31.2055C134.357 30.7556 134.063 29.9798 134.063 28.8706C134.063 28.1491 134.202 27.5441 134.481 27.0709C134.691 26.7218 134.97 26.4658 135.319 26.3029C135.676 26.14 136.134 26.0624 136.708 26.0624H139.136V27.0476H136.84C136.343 27.0476 135.986 27.1562 135.769 27.3734C135.505 27.6294 135.374 28.0871 135.374 28.7542C135.374 29.0955 135.405 29.4058 135.474 29.6773C135.544 29.9488 135.637 30.1583 135.754 30.2901C135.862 30.4143 136.01 30.4996 136.196 30.5616C136.382 30.6159 136.607 30.647 136.878 30.647H137.941V29.3127H136.397V28.3276ZM145.854 26.0624H147.04V29.1964C147.056 29.592 147.071 29.8557 147.095 29.9876C147.133 30.2436 147.25 30.4143 147.459 30.5073C147.669 30.6004 148.026 30.647 148.545 30.647H149.678V31.6321H148.421C147.832 31.6321 147.397 31.6011 147.126 31.5313C146.505 31.3529 146.117 30.965 145.954 30.36C145.892 30.1272 145.861 29.7394 145.854 29.1886V26.0547V26.0624ZM152.036 26.0624H153.223V29.1964C153.238 29.592 153.254 29.8557 153.277 29.9876C153.316 30.2436 153.432 30.4143 153.642 30.5073C153.844 30.6004 154.208 30.647 154.72 30.647H155.853V31.6321H154.596C154.006 31.6321 153.572 31.6011 153.3 31.5313C152.688 31.3529 152.292 30.965 152.129 30.36C152.067 30.1272 152.036 29.7394 152.028 29.1886V26.0547L152.036 26.0624ZM162.384 30.6547V31.6399H160.445C160.08 31.6399 159.793 31.6166 159.599 31.5856C158.917 31.4537 158.436 31.0736 158.141 30.4375C157.947 30.0186 157.854 29.4911 157.854 28.8706C157.854 28.1259 158.001 27.513 158.288 27.0399C158.498 26.6985 158.777 26.4581 159.126 26.3029C159.475 26.1478 159.933 26.0702 160.491 26.0702H162.376V27.0554H160.623C160.096 27.0554 159.708 27.195 159.46 27.482C159.258 27.7147 159.157 28.1414 159.157 28.762C159.157 29.5842 159.312 30.1272 159.63 30.391C159.855 30.5694 160.197 30.6625 160.67 30.6625H162.376L162.384 30.6547Z" fill="black"/>
<path fill-rule="evenodd" clip-rule="evenodd" d="M60.6712 4.31336L63.8672 0.046875H47.7942C46.5996 0.046875 45.5136 0.186504 44.5362 0.458008C43.5743 0.729511 42.7055 1.14064 41.9298 1.68365C41.123 2.24217 40.5334 2.89378 40.1378 3.62296C39.75 4.34438 39.556 5.16665 39.556 6.08976C39.556 7.01287 39.75 7.81187 40.1378 8.53329C40.5257 9.26247 41.123 9.90633 41.9298 10.4648C42.7055 11.0079 43.5743 11.419 44.5362 11.6905C45.5136 11.9698 46.5996 12.1016 47.7942 12.1016H56.6375C57.0409 12.1016 57.4365 12.1327 57.8166 12.1947C58.1967 12.2568 58.5535 12.3499 58.8793 12.474H58.8948C59.9964 12.9161 60.5394 13.622 60.5394 14.5762C60.5394 15.0649 60.3765 15.4993 60.0507 15.8794C59.7792 16.1974 59.3991 16.4612 58.9103 16.6706C58.569 16.818 58.2044 16.9344 57.8243 17.0042C57.4442 17.0818 57.0486 17.1206 56.6375 17.1206H41.0144L37.8262 21.3638H56.6375C57.9329 21.3638 59.1043 21.2086 60.1515 20.8983C61.1832 20.588 62.1063 20.1304 62.9208 19.5175C64.5964 18.2841 65.4342 16.6706 65.4342 14.677C65.4342 13.6608 65.2247 12.7455 64.8214 11.9387C64.4102 11.1165 63.7819 10.3795 62.9441 9.73567C62.1141 9.11509 61.1832 8.64965 60.1437 8.33936C59.0888 8.02131 57.9252 7.86617 56.6375 7.86617H47.7942C47.1969 7.86617 46.7237 7.7343 46.3669 7.47831C45.917 7.1525 45.692 6.69483 45.692 6.09752C45.692 5.50021 45.917 5.03478 46.3669 4.70897C46.7237 4.45299 47.2047 4.32111 47.7942 4.32111H60.6712V4.31336Z" fill="#3D9DCD"/>
<path fill-rule="evenodd" clip-rule="evenodd" d="M131.408 21.1453V2.32622C131.408 0.0223243 127.677 -0.474138 126.607 0.557575L113.993 14.5749L101.822 0.906648C100.302 -0.799945 96.6172 0.17747 96.6172 2.30295V21.1453H101.877V9.23792L111.627 20.3773C111.837 20.5635 112.093 20.7342 112.388 20.8971C112.969 21.2073 113.567 21.3625 114.18 21.3625C114.792 21.3625 115.266 21.2384 115.708 20.9824C116.003 20.8117 116.274 20.579 116.522 20.292L126.141 9.19138V21.153H131.401L131.408 21.1453Z" fill="#3D9DCD"/>
<path fill-rule="evenodd" clip-rule="evenodd" d="M157.636 4.31336L160.832 0.046875H144.759C143.565 0.046875 142.479 0.186504 141.501 0.458008C140.539 0.729511 139.67 1.14064 138.895 1.68365C138.096 2.24217 137.498 2.89378 137.103 3.62296C136.715 4.34438 136.521 5.16665 136.521 6.08976C136.521 7.01287 136.715 7.81187 137.103 8.53329C137.491 9.26247 138.088 9.90633 138.895 10.4648C139.67 11.0079 140.539 11.419 141.501 11.6905C142.479 11.9698 143.565 12.1016 144.759 12.1016H153.602C154.006 12.1016 154.401 12.1327 154.782 12.1947C155.169 12.2568 155.526 12.3499 155.844 12.474H155.852C156.954 12.9161 157.504 13.622 157.504 14.5762C157.504 15.0649 157.341 15.4993 157.016 15.8794C156.744 16.1974 156.364 16.4612 155.875 16.6706C155.534 16.818 155.169 16.9344 154.789 17.0042C154.409 17.0818 154.014 17.1206 153.61 17.1206H137.995L134.807 21.356H153.618C154.913 21.356 156.085 21.2009 157.132 20.8906C158.164 20.5803 159.087 20.1226 159.901 19.5098C161.577 18.2764 162.415 16.6629 162.415 14.6693C162.415 13.6531 162.205 12.7377 161.802 11.931C161.391 11.1087 160.762 10.3718 159.925 9.72791C159.095 9.10733 158.164 8.6419 157.124 8.33161C156.069 8.01356 154.906 7.85841 153.618 7.85841H144.775C144.177 7.85841 143.704 7.72654 143.347 7.47055C142.897 7.14475 142.68 6.68707 142.68 6.08976C142.68 5.49246 142.905 5.02702 143.347 4.70122C143.704 4.44523 144.185 4.31336 144.775 4.31336H157.652H157.636Z" fill="#3D9DCD"/>
<path fill-rule="evenodd" clip-rule="evenodd" d="M87.3322 17.1027L86.4091 15.7607L80.7618 7.51477L80.118 6.56839L79.4664 7.50701L72.8339 17.095L69.8939 21.3537H63.502L76.5341 2.29415C78.2795 -0.723418 82.065 -0.467428 83.888 2.28639L96.6176 21.3537H90.2334L87.3244 17.095L87.3322 17.1027Z" fill="#3D9DCD"/>
</svg>
