<svg width="118" height="47" viewBox="0 0 118 47" fill="none" xmlns="http://www.w3.org/2000/svg">
<rect width="118" height="47" fill="white"/>
<path d="M95.0002 14.2227C95.0002 15.8894 95.0002 17.5302 95.0002 19.1896C94.9462 19.1922 94.8938 19.1968 94.8417 19.1968C89.8058 19.1971 84.77 19.1978 79.734 19.1937C79.4943 19.1936 79.4049 19.2539 79.4131 19.5153C79.4262 19.9191 79.4164 20.3236 79.4164 20.741C84.6153 20.741 89.7991 20.741 94.9941 20.741C94.9941 22.4037 94.9941 24.0529 94.9941 25.7175C89.8112 25.7175 84.6268 25.7175 79.4249 25.7175C79.4216 25.7792 79.417 25.8266 79.4167 25.8741C79.4161 26.2596 79.4161 26.6449 79.4167 27.0304C79.417 27.1847 79.4858 27.2585 79.6395 27.2668C79.7143 27.2708 79.7895 27.2676 79.8647 27.2676C84.8354 27.2676 89.8064 27.2676 94.7771 27.2676C94.8462 27.2676 94.9157 27.2676 94.9947 27.2676C94.9947 28.9281 94.9947 30.5773 94.9947 32.2483C94.942 32.2483 94.889 32.2483 94.8359 32.2483C88.9542 32.2483 83.0721 32.2524 77.1904 32.2418C76.5896 32.2408 76.0132 32.0692 75.4658 31.8035C74.7439 31.4532 74.169 30.9357 73.7328 30.2752C73.431 29.8173 73.2079 29.3128 73.1354 28.7583C73.1042 28.5188 73.0688 28.2773 73.0685 28.0368C73.0643 24.773 73.0634 21.5092 73.0682 18.2454C73.0688 17.7625 73.181 17.2927 73.3855 16.8582C73.5507 16.5077 73.7432 16.1633 73.9717 15.8516C74.2844 15.4252 74.6984 15.098 75.1524 14.8231C75.5588 14.5767 75.9956 14.4094 76.4584 14.3121C76.6702 14.2674 76.8884 14.2271 77.1039 14.2269C83.0008 14.2222 88.8977 14.2228 94.7946 14.2227C94.8586 14.2227 94.9226 14.2227 95.0002 14.2227ZM93.5227 15.6988C93.4424 15.6988 93.3733 15.6988 93.3042 15.6988C87.9734 15.6988 82.6423 15.6971 77.3116 15.7043C77.0594 15.7044 76.7985 15.7539 76.5569 15.8294C76.0178 15.9975 75.5565 16.289 75.1928 16.7373C74.7706 17.2572 74.5464 17.8441 74.5455 18.5079C74.5406 21.6263 74.5419 24.7448 74.5461 27.8633C74.5464 28.0844 74.5685 28.3092 74.6133 28.5256C74.761 29.2395 75.1516 29.7988 75.7357 30.2286C76.2102 30.5777 76.7534 30.7635 77.3301 30.7646C82.6709 30.7752 88.0117 30.7707 93.3527 30.7701C93.41 30.7701 93.4676 30.7631 93.5185 30.7599C93.5185 30.078 93.5185 29.4149 93.5185 28.7426C93.4373 28.7426 93.3679 28.7426 93.2985 28.7426C88.5981 28.7426 83.8977 28.7426 79.1976 28.7423C78.8654 28.7423 78.5767 28.6206 78.3372 28.3986C78.052 28.1337 77.9096 27.7978 77.9093 27.4066C77.9081 26.4056 77.9087 25.4044 77.909 24.4033C77.909 24.3551 77.9132 24.307 77.9162 24.2389C83.126 24.2389 88.3229 24.2389 93.5182 24.2389C93.5182 23.5554 93.5182 22.8927 93.5182 22.2174C88.3129 22.2174 83.1191 22.2174 77.9074 22.2174C77.9074 22.152 77.9074 22.0983 77.9074 22.0445C77.9077 21.0684 77.9089 20.0924 77.9086 19.1163C77.9086 18.8348 77.9574 18.5687 78.1165 18.3282C78.3663 17.9506 78.7105 17.7239 79.1658 17.7234C83.881 17.7189 88.5962 17.7207 93.3115 17.7207C93.3797 17.7207 93.4478 17.7207 93.5227 17.7207C93.5227 17.0426 93.5227 16.3837 93.5227 15.6988Z" fill="black"/>
<path d="M55.3841 32.25C55.3151 32.25 55.2664 32.25 55.2175 32.25C53.2152 32.25 51.2129 32.2486 49.2106 32.253C49.0706 32.2533 49.0234 32.2247 49.0244 32.0739C49.0314 31.0077 49.0082 29.941 49.0351 28.8754C49.0537 28.1432 49.2724 27.4625 49.7211 26.8637C50.1186 26.3333 50.6374 25.9564 51.1954 25.6186C51.7327 25.2933 52.2609 24.9533 52.7942 24.6215C53.2469 24.3398 53.7013 24.0609 54.1545 23.78C54.4731 23.5826 54.7909 23.3839 55.1301 23.1727C54.8433 22.9947 54.5801 22.831 54.3167 22.6676C53.5055 22.1648 52.6937 21.663 51.8832 21.1592C51.4806 20.9087 51.0701 20.6692 50.6814 20.3986C49.9716 19.9043 49.4256 19.2717 49.1975 18.4194C49.1055 18.0753 49.0435 17.7137 49.0357 17.3587C49.014 16.3779 49.0281 15.3964 49.0281 14.4153C49.0281 14.3609 49.0281 14.3065 49.0281 14.2381C51.1473 14.2381 53.2556 14.2381 55.384 14.2381C55.384 14.2908 55.384 14.344 55.384 14.3973C55.384 15.2332 55.3864 16.0692 55.3816 16.9053C55.3808 17.0496 55.4253 17.147 55.5507 17.2232C56.2136 17.6261 56.8742 18.0328 57.5339 18.4409C58.0133 18.7373 58.4902 19.0378 58.9684 19.3362C59.3209 19.5561 59.6747 19.7736 60.0258 19.9956C60.1092 20.0483 60.1717 20.0516 60.2625 19.9939C60.8162 19.6402 61.375 19.2942 61.9339 18.9487C62.4507 18.6291 62.9701 18.3137 63.4881 17.9954C63.9173 17.7316 64.3473 17.4689 64.7737 17.2004C64.892 17.1258 64.9298 17.0027 64.9295 16.8645C64.9283 16.0484 64.9289 15.2324 64.9289 14.4166C64.9289 14.358 64.9289 14.2994 64.9289 14.2324C67.0511 14.2324 69.1556 14.2324 71.2783 14.2324C71.2783 14.2981 71.2783 14.3565 71.2783 14.4148C71.2783 15.2709 71.2771 16.1269 71.2789 16.9829C71.2801 17.5736 71.2259 18.157 71.0019 18.7088C70.8604 19.0581 70.6649 19.3776 70.4203 19.6712C69.9273 20.2631 69.2647 20.623 68.6286 21.0204C68.1379 21.3268 67.6463 21.6313 67.1547 21.936C66.5416 22.3163 65.9278 22.6957 65.3144 23.0762C65.2687 23.1045 65.225 23.1368 65.1687 23.1753C65.5548 23.4183 65.9336 23.6585 66.3146 23.8956C66.7974 24.1959 67.2826 24.4931 67.766 24.7924C68.3376 25.1461 68.9159 25.4893 69.4778 25.8575C70.0966 26.2632 70.6161 26.7722 70.9265 27.4571C71.1144 27.8715 71.242 28.3062 71.2456 28.7695C71.2544 29.8787 71.2672 30.9883 71.278 32.0975C71.2783 32.1416 71.2741 32.1859 71.2717 32.2399C69.1605 32.2399 67.0559 32.2399 64.9289 32.2399C64.9289 32.1763 64.9289 32.1183 64.9289 32.0604C64.9289 31.2343 64.918 30.4083 64.9353 29.5828C64.9408 29.3266 64.8405 29.1841 64.6365 29.0603C64.0327 28.6939 63.4372 28.3137 62.8362 27.9427C62.1719 27.5329 61.5047 27.1277 60.8393 26.7196C60.6414 26.5982 60.4411 26.4799 60.2506 26.3473C60.1737 26.294 60.1276 26.2889 60.0467 26.34C59.2987 26.8121 58.5477 27.2793 57.7963 27.7462C57.0371 28.2181 56.2773 28.6887 55.5162 29.1574C55.4212 29.2159 55.3817 29.2883 55.3821 29.4017C55.3857 30.2875 55.3841 31.1736 55.3841 32.0596C55.3841 32.1142 55.3841 32.1689 55.3841 32.25ZM62.3247 23.1758C62.5408 23.038 62.7335 22.9122 62.929 22.791C63.4415 22.4734 63.9558 22.1586 64.4684 21.8411C64.8544 21.6018 65.2385 21.3587 65.6243 21.1193C66.0525 20.8537 66.4826 20.5912 66.9108 20.3261C67.3054 20.0817 67.7033 19.8416 68.0922 19.5885C68.4274 19.3704 68.7753 19.1633 69.0763 18.9032C69.5409 18.502 69.7446 17.9572 69.7682 17.35C69.7816 16.9999 69.7707 16.6491 69.7707 16.2987C69.7707 16.1049 69.7707 15.9111 69.7707 15.7117C68.6423 15.7117 67.5297 15.7117 66.4059 15.7117C66.4059 16.1877 66.4087 16.6524 66.4038 17.1172C66.4026 17.2348 66.3895 17.3557 66.3596 17.4691C66.2498 17.8818 65.9943 18.1895 65.638 18.4142C65.0357 18.7938 64.4302 19.1687 63.8258 19.5452C63.4446 19.7828 63.0628 20.0196 62.6811 20.2567C62.1735 20.5718 61.6659 20.887 61.158 21.2016C60.8511 21.3915 60.546 21.5839 60.2341 21.7655C60.1892 21.7917 60.1 21.7841 60.052 21.7564C59.714 21.561 59.3789 21.3604 59.0478 21.1539C58.2302 20.6436 57.4161 20.1273 56.5984 19.617C55.9318 19.2008 55.259 18.7947 54.5953 18.3745C54.2856 18.1783 54.0485 17.9037 53.9623 17.544C53.8995 17.2819 53.8867 17.0053 53.8756 16.7341C53.8617 16.3955 53.8723 16.0557 53.8723 15.7122C52.7433 15.7122 51.6305 15.7122 50.4905 15.7122C50.5084 16.3121 50.5254 16.8995 50.5436 17.4868C50.5547 17.8408 50.6679 18.1628 50.8516 18.4631C51.1168 18.8964 51.5234 19.1725 51.9398 19.4339C52.7147 19.9202 53.4947 20.398 54.2724 20.8795C54.7894 21.1997 55.3057 21.5213 55.8231 21.8408C56.2732 22.1185 56.7253 22.393 57.1748 22.6713C57.4345 22.8321 57.691 22.9979 57.968 23.1734C57.7302 23.3237 57.5067 23.4675 57.2806 23.6072C56.6799 23.9785 56.077 24.3464 55.4769 24.7186C55.0321 24.9944 54.5913 25.2765 54.1468 25.5526C53.5049 25.9518 52.8578 26.3423 52.2199 26.7475C51.8786 26.9644 51.5319 27.1805 51.2232 27.4393C50.7175 27.8633 50.536 28.4538 50.5112 29.0904C50.4909 29.6102 50.5071 30.1315 50.508 30.652C50.5081 30.6898 50.5167 30.7273 50.5207 30.7602C51.6431 30.7602 52.7517 30.7602 53.8724 30.7602C53.8724 30.6989 53.8724 30.6496 53.8724 30.6004C53.8727 30.205 53.8686 29.8095 53.8754 29.4142C53.878 29.262 53.8974 29.1088 53.9227 28.9584C54.0013 28.4904 54.2898 28.1677 54.6726 27.9203C55.0787 27.6577 55.4909 27.4045 55.9014 27.1488C56.3379 26.8773 56.7757 26.6074 57.2132 26.3373C57.7303 26.0184 58.2486 25.701 58.7651 25.3808C59.2015 25.1101 59.635 24.8344 60.0736 24.5671C60.1095 24.5452 60.1854 24.5542 60.2249 24.5783C60.8113 24.9349 61.3943 25.2966 61.9785 25.6566C62.614 26.0485 63.2499 26.4395 63.8851 26.832C64.3648 27.1282 64.8458 27.4225 65.3214 27.7253C65.5335 27.8604 65.7493 27.9968 65.9357 28.1637C66.2615 28.4554 66.3976 28.8439 66.4042 29.2749C66.4112 29.7203 66.4057 30.1661 66.4057 30.6116C66.4057 30.6599 66.4057 30.7083 66.4057 30.7608C67.5371 30.7608 68.65 30.7608 69.7708 30.7608C69.7708 30.1536 69.7735 29.5581 69.7696 28.9627C69.7675 28.6313 69.6678 28.3182 69.5256 28.0257C69.3556 27.6755 69.081 27.3948 68.7625 27.1841C68.0736 26.7289 67.365 26.3034 66.6637 25.8672C66.0633 25.4938 65.462 25.1221 64.8607 24.7506C64.4028 24.4675 63.9436 24.1869 63.486 23.9029C63.1084 23.6688 62.7327 23.4314 62.3247 23.1758Z" fill="black"/>
<path d="M47.2134 32.242C45.0875 32.242 42.9828 32.242 40.8579 32.242C40.8579 30.712 40.8579 29.1891 40.8579 27.6572C37.3511 27.6572 33.8643 27.6572 30.3582 27.6572C30.3582 29.1805 30.3582 30.7035 30.3582 32.2382C28.2309 32.2382 26.123 32.2382 24.0008 32.2382C24.0008 32.1786 24.0008 32.1248 24.0008 32.071C24.0008 27.4863 23.997 22.9015 24.0059 18.3168C24.0069 17.7835 24.1533 17.271 24.3697 16.7776C24.6191 16.2092 24.9777 15.7232 25.4363 15.3139C25.9217 14.8807 26.4829 14.5773 27.1093 14.3891C27.6159 14.2368 28.132 14.2224 28.6541 14.2227C33.469 14.2254 38.2841 14.2204 43.0991 14.2284C43.8244 14.2295 44.5087 14.4366 45.1193 14.8322C45.4419 15.0412 45.7606 15.2716 46.0304 15.5427C46.4837 15.9984 46.8187 16.5415 47.0132 17.1613C47.1408 17.5673 47.2169 17.9796 47.2164 18.4101C47.2117 22.9498 47.2135 27.4896 47.2135 32.0292C47.2134 32.0939 47.2134 32.1585 47.2134 32.242ZM45.737 30.7661C45.737 30.6702 45.737 30.591 45.737 30.5119C45.737 26.6076 45.7377 22.7036 45.7353 18.7996C45.7351 18.5568 45.7351 18.3098 45.6916 18.0726C45.646 17.8233 45.5707 17.5738 45.4682 17.3419C45.2811 16.9187 44.994 16.5643 44.6212 16.2864C44.146 15.9322 43.6137 15.7057 43.0184 15.7047C38.5286 15.6977 34.0389 15.6995 29.5492 15.7019C29.0157 15.7022 28.4816 15.7101 27.949 15.7372C27.5583 15.7574 27.2002 15.9079 26.8696 16.1112C26.44 16.3757 26.0921 16.7263 25.8471 17.1691C25.6598 17.5076 25.5148 17.8732 25.514 18.2599C25.5059 22.3741 25.5089 26.4885 25.5093 30.6027C25.5093 30.6554 25.514 30.7082 25.5166 30.7629C26.6425 30.7629 27.7515 30.7629 28.8796 30.7629C28.8796 29.2298 28.8796 27.7065 28.8796 26.1807C33.3853 26.1807 37.8718 26.1807 42.3785 26.1807C42.3785 27.7155 42.3785 29.2381 42.3785 30.766C43.503 30.7661 44.6075 30.7661 45.737 30.7661Z" fill="black"/>
<path d="M42.3715 24.1703C37.8566 24.1703 33.3593 24.1703 28.8399 24.1703C28.8399 24.115 28.8399 24.0622 28.8399 24.0092C28.8399 22.3777 28.8295 20.7461 28.8447 19.1148C28.8514 18.3927 29.2382 17.8971 29.9802 17.7258C30.0184 17.7171 30.06 17.7222 30.1 17.7222C33.7633 17.722 37.4268 17.7175 41.09 17.7261C41.7004 17.7277 42.2621 18.1947 42.3319 18.8448C42.3557 19.0662 42.3687 19.2899 42.3692 19.5125C42.3726 21.0087 42.3714 22.5052 42.3715 24.0014C42.3715 24.0552 42.3715 24.1092 42.3715 24.1703ZM40.8571 22.6973C40.8571 22.6304 40.8571 22.5764 40.8571 22.5224C40.8568 21.5117 40.8564 20.5009 40.8562 19.4902C40.8562 19.2318 40.8239 19.1988 40.564 19.1988C37.2466 19.1985 33.9293 19.1985 30.6118 19.1987C30.4155 19.1987 30.3526 19.2608 30.3526 19.4557C30.3524 20.4914 30.3527 21.5272 30.3534 22.5629C30.3534 22.6061 30.3589 22.6492 30.3622 22.6974C33.8596 22.6973 37.3456 22.6973 40.8571 22.6973Z" fill="black"/>
</svg>
