<svg width="118" height="47" viewBox="0 0 118 47" fill="none" xmlns="http://www.w3.org/2000/svg">
<rect width="118" height="47" fill="white"/>
<g clip-path="url(#clip0_1738_1813)">
<path d="M56.0473 30.2175C55.9725 30.1797 55.8841 30.1122 55.8509 30.0676C55.8177 30.023 55.6192 29.6327 55.4099 29.2003C54.9048 28.1566 53.1895 24.7262 52.6066 23.5938C51.7393 21.9088 51.0245 20.5528 49.7602 18.1934C49.5737 17.8454 49.546 17.7772 49.5459 17.6646C49.5457 17.4217 49.7616 17.2352 49.9988 17.2737C50.1172 17.2929 51.7737 18.3363 54.0894 19.8502C54.3839 20.0427 54.684 20.2199 54.7564 20.2439C54.9497 20.3082 55.2379 20.2861 55.4199 20.1932C55.6376 20.0821 55.7792 19.9292 56.28 19.2646C58.3285 16.5465 61.1982 12.9807 63.7494 9.98344C65.633 7.77055 67.9923 5.10596 68.1321 5.03367C68.2676 4.96361 68.4379 5.00635 68.515 5.12974C68.597 5.26109 68.5656 5.34824 68.1619 6.1086C64.7851 12.4692 60.5026 21.4982 57.1755 29.2724C57.0159 29.6453 56.8606 29.987 56.8304 30.0319C56.8002 30.0767 56.7256 30.1485 56.6647 30.1913C56.571 30.2572 56.5253 30.2705 56.3686 30.2777C56.2089 30.2851 56.1646 30.2768 56.0473 30.2175Z" fill="#212C54"/>
<path d="M52.9641 41.4884C52.9331 41.4511 52.9334 41.4229 52.9655 41.3628C52.9997 41.2985 54.5664 38.9929 55.0145 38.3477L55.1472 38.1565L54.1314 36.673C53.4816 35.7239 53.1152 35.1592 53.1144 35.1056L53.113 35.0219L53.901 35.0129L54.6891 35.004L55.3398 35.9589C55.6977 36.4842 56.0003 36.9027 56.0122 36.889C56.0241 36.8753 56.318 36.4458 56.6652 35.9346L57.2965 35.0051H58.0746C58.8222 35.0051 58.8536 35.0078 58.8739 35.0718C58.8855 35.1085 58.8836 35.1575 58.8697 35.1807C58.8557 35.2039 58.3935 35.8828 57.8426 36.6894L56.8409 38.156L57.007 38.3976C57.6798 39.376 58.9401 41.226 58.9915 41.3106C59.0376 41.3864 59.0457 41.4304 59.0217 41.4753C58.9914 41.5319 58.9306 41.5365 58.2219 41.5365H57.455L56.741 40.4898C56.3483 39.9141 56.0119 39.4439 55.9935 39.4449C55.9751 39.4457 55.6387 39.9169 55.246 40.4916L54.532 41.5365H53.768C53.1448 41.5365 52.9966 41.5276 52.9641 41.4884ZM75.7467 40.3759L75.9728 40.3545V39.457C75.9728 38.7766 75.9627 38.5532 75.9311 38.5337C75.86 38.4897 74.6905 38.4783 74.3516 38.5182C73.7774 38.586 73.4616 38.7665 73.3674 39.0809C73.2977 39.3136 73.3159 39.6867 73.4064 39.8785C73.5996 40.2882 73.8958 40.3848 74.9848 40.3931C75.2795 40.3954 75.6224 40.3876 75.7467 40.3759ZM73.8794 41.5318C73.5452 41.495 73.066 41.3612 72.843 41.2425C72.7499 41.1928 72.5745 41.0541 72.4534 40.9341C72.0917 40.5758 71.957 40.209 71.9303 39.5101C71.9104 38.9877 71.9632 38.6861 72.1357 38.3378C72.2895 38.0273 72.4115 37.8867 72.6827 37.7074C73.1943 37.3694 73.6428 37.2795 74.927 37.2578C75.7743 37.2434 75.8772 37.2357 75.9045 37.1847C75.942 37.1147 75.8949 36.8883 75.8075 36.7187C75.5016 36.1253 74.4918 35.9769 73.2989 36.3501C73.0474 36.4288 72.9376 36.4492 72.897 36.4251C72.8361 36.3888 72.7084 36.1421 72.4853 35.6294C72.3131 35.2339 72.296 35.2611 72.8234 35.0908C73.7667 34.7863 74.7849 34.7252 75.5542 34.9269C75.6647 34.9559 75.8965 35.0469 76.0693 35.1292C76.3303 35.2535 76.4297 35.3251 76.6573 35.5523C76.9701 35.8646 77.1278 36.1351 77.2569 36.5806C77.3983 37.0687 77.4129 37.3437 77.413 39.5185V41.57L75.7801 41.5656C74.8821 41.5632 74.0268 41.548 73.8794 41.5318ZM65.7303 41.5298C65.6996 41.4991 65.6901 40.7247 65.6901 38.2485C65.6901 35.016 65.6902 35.0073 65.7587 34.9707C65.8036 34.9467 66.0419 34.9376 66.4466 34.9444C66.9527 34.9529 67.0717 34.964 67.0976 35.0051C67.115 35.0327 67.1296 35.1433 67.1298 35.2508L67.1304 35.4462L67.2884 35.3072C67.6528 34.9864 68.1604 34.8263 68.8052 34.8288C70.053 34.8337 70.91 35.4882 71.2541 36.6992C71.3283 36.9603 71.3297 37.0006 71.3419 39.2198C71.3511 40.9132 71.3444 41.487 71.3149 41.5226C71.2833 41.5606 71.139 41.57 70.5814 41.57C69.9516 41.57 69.8822 41.5643 69.8319 41.5087C69.7816 41.4531 69.7765 41.2582 69.7765 39.4002C69.7765 38.0236 69.7643 37.2948 69.7392 37.1755C69.6463 36.734 69.367 36.3932 69.0139 36.2906C68.7616 36.2172 68.2588 36.2204 68.0157 36.2968C67.662 36.4081 67.3937 36.7383 67.3017 37.1755C67.2766 37.2949 67.2644 38.0251 67.2644 39.406C67.2644 41.3525 67.2613 41.462 67.2032 41.5145C67.1504 41.5623 67.0473 41.57 66.4562 41.57C65.9676 41.57 65.7589 41.5584 65.7303 41.5298ZM40.0408 41.5304C40.0091 41.4987 40 40.4852 40 36.9936C40 32.9511 40.0053 32.4925 40.0526 32.4451C40.099 32.3988 40.295 32.3925 41.7022 32.3926C44.1546 32.3927 44.6207 32.4511 45.4093 32.857C45.6445 32.978 45.7737 33.0747 45.9967 33.2968C46.4636 33.7617 46.6958 34.3097 46.773 35.1288C46.902 36.4975 46.3252 37.5557 45.1246 38.1535C44.968 38.2315 44.8346 38.3001 44.8281 38.306C44.8216 38.3119 45.3077 39.0021 45.9083 39.8399C47.0284 41.4022 47.0937 41.5123 46.9249 41.5536C46.8835 41.5637 46.4729 41.5678 46.0124 41.5626L45.1753 41.5532L43.6225 39.3593L42.0697 37.1654L42.9859 37.1453C43.9573 37.1239 44.1037 37.103 44.4773 36.9324C44.8415 36.7661 45.1034 36.4179 45.1947 35.9786C45.2556 35.6856 45.217 35.0336 45.1242 34.7873C44.9209 34.2478 44.5382 33.9919 43.8016 33.9029C43.6358 33.8828 43.1141 33.8664 42.6422 33.8663C41.8242 33.8662 41.7801 33.8695 41.6958 33.9358C41.6471 33.9741 41.5886 34.0382 41.5656 34.0782C41.5334 34.1345 41.5202 34.9879 41.5072 37.8521L41.4905 41.5532L40.7861 41.5622C40.2664 41.5689 40.071 41.5604 40.0408 41.5304ZM62.3562 40.2793C62.9239 40.1314 63.3395 39.6992 63.5468 39.0411C63.6508 38.7106 63.6753 38.0981 63.5996 37.7159C63.4147 36.782 62.7784 36.2108 61.923 36.2108C61.227 36.2108 60.6982 36.5392 60.4019 37.1552C60.2151 37.5436 60.1507 37.8921 60.1714 38.4025C60.1973 39.039 60.3596 39.4516 60.7405 39.8496C60.9426 40.0607 61.2339 40.2332 61.4894 40.2931C61.6985 40.3422 62.142 40.3351 62.3562 40.2793ZM61.2354 41.6412C59.8284 41.3333 58.8341 40.1503 58.6888 38.6114C58.5302 36.9322 59.4634 35.4307 60.9583 34.9595C62.2831 34.5419 63.7475 35.043 64.5176 36.1773C64.9863 36.8677 65.2038 37.7439 65.1216 38.6109C64.9799 40.1063 64.0989 41.213 62.738 41.6052C62.3787 41.7087 61.6261 41.7268 61.2354 41.6412ZM51.8922 37.6323C51.9964 37.5067 51.7268 36.8618 51.4543 36.5849C51.1631 36.2892 50.7994 36.145 50.343 36.1442C49.8278 36.1436 49.4286 36.2943 49.1155 36.6081C48.8257 36.8986 48.5593 37.4639 48.6406 37.6159C48.6769 37.6837 48.6982 37.6846 50.2631 37.6846C51.6594 37.6846 51.8539 37.6783 51.8922 37.6323ZM49.7284 41.657C48.981 41.5147 48.4326 41.2347 47.9522 40.7502C47.1286 39.9195 46.8059 38.5312 47.1395 37.2533C47.4449 36.0833 48.3413 35.175 49.4621 34.8997C49.9083 34.7901 50.5777 34.7966 51.0271 34.915C52.4028 35.2773 53.2697 36.5697 53.278 38.2707L53.2805 38.7732L50.9263 38.7899C48.3759 38.808 48.4815 38.7995 48.5249 38.9838C48.6425 39.4832 48.9967 39.9513 49.4206 40.1676C49.7818 40.3519 50.4207 40.4153 50.8975 40.3143C51.1976 40.2507 51.554 40.085 51.8169 39.8869C51.933 39.7993 52.0548 39.7277 52.0876 39.7277C52.1727 39.7277 52.8618 40.5465 52.8618 40.6476C52.8618 40.8109 52.2102 41.2924 51.7484 41.4705C51.6048 41.5259 51.3859 41.5944 51.2619 41.6228C50.9477 41.6947 50.0334 41.7152 49.7284 41.657Z" fill="#212C54"/>
</g>
<defs>
<clipPath id="clip0_1738_1813">
<rect width="37.413" height="36.695" fill="white" transform="translate(40 5)"/>
</clipPath>
</defs>
</svg>
