<svg width="54" height="54" viewBox="0 0 54 54" fill="none" xmlns="http://www.w3.org/2000/svg">
<g clip-path="url(#clip0_1738_1790)">
<path d="M27 0C12.1113 0 0 12.1125 0 27C0 41.8875 12.1113 54 27 54C41.8887 54 54 41.8875 54 27C54 12.1125 41.8887 0 27 0ZM37.7337 27.9459L21.9837 38.0709C21.7991 38.1907 21.586 38.25 21.375 38.25C21.1905 38.25 21.0037 38.2038 20.8367 38.1127C20.4741 37.915 20.25 37.537 20.25 37.125V16.875C20.25 16.463 20.4741 16.085 20.8367 15.8873C21.1927 15.6917 21.6387 15.7038 21.9837 15.9291L37.7337 26.0541C38.0545 26.2606 38.25 26.6177 38.25 27C38.25 27.3823 38.0545 27.7393 37.7337 27.9459Z" fill="white"/>
</g>
<defs>
<clipPath id="clip0_1738_1790">
<rect width="54" height="54" fill="white"/>
</clipPath>
</defs>
</svg>
