<svg width="31" height="28" viewBox="0 0 31 28" fill="none" xmlns="http://www.w3.org/2000/svg">
<path d="M31 1.19301L30.2177 6.81597C28.653 6.68444 27.3817 6.94751 26.4038 7.60516C25.4259 8.22994 24.7413 9.15066 24.3502 10.3673C23.9916 11.5511 23.9264 12.9322 24.1546 14.5106H31V27.9268H17.7003V14.5106C17.7003 9.77543 18.7923 6.1912 20.9763 3.75787C23.1604 1.29166 26.5016 0.436703 31 1.19301ZM13.2997 1.19301L12.5173 6.81597C10.9527 6.68444 9.68139 6.94751 8.70347 7.60516C7.72555 8.22994 7.04101 9.15066 6.64984 10.3673C6.29127 11.5511 6.22608 12.9322 6.45426 14.5106H13.2997V27.9268H0V14.5106C0 9.77543 1.09201 6.1912 3.27603 3.75787C5.46004 1.29166 8.80126 0.436703 13.2997 1.19301Z" fill="#3D9DCD"/>
</svg>
