<svg width="145" height="30" viewBox="0 0 145 30" fill="none" xmlns="http://www.w3.org/2000/svg">
<path d="M13.5489 3.85381C13.8483 2.9325 15.1517 2.9325 15.4511 3.85381L17.5309 10.255C17.6648 10.667 18.0488 10.946 18.482 10.946L25.2126 10.946C26.1814 10.946 26.5841 12.1856 25.8004 12.755L20.3552 16.7112C20.0047 16.9658 19.8581 17.4172 19.9919 17.8292L22.0718 24.2305C22.3712 25.1518 21.3167 25.9179 20.533 25.3485L15.0878 21.3923C14.7373 21.1377 14.2627 21.1377 13.9122 21.3923L8.46701 25.3485C7.6833 25.9179 6.62882 25.1518 6.92817 24.2305L9.00805 17.8292C9.14193 17.4172 8.99527 16.9658 8.64478 16.7112L3.19958 12.755C2.41586 12.1856 2.81864 10.946 3.78736 10.946L10.518 10.946C10.9512 10.946 11.3352 10.6671 11.4691 10.255L13.5489 3.85381Z" fill="#3D9DCD"/>
<path d="M42.5489 3.85381C42.8483 2.9325 44.1517 2.9325 44.4511 3.85381L46.5309 10.255C46.6648 10.667 47.0488 10.946 47.482 10.946L54.2126 10.946C55.1814 10.946 55.5841 12.1856 54.8004 12.755L49.3552 16.7112C49.0047 16.9658 48.8581 17.4172 48.9919 17.8292L51.0718 24.2305C51.3712 25.1518 50.3167 25.9179 49.533 25.3485L44.0878 21.3923C43.7373 21.1377 43.2627 21.1377 42.9122 21.3923L37.467 25.3485C36.6833 25.9179 35.6288 25.1518 35.9282 24.2305L38.0081 17.8292C38.1419 17.4172 37.9953 16.9658 37.6448 16.7112L32.1996 12.755C31.4159 12.1856 31.8186 10.946 32.7874 10.946L39.518 10.946C39.9512 10.946 40.3352 10.6671 40.4691 10.255L42.5489 3.85381Z" fill="#3D9DCD"/>
<path d="M71.5489 3.85381C71.8483 2.9325 73.1517 2.9325 73.4511 3.85381L75.5309 10.255C75.6648 10.667 76.0488 10.946 76.482 10.946L83.2126 10.946C84.1814 10.946 84.5841 12.1856 83.8004 12.755L78.3552 16.7112C78.0047 16.9658 77.8581 17.4172 77.9919 17.8292L80.0718 24.2305C80.3712 25.1518 79.3167 25.9179 78.533 25.3485L73.0878 21.3923C72.7373 21.1377 72.2627 21.1377 71.9122 21.3923L66.467 25.3485C65.6833 25.9179 64.6288 25.1518 64.9282 24.2305L67.0081 17.8292C67.1419 17.4172 66.9953 16.9658 66.6448 16.7112L61.1996 12.755C60.4159 12.1856 60.8186 10.946 61.7874 10.946L68.518 10.946C68.9512 10.946 69.3352 10.6671 69.4691 10.255L71.5489 3.85381Z" fill="#3D9DCD"/>
<path d="M100.549 3.85381C100.848 2.9325 102.152 2.9325 102.451 3.85381L104.531 10.255C104.665 10.667 105.049 10.946 105.482 10.946L112.213 10.946C113.181 10.946 113.584 12.1856 112.8 12.755L107.355 16.7112C107.005 16.9658 106.858 17.4172 106.992 17.8292L109.072 24.2305C109.371 25.1518 108.317 25.9179 107.533 25.3485L102.088 21.3923C101.737 21.1377 101.263 21.1377 100.912 21.3923L95.467 25.3485C94.6833 25.9179 93.6288 25.1518 93.9282 24.2305L96.0081 17.8292C96.1419 17.4172 95.9953 16.9658 95.6448 16.7112L90.1996 12.755C89.4159 12.1856 89.8186 10.946 90.7874 10.946L97.518 10.946C97.9512 10.946 98.3352 10.6671 98.4691 10.255L100.549 3.85381Z" fill="#3D9DCD"/>
<path d="M129.549 3.85381C129.848 2.9325 131.152 2.9325 131.451 3.85381L133.531 10.255C133.665 10.667 134.049 10.946 134.482 10.946L141.213 10.946C142.181 10.946 142.584 12.1856 141.8 12.755L136.355 16.7112C136.005 16.9658 135.858 17.4172 135.992 17.8292L138.072 24.2305C138.371 25.1518 137.317 25.9179 136.533 25.3485L131.088 21.3923C130.737 21.1377 130.263 21.1377 129.912 21.3923L124.467 25.3485C123.683 25.9179 122.629 25.1518 122.928 24.2305L125.008 17.8292C125.142 17.4172 124.995 16.9658 124.645 16.7112L119.2 12.755C118.416 12.1856 118.819 10.946 119.787 10.946L126.518 10.946C126.951 10.946 127.335 10.6671 127.469 10.255L129.549 3.85381Z" fill="#3D9DCD"/>
</svg>
